<svg xmlns="http://www.w3.org/2000/svg" viewBox="0 0 100 100">
  <!-- Ground cover - low, spreading, mat-like pattern -->
  <defs>
    <radialGradient id="gc_fill" cx="50%" cy="50%" r="55%">
      <stop offset="0%" stop-color="#6aac38"/>
      <stop offset="70%" stop-color="#5a9830"/>
      <stop offset="100%" stop-color="#4a8428"/>
    </radialGradient>
  </defs>
  <!-- Irregular spreading base -->
  <path d="M15 48 C12 36 22 22 38 18 C48 14 56 16 66 14 C80 12 92 26 90 42 C92 54 86 66 78 74 C68 82 58 88 44 86 C32 84 20 78 14 66 C10 58 12 52 15 48Z" fill="url(#gc_fill)" opacity="0.75"/>
  <!-- Small leaf rosettes scattered -->
  <circle cx="30" cy="35" r="8" fill="#72b440" opacity="0.55"/>
  <circle cx="50" cy="28" r="7" fill="#6aac38" opacity="0.5"/>
  <circle cx="70" cy="35" r="8" fill="#72b440" opacity="0.5"/>
  <circle cx="38" cy="52" r="7" fill="#6aac38" opacity="0.5"/>
  <circle cx="58" cy="50" r="8" fill="#72b440" opacity="0.45"/>
  <circle cx="75" cy="55" r="7" fill="#6aac38" opacity="0.45"/>
  <circle cx="28" cy="65" r="7" fill="#72b440" opacity="0.45"/>
  <circle cx="50" cy="68" r="8" fill="#6aac38" opacity="0.4"/>
  <circle cx="68" cy="70" r="7" fill="#72b440" opacity="0.4"/>
  <!-- Tiny flower dots -->
  <circle cx="35" cy="38" r="2" fill="#c8a0d8" opacity="0.6"/>
  <circle cx="55" cy="32" r="1.8" fill="#c8a0d8" opacity="0.55"/>
  <circle cx="65" cy="55" r="2" fill="#c8a0d8" opacity="0.5"/>
  <circle cx="45" cy="62" r="1.8" fill="#c8a0d8" opacity="0.55"/>
</svg>
