<svg xmlns="http://www.w3.org/2000/svg" viewBox="0 0 100 100">
  <!-- Herb plant - small bushy aromatic plant with fine leaves -->
  <defs>
    <radialGradient id="herb_fill" cx="50%" cy="50%" r="50%">
      <stop offset="0%" stop-color="#6cb838"/>
      <stop offset="70%" stop-color="#5aa42e"/>
      <stop offset="100%" stop-color="#4a9024"/>
    </radialGradient>
  </defs>
  <!-- Small bushy base -->
  <ellipse cx="50" cy="50" rx="30" ry="28" fill="url(#herb_fill)" opacity="0.8"/>
  <!-- Fine leaf sprigs radiating -->
  <ellipse cx="50" cy="24" rx="5" ry="12" fill="#62b034" opacity="0.6"/>
  <ellipse cx="50" cy="76" rx="5" ry="12" fill="#62b034" opacity="0.55"/>
  <ellipse cx="24" cy="50" rx="12" ry="5" fill="#62b034" opacity="0.6"/>
  <ellipse cx="76" cy="50" rx="12" ry="5" fill="#62b034" opacity="0.55"/>
  <ellipse cx="30" cy="32" rx="4" ry="10" fill="#5aa82e" opacity="0.5" transform="rotate(-45 30 32)"/>
  <ellipse cx="70" cy="32" rx="4" ry="10" fill="#5aa82e" opacity="0.45" transform="rotate(45 70 32)"/>
  <ellipse cx="32" cy="68" rx="4" ry="10" fill="#5aa82e" opacity="0.45" transform="rotate(45 32 68)"/>
  <ellipse cx="68" cy="68" rx="4" ry="10" fill="#5aa82e" opacity="0.4" transform="rotate(-45 68 68)"/>
  <!-- Leaf cluster bumps -->
  <circle cx="42" cy="42" r="8" fill="#72c042" opacity="0.45"/>
  <circle cx="58" cy="44" r="7" fill="#6abc3c" opacity="0.4"/>
  <circle cx="50" cy="56" r="7" fill="#72c042" opacity="0.4"/>
  <!-- Center -->
  <circle cx="50" cy="50" r="4" fill="#80cc50" opacity="0.4"/>
</svg>
