<svg xmlns="http://www.w3.org/2000/svg" width="64" height="64" viewBox="0 0 64 64" fill="none">
  <g stroke="#1F2937" stroke-width="2.5" stroke-linecap="round" stroke-linejoin="round" transform="scale(2.6667)">
    <path stroke="none" d="M0 0h24v24H0z" fill="none"/>
    <path d="M5 20a2 2 0 1 0 4 0a2 2 0 0 0 -4 0" />
    <path d="M15 20a2 2 0 1 0 4 0a2 2 0 0 0 -4 0" />
    <path d="M5 20h-2v-6l2 -5h9l4 5h1a2 2 0 0 1 2 2v4h-2m-4 0h-6m-6 -6h15m-6 0v-5" fill="#64748B" opacity="0.3"/>
    <path d="M3 6l9 -4l9 4" stroke="#A8A29E" stroke-width="3"/>
  </g>
</svg>
