<svg xmlns="http://www.w3.org/2000/svg" width="64" height="64" viewBox="0 0 64 64" fill="none">
  <g stroke="#1F2937" stroke-width="2.5" stroke-linecap="round" stroke-linejoin="round" transform="scale(2.6667)">
    <path stroke="none" d="M0 0h24v24H0z" fill="none"/>
    <path d="M20 11l-8 -8l-9 9h2v7a2 2 0 0 0 2 2h5" fill="#06B6D4" opacity="0.3"/>
    <path d="M9 21v-6a2 2 0 0 1 2 -2h2c.325 0 .631 .077 .902 .215" />
    <path d="M16 22s0 -2 3 -4" />
    <path d="M19 21a3 3 0 0 1 0 -6h3v3a3 3 0 0 1 -3 3" fill="#22C55E"/>
  </g>
</svg>
