<svg xmlns="http://www.w3.org/2000/svg" width="64" height="64" viewBox="0 0 64 64" fill="none">
  <!-- Winding path -->
  <path d="M12 58Q8 40 20 32Q32 24 28 14Q24 6 36 4Q48 2 52 14Q56 26 44 34Q32 42 36 50Q40 58 52 58" fill="none" stroke="#A8A29E" stroke-width="12" stroke-linecap="round" stroke-opacity="0.35"/>
  <path d="M12 58Q8 40 20 32Q32 24 28 14Q24 6 36 4Q48 2 52 14Q56 26 44 34Q32 42 36 50Q40 58 52 58" fill="none" stroke="#78716C" stroke-width="2.5" stroke-linecap="round" stroke-dasharray="6 4"/>
  <!-- Path stepping stones -->
  <circle cx="16" cy="48" r="3" fill="#D6D3D1" stroke="#78716C" stroke-width="1.2"/>
  <circle cx="22" cy="30" r="3" fill="#D6D3D1" stroke="#78716C" stroke-width="1.2"/>
  <circle cx="34" cy="8" r="3" fill="#D6D3D1" stroke="#78716C" stroke-width="1.2"/>
  <circle cx="48" cy="20" r="3" fill="#D6D3D1" stroke="#78716C" stroke-width="1.2"/>
  <circle cx="40" cy="38" r="3" fill="#D6D3D1" stroke="#78716C" stroke-width="1.2"/>
  <circle cx="40" cy="54" r="3" fill="#D6D3D1" stroke="#78716C" stroke-width="1.2"/>
</svg>
