<svg xmlns="http://www.w3.org/2000/svg" width="64" height="64" viewBox="0 0 64 64" fill="none">
  <g stroke="#1F2937" stroke-width="2.5" stroke-linecap="round" stroke-linejoin="round" transform="scale(2.6667)">
    <path stroke="none" d="M0 0h24v24H0z" fill="none"/>
    <path d="M12 13l-2 -2" />
    <path d="M12 12l2 -2" />
    <path d="M12 21v-13" fill="#A16207"/>
    <path d="M9.824 16a3 3 0 0 1 -2.743 -3.69a3 3 0 0 1 .304 -4.833a3 3 0 0 1 4.615 -3.707a3 3 0 0 1 4.614 3.707a3 3 0 0 1 .305 4.833a3 3 0 0 1 -2.919 3.695h-4l-.176 -.005" fill="#22C55E"/>
  </g>
</svg>
