<svg xmlns="http://www.w3.org/2000/svg" width="64" height="64" viewBox="0 0 64 64" fill="none">
  <g stroke="#1F2937" stroke-width="2.5" stroke-linecap="round" stroke-linejoin="round" transform="scale(2.6667)">
    <path stroke="none" d="M0 0h24v24H0z" fill="none"/>
    <path d="M4 6a2 2 0 0 1 2 -2h12a2 2 0 0 1 2 2v12a2 2 0 0 1 -2 2h-12a2 2 0 0 1 -2 -2l0 -12" fill="#78716C" opacity="0.3"/>
    <path d="M4 8h16" />
    <path d="M20 12h-16" />
    <path d="M4 16h16" />
    <path d="M9 4v4" />
    <path d="M14 8v4" />
    <path d="M8 12v4" />
    <path d="M16 12v4" />
    <path d="M11 16v4" />
  </g>
</svg>
