<svg xmlns="http://www.w3.org/2000/svg" width="64" height="64" viewBox="0 0 64 64" fill="none">
  <g stroke="#1F2937" stroke-width="2.5" stroke-linecap="round" stroke-linejoin="round">
<rect x="10" y="18" width="44" height="32" rx="3" fill="#EC4899" opacity="0.2"/>
<rect x="10" y="20" width="10" height="6" rx="1" fill="#EF4444"/><rect x="22" y="20" width="10" height="6" rx="1" fill="#EF4444"/><rect x="34" y="20" width="10" height="6" rx="1" fill="#EF4444"/><rect x="46" y="20" width="10" height="6" rx="1" fill="#EF4444"/><rect x="16" y="28" width="10" height="6" rx="1" fill="#EF4444"/><rect x="28" y="28" width="10" height="6" rx="1" fill="#EF4444"/><rect x="40" y="28" width="10" height="6" rx="1" fill="#EF4444"/><rect x="52" y="28" width="10" height="6" rx="1" fill="#EF4444"/><rect x="10" y="36" width="10" height="6" rx="1" fill="#EF4444"/><rect x="22" y="36" width="10" height="6" rx="1" fill="#EF4444"/><rect x="34" y="36" width="10" height="6" rx="1" fill="#EF4444"/><rect x="46" y="36" width="10" height="6" rx="1" fill="#EF4444"/><rect x="16" y="44" width="10" height="6" rx="1" fill="#EF4444"/><rect x="28" y="44" width="10" height="6" rx="1" fill="#EF4444"/><rect x="40" y="44" width="10" height="6" rx="1" fill="#EF4444"/><rect x="52" y="44" width="10" height="6" rx="1" fill="#EF4444"/>
  </g>
</svg>