<svg xmlns="http://www.w3.org/2000/svg" viewBox="0 0 100 100">
  <!-- Compost Bin - top-down view -->
  <!-- Shadow -->
  <rect x="6" y="6" width="92" height="92" rx="4" fill="#00000020"/>
  <!-- Outer wood slat walls -->
  <rect x="2" y="2" width="92" height="92" rx="4" fill="#6B4A28" stroke="#4A3218" stroke-width="2"/>
  <!-- Horizontal wood slat lines -->
  <line x1="2" y1="20" x2="94" y2="20" stroke="#5A3E20" stroke-width="1" opacity="0.5"/>
  <line x1="2" y1="38" x2="94" y2="38" stroke="#5A3E20" stroke-width="1" opacity="0.5"/>
  <line x1="2" y1="56" x2="94" y2="56" stroke="#5A3E20" stroke-width="1" opacity="0.5"/>
  <line x1="2" y1="74" x2="94" y2="74" stroke="#5A3E20" stroke-width="1" opacity="0.5"/>
  <!-- Interior compost material visible from top -->
  <rect x="8" y="8" width="80" height="80" rx="2" fill="#5C4020"/>
  <!-- Compost texture - organic debris -->
  <circle cx="25" cy="25" r="4" fill="#4A6020" opacity="0.5"/>
  <circle cx="55" cy="20" r="3" fill="#6A5530" opacity="0.4"/>
  <circle cx="40" cy="45" r="5" fill="#4A6020" opacity="0.4"/>
  <circle cx="70" cy="40" r="3" fill="#785028" opacity="0.5"/>
  <circle cx="30" cy="65" r="4" fill="#6A5530" opacity="0.4"/>
  <circle cx="60" cy="70" r="3" fill="#4A6020" opacity="0.5"/>
  <circle cx="75" cy="60" r="4" fill="#785028" opacity="0.4"/>
  <!-- Small leaf/twig details -->
  <ellipse cx="20" cy="50" rx="5" ry="2" fill="#5A7030" opacity="0.3" transform="rotate(30 20 50)"/>
  <ellipse cx="65" cy="55" rx="4" ry="2" fill="#5A7030" opacity="0.3" transform="rotate(-20 65 55)"/>
  <ellipse cx="45" cy="75" rx="5" ry="2" fill="#5A7030" opacity="0.3" transform="rotate(45 45 75)"/>
</svg>
