<svg xmlns="http://www.w3.org/2000/svg" viewBox="0 0 180 60">
  <!-- Garden bench - top-down view -->
  <!-- Shadow -->
  <rect x="5" y="5" width="172" height="52" rx="3" fill="#00000020"/>
  <!-- Seat planks -->
  <rect x="2" y="14" width="172" height="38" rx="2" fill="#A0703C" stroke="#6B4226" stroke-width="1.5"/>
  <!-- Plank separations -->
  <line x1="4" y1="24" x2="172" y2="24" stroke="#8B5E2B" stroke-width="1" opacity="0.5"/>
  <line x1="4" y1="34" x2="172" y2="34" stroke="#8B5E2B" stroke-width="1" opacity="0.5"/>
  <line x1="4" y1="44" x2="172" y2="44" stroke="#8B5E2B" stroke-width="1" opacity="0.5"/>
  <!-- Backrest (visible from top) -->
  <rect x="2" y="2" width="172" height="14" rx="2" fill="#8B5E2B" stroke="#6B4226" stroke-width="1.5"/>
  <!-- Backrest slats -->
  <line x1="30" y1="4" x2="30" y2="14" stroke="#6B4226" stroke-width="0.8" opacity="0.5"/>
  <line x1="60" y1="4" x2="60" y2="14" stroke="#6B4226" stroke-width="0.8" opacity="0.5"/>
  <line x1="90" y1="4" x2="90" y2="14" stroke="#6B4226" stroke-width="0.8" opacity="0.5"/>
  <line x1="120" y1="4" x2="120" y2="14" stroke="#6B4226" stroke-width="0.8" opacity="0.5"/>
  <line x1="150" y1="4" x2="150" y2="14" stroke="#6B4226" stroke-width="0.8" opacity="0.5"/>
  <!-- Metal legs (armrest supports) -->
  <rect x="8" y="10" width="6" height="44" rx="1" fill="#5A5A5A" stroke="#3A3A3A" stroke-width="0.8"/>
  <rect x="162" y="10" width="6" height="44" rx="1" fill="#5A5A5A" stroke="#3A3A3A" stroke-width="0.8"/>
  <!-- Armrests -->
  <rect x="6" y="10" width="10" height="6" rx="1" fill="#6B4226" stroke="#4A2E18" stroke-width="0.8"/>
  <rect x="160" y="10" width="10" height="6" rx="1" fill="#6B4226" stroke="#4A2E18" stroke-width="0.8"/>
</svg>