<svg xmlns="http://www.w3.org/2000/svg" viewBox="0 0 100 100">
  <!-- Aster with many narrow petals - top-down view -->
  <defs>
    <radialGradient id="aster_base" cx="50%" cy="50%" r="55%">
      <stop offset="0%" stop-color="#488c28"/>
      <stop offset="70%" stop-color="#3a7820"/>
      <stop offset="100%" stop-color="#2c6418"/>
    </radialGradient>
  </defs>
  <path d="M74 46 C76 49 67 57 69 65 C64 70 56 77 50 79 C44 72 33 70 23 68 C22 61 24 54 20 47 C25 38 22 34 27 30 C35 28 42 24 46 17 C52 20 60 23 71 30 C73 33 71 43 74 46 Z" fill="url(#aster_base)" opacity="0.8"/>
  <ellipse cx="67" cy="52" rx="8" ry="6" fill="#58942e" opacity="0.47"/>
  <ellipse cx="53" cy="60" rx="14" ry="10" fill="#508c28" opacity="0.49"/>
  <ellipse cx="42" cy="56" rx="10" ry="10" fill="#58942e" opacity="0.42"/>
  <ellipse cx="39" cy="44" rx="8" ry="7" fill="#508c28" opacity="0.52"/>
  <ellipse cx="49" cy="38" rx="14" ry="11" fill="#58942e" opacity="0.55"/>
  <ellipse cx="66" cy="50" rx="3" ry="12" fill="#9868c8" opacity="0.75" transform="rotate(0 66 50)"/>
  <ellipse cx="64" cy="58" rx="3" ry="12" fill="#a878d0" opacity="0.73" transform="rotate(30 64 58)"/>
  <ellipse cx="58" cy="64" rx="3" ry="12" fill="#9868c8" opacity="0.71" transform="rotate(60 58 64)"/>
  <ellipse cx="50" cy="66" rx="3" ry="12" fill="#a878d0" opacity="0.69" transform="rotate(90 50 66)"/>
  <ellipse cx="42" cy="64" rx="3" ry="12" fill="#9868c8" opacity="0.67" transform="rotate(120 42 64)"/>
  <ellipse cx="36" cy="58" rx="3" ry="12" fill="#a878d0" opacity="0.65" transform="rotate(150 36 58)"/>
  <ellipse cx="34" cy="50" rx="3" ry="12" fill="#9868c8" opacity="0.63" transform="rotate(180 34 50)"/>
  <ellipse cx="36" cy="42" rx="3" ry="12" fill="#a878d0" opacity="0.61" transform="rotate(210 36 42)"/>
  <ellipse cx="42" cy="36" rx="3" ry="12" fill="#9868c8" opacity="0.59" transform="rotate(240 42 36)"/>
  <ellipse cx="50" cy="34" rx="3" ry="12" fill="#a878d0" opacity="0.57" transform="rotate(270 50 34)"/>
  <ellipse cx="58" cy="36" rx="3" ry="12" fill="#9868c8" opacity="0.55" transform="rotate(300 58 36)"/>
  <ellipse cx="64" cy="42" rx="3" ry="12" fill="#a878d0" opacity="0.53" transform="rotate(330 64 42)"/>
  <circle cx="50" cy="50" r="5" fill="#e8c830" opacity="0.9"/>
  <line x1="58" y1="62" x2="72" y2="51" stroke="#2c6418" stroke-width="0.8" opacity="0.3"/>
  <line x1="57" y1="47" x2="59" y2="45" stroke="#2c6418" stroke-width="0.8" opacity="0.3"/>
</svg>
