<svg xmlns="http://www.w3.org/2000/svg" viewBox="0 0 100 100">
  <!-- Barberry with dark red-purple foliage - top-down view -->
  <defs>
    <radialGradient id="barberry_base" cx="50%" cy="50%" r="55%">
      <stop offset="0%" stop-color="#6a2828"/>
      <stop offset="70%" stop-color="#5a2020"/>
      <stop offset="100%" stop-color="#4a1818"/>
    </radialGradient>
  </defs>
  <path d="M83 45 C83 52 78 56 71 65 C66 67 59 73 46 72 C42 74 40 73 31 70 C32 64 27 56 29 49 C28 44 35 40 33 34 C37 28 44 29 53 25 C58 24 69 29 72 31 C74 36 82 38 83 45 Z" fill="url(#barberry_base)" opacity="0.8"/>
  <ellipse cx="61" cy="52" rx="9" ry="7" fill="#7a3838" opacity="0.48"/>
  <ellipse cx="52" cy="62" rx="11" ry="7" fill="#6a2828" opacity="0.52"/>
  <ellipse cx="49" cy="59" rx="13" ry="6" fill="#7a3838" opacity="0.49"/>
  <ellipse cx="41" cy="48" rx="13" ry="6" fill="#6a2828" opacity="0.46"/>
  <ellipse cx="39" cy="37" rx="11" ry="8" fill="#7a3838" opacity="0.42"/>
  <ellipse cx="52" cy="37" rx="12" ry="7" fill="#6a2828" opacity="0.46"/>
  <circle cx="42" cy="42" r="2" fill="#d82020" opacity="0.8"/>
  <circle cx="56" cy="48" r="2" fill="#d82020" opacity="0.8"/>
  <circle cx="48" cy="56" r="2" fill="#d82020" opacity="0.8"/>
  <line x1="52" y1="38" x2="57" y2="24" stroke="#4a1818" stroke-width="0.8" opacity="0.3"/>
  <line x1="60" y1="41" x2="54" y2="46" stroke="#4a1818" stroke-width="0.8" opacity="0.3"/>
</svg>
