<svg xmlns="http://www.w3.org/2000/svg" viewBox="0 0 100 100">
  <!-- Beetroot with dark red-green foliage - top-down view -->
  <defs>
    <radialGradient id="beet_base" cx="50%" cy="50%" r="55%">
      <stop offset="0%" stop-color="#4a7830"/>
      <stop offset="70%" stop-color="#3c6428"/>
      <stop offset="100%" stop-color="#2e5020"/>
    </radialGradient>
  </defs>
  <path d="M86 44 C79 50 68 63 64 70 C58 74 59 80 52 85 C45 76 38 71 26 67 C26 59 20 57 16 51 C17 46 22 42 29 33 C34 31 43 29 51 22 C59 22 66 26 74 28 C80 37 82 42 86 44 Z" fill="url(#beet_base)" opacity="0.8"/>
  <ellipse cx="62" cy="50" rx="11" ry="6" fill="#5a3838" opacity="0.58"/>
  <ellipse cx="53" cy="59" rx="12" ry="11" fill="#4a7030" opacity="0.44"/>
  <ellipse cx="44" cy="56" rx="9" ry="7" fill="#5a3838" opacity="0.48"/>
  <ellipse cx="37" cy="39" rx="11" ry="11" fill="#4a7030" opacity="0.46"/>
  <ellipse cx="52" cy="36" rx="11" ry="11" fill="#5a3838" opacity="0.45"/>
  <circle cx="50" cy="50" r="6" fill="#881838" opacity="0.5"/>
  <line x1="58" y1="51" x2="53" y2="40" stroke="#2e5020" stroke-width="0.8" opacity="0.3"/>
  <line x1="60" y1="36" x2="66" y2="17" stroke="#2e5020" stroke-width="0.8" opacity="0.3"/>
</svg>
