<svg xmlns="http://www.w3.org/2000/svg" viewBox="0 0 100 100">
  <!-- Blackberry with dark fruits - top-down view -->
  <defs>
    <radialGradient id="blackberry_base" cx="50%" cy="50%" r="55%">
      <stop offset="0%" stop-color="#3a7028"/>
      <stop offset="70%" stop-color="#2c5c20"/>
      <stop offset="100%" stop-color="#205018"/>
    </radialGradient>
  </defs>
  <path d="M87 46 C83 50 69 58 65 70 C58 73 52 78 48 79 C39 80 34 73 30 69 C26 69 22 63 22 55 C21 42 25 31 30 21 C38 24 42 23 52 23 C61 28 65 26 70 32 C79 35 85 38 87 46 Z" fill="url(#blackberry_base)" opacity="0.8"/>
  <ellipse cx="60" cy="50" rx="9" ry="8" fill="#58942e" opacity="0.44"/>
  <ellipse cx="59" cy="61" rx="12" ry="10" fill="#508c28" opacity="0.5"/>
  <ellipse cx="40" cy="54" rx="8" ry="11" fill="#58942e" opacity="0.5"/>
  <ellipse cx="39" cy="41" rx="10" ry="9" fill="#508c28" opacity="0.47"/>
  <ellipse cx="49" cy="38" rx="14" ry="10" fill="#58942e" opacity="0.45"/>
  <circle cx="40" cy="36" r="3.5" fill="#282028" opacity="0.8"/>
  <circle cx="39" cy="35" r="1.4" fill="#383038" opacity="0.45"/>
  <circle cx="58" cy="42" r="3.5" fill="#282028" opacity="0.8"/>
  <circle cx="57" cy="41" r="1.4" fill="#383038" opacity="0.45"/>
  <circle cx="46" cy="56" r="3.5" fill="#282028" opacity="0.8"/>
  <circle cx="45" cy="55" r="1.4" fill="#383038" opacity="0.45"/>
  <circle cx="62" cy="56" r="3.5" fill="#282028" opacity="0.8"/>
  <circle cx="61" cy="55" r="1.4" fill="#383038" opacity="0.45"/>
  <circle cx="34" cy="50" r="3.5" fill="#282028" opacity="0.8"/>
  <circle cx="33" cy="49" r="1.4" fill="#383038" opacity="0.45"/>
  <line x1="38" y1="49" x2="47" y2="61" stroke="#205018" stroke-width="0.8" opacity="0.3"/>
  <line x1="54" y1="61" x2="69" y2="41" stroke="#205018" stroke-width="0.8" opacity="0.3"/>
</svg>
