<svg xmlns="http://www.w3.org/2000/svg" viewBox="0 0 100 100">
  <!-- Blueberry bush with small blue fruits - top-down view -->
  <defs>
    <radialGradient id="blueberry_base" cx="50%" cy="50%" r="55%">
      <stop offset="0%" stop-color="#3a7828"/>
      <stop offset="70%" stop-color="#2c6420"/>
      <stop offset="100%" stop-color="#205018"/>
    </radialGradient>
  </defs>
  <path d="M82 51 C78 58 75 72 69 77 C63 80 62 82 55 83 C44 78 38 73 28 72 C23 67 21 59 23 50 C25 40 26 36 29 23 C38 21 46 17 56 16 C61 21 65 24 73 25 C74 35 77 46 82 51 Z" fill="url(#blueberry_base)" opacity="0.8"/>
  <ellipse cx="61" cy="45" rx="10" ry="8" fill="#58942e" opacity="0.56"/>
  <ellipse cx="58" cy="57" rx="10" ry="10" fill="#508c28" opacity="0.42"/>
  <ellipse cx="46" cy="58" rx="10" ry="7" fill="#58942e" opacity="0.43"/>
  <ellipse cx="38" cy="50" rx="11" ry="9" fill="#508c28" opacity="0.4"/>
  <ellipse cx="46" cy="42" rx="12" ry="11" fill="#58942e" opacity="0.55"/>
  <ellipse cx="52" cy="42" rx="14" ry="7" fill="#508c28" opacity="0.41"/>
  <circle cx="38" cy="38" r="3" fill="#384880" opacity="0.8"/>
  <circle cx="37" cy="37" r="1.2" fill="#485898" opacity="0.45"/>
  <circle cx="55" cy="36" r="3" fill="#384880" opacity="0.8"/>
  <circle cx="54" cy="35" r="1.2" fill="#485898" opacity="0.45"/>
  <circle cx="62" cy="48" r="3" fill="#384880" opacity="0.8"/>
  <circle cx="61" cy="47" r="1.2" fill="#485898" opacity="0.45"/>
  <circle cx="42" cy="56" r="3" fill="#384880" opacity="0.8"/>
  <circle cx="41" cy="55" r="1.2" fill="#485898" opacity="0.45"/>
  <circle cx="56" cy="58" r="3" fill="#384880" opacity="0.8"/>
  <circle cx="55" cy="57" r="1.2" fill="#485898" opacity="0.45"/>
  <circle cx="48" cy="44" r="3" fill="#384880" opacity="0.8"/>
  <circle cx="47" cy="43" r="1.2" fill="#485898" opacity="0.45"/>
  <line x1="48" y1="48" x2="41" y2="59" stroke="#205018" stroke-width="0.8" opacity="0.3"/>
  <line x1="35" y1="53" x2="40" y2="33" stroke="#205018" stroke-width="0.8" opacity="0.3"/>
</svg>
