<svg xmlns="http://www.w3.org/2000/svg" viewBox="0 0 100 100">
  <!-- Borage with star-shaped blue flowers - top-down view -->
  <defs>
    <radialGradient id="borage_base" cx="50%" cy="50%" r="55%">
      <stop offset="0%" stop-color="#4a8028"/>
      <stop offset="70%" stop-color="#3c7020"/>
      <stop offset="100%" stop-color="#2e6018"/>
    </radialGradient>
  </defs>
  <path d="M79 51 C77 61 76 68 71 76 C62 78 51 83 45 81 C34 77 32 77 21 71 C24 63 24 54 27 50 C24 40 23 35 26 23 C33 20 41 19 54 17 C54 21 61 29 66 30 C72 34 77 46 79 51 Z" fill="url(#borage_base)" opacity="0.8"/>
  <ellipse cx="64" cy="47" rx="14" ry="9" fill="#58942e" opacity="0.53"/>
  <ellipse cx="53" cy="61" rx="11" ry="6" fill="#508c28" opacity="0.43"/>
  <ellipse cx="41" cy="65" rx="14" ry="10" fill="#58942e" opacity="0.41"/>
  <ellipse cx="36" cy="42" rx="11" ry="10" fill="#508c28" opacity="0.59"/>
  <ellipse cx="50" cy="39" rx="8" ry="8" fill="#58942e" opacity="0.53"/>
  <circle cx="40" cy="35" r="3.5" fill="#5878d0" opacity="0.8"/>
  <circle cx="39" cy="34" r="1.4" fill="#8098e0" opacity="0.45"/>
  <circle cx="60" cy="38" r="3.5" fill="#5878d0" opacity="0.8"/>
  <circle cx="59" cy="37" r="1.4" fill="#8098e0" opacity="0.45"/>
  <circle cx="45" cy="55" r="3.5" fill="#5878d0" opacity="0.8"/>
  <circle cx="44" cy="54" r="1.4" fill="#8098e0" opacity="0.45"/>
  <circle cx="58" cy="58" r="3.5" fill="#5878d0" opacity="0.8"/>
  <circle cx="57" cy="57" r="1.4" fill="#8098e0" opacity="0.45"/>
  <circle cx="50" cy="42" r="3.5" fill="#5878d0" opacity="0.8"/>
  <circle cx="49" cy="41" r="1.4" fill="#8098e0" opacity="0.45"/>
  <line x1="38" y1="62" x2="23" y2="74" stroke="#2e6018" stroke-width="0.8" opacity="0.3"/>
  <line x1="62" y1="39" x2="70" y2="19" stroke="#2e6018" stroke-width="0.8" opacity="0.3"/>
</svg>
