<svg xmlns="http://www.w3.org/2000/svg" viewBox="0 0 100 100">
<!-- borage — generated by scripts/generate_plant_sprites.py (do not hand-edit) -->
<defs><radialGradient id="b6_shadow" cx="50%" cy="50%" r="50%"><stop offset="0%" stop-color="#12300d" stop-opacity="0.28"/><stop offset="62%" stop-color="#12300d" stop-opacity="0.25"/><stop offset="100%" stop-color="#12300d" stop-opacity="0"/></radialGradient><linearGradient id="b6_r0" x1="0" y1="0" x2="0" y2="1"><stop offset="0%" stop-color="#93b287"/><stop offset="48%" stop-color="#6f8d65"/><stop offset="100%" stop-color="#42603c"/></linearGradient><linearGradient id="b6_r1" x1="0" y1="0" x2="0" y2="1"><stop offset="0%" stop-color="#9dba92"/><stop offset="48%" stop-color="#77956e"/><stop offset="100%" stop-color="#496843"/></linearGradient><linearGradient id="b6_r2" x1="0" y1="0" x2="0" y2="1"><stop offset="0%" stop-color="#a8c29c"/><stop offset="48%" stop-color="#809d77"/><stop offset="100%" stop-color="#50704a"/></linearGradient><linearGradient id="b6_r3" x1="0" y1="0" x2="0" y2="1"><stop offset="0%" stop-color="#b2caa7"/><stop offset="48%" stop-color="#8aa580"/><stop offset="100%" stop-color="#587750"/></linearGradient><linearGradient id="b6_r4" x1="0" y1="0" x2="0" y2="1"><stop offset="0%" stop-color="#bdd2b1"/><stop offset="48%" stop-color="#93ad88"/><stop offset="100%" stop-color="#5f7f57"/></linearGradient><linearGradient id="b6_r5" x1="0" y1="0" x2="0" y2="1"><stop offset="0%" stop-color="#c7dabc"/><stop offset="48%" stop-color="#9bb592"/><stop offset="100%" stop-color="#66875e"/></linearGradient></defs>
<circle cx="50" cy="50" r="41.0" fill="url(#b6_shadow)"/>
<circle cx="72.0" cy="50.0" r="13.3" fill="#42603c"/><circle cx="66.9" cy="64.2" r="13.3" fill="#42603c"/><circle cx="53.8" cy="71.7" r="13.3" fill="#42603c"/><circle cx="39.0" cy="69.1" r="13.3" fill="#42603c"/><circle cx="29.3" cy="57.5" r="13.3" fill="#42603c"/><circle cx="29.3" cy="42.5" r="13.3" fill="#42603c"/><circle cx="39.0" cy="30.9" r="13.3" fill="#42603c"/><circle cx="53.8" cy="28.3" r="13.3" fill="#42603c"/><circle cx="66.9" cy="35.8" r="13.3" fill="#42603c"/><circle cx="50" cy="50" r="24.0" fill="#54744d"/>
<g transform="rotate(346.3 50 50)"><path d="M 50.0 11.9 C 57.4 15.2, 56.6 22.7, 50.0 26.9 C 43.4 22.7, 42.6 15.2, 50.0 11.9 Z" fill="#26381f" opacity="0.9"/><path d="M 50.0 13.3 C 55.7 16.1, 55.1 22.5, 50.0 26.1 C 44.9 22.5, 44.3 16.1, 50.0 13.3 Z" fill="url(#b6_r0)"/><path d="M 48.2 14.6 C 51.1 16.0, 50.8 19.4, 48.2 21.2 C 45.7 19.4, 45.4 16.0, 48.2 14.6 Z" fill="#c7e0be" opacity="0.5"/><line x1="50" y1="25.1" x2="50" y2="15.6" stroke="#3f5b39" stroke-width="0.55" opacity="0.5"/></g>
<g transform="rotate(366.5 50 50)"><path d="M 50.0 11.8 C 56.5 15.0, 55.8 22.3, 50.0 26.4 C 44.2 22.3, 43.5 15.0, 50.0 11.8 Z" fill="#26381f" opacity="0.9"/><path d="M 50.0 13.2 C 55.0 15.9, 54.5 22.1, 50.0 25.6 C 45.5 22.1, 45.0 15.9, 50.0 13.2 Z" fill="url(#b6_r0)"/><path d="M 48.4 14.4 C 51.0 15.8, 50.7 19.1, 48.4 20.9 C 46.2 19.1, 45.9 15.8, 48.4 14.4 Z" fill="#c7e0be" opacity="0.5"/><line x1="50" y1="24.6" x2="50" y2="15.4" stroke="#3f5b39" stroke-width="0.55" opacity="0.5"/></g>
<g transform="rotate(391.3 50 50)"><path d="M 50.0 13.0 C 57.1 16.1, 56.4 23.2, 50.0 27.1 C 43.6 23.2, 42.9 16.1, 50.0 13.0 Z" fill="#26381f" opacity="0.9"/><path d="M 50.0 14.4 C 55.5 17.0, 54.9 23.0, 50.0 26.3 C 45.1 23.0, 44.5 17.0, 50.0 14.4 Z" fill="url(#b6_r0)"/><path d="M 48.3 15.6 C 51.0 16.9, 50.8 20.0, 48.3 21.8 C 45.8 20.0, 45.6 16.9, 48.3 15.6 Z" fill="#c7e0be" opacity="0.5"/><line x1="50" y1="25.4" x2="50" y2="16.5" stroke="#3f5b39" stroke-width="0.55" opacity="0.5"/></g>
<g transform="rotate(411.8 50 50)"><path d="M 50.0 10.7 C 56.6 14.3, 55.9 22.4, 50.0 27.0 C 44.1 22.4, 43.4 14.3, 50.0 10.7 Z" fill="#26381f" opacity="0.9"/><path d="M 50.0 12.1 C 55.0 15.2, 54.5 22.2, 50.0 26.2 C 45.5 22.2, 45.0 15.2, 50.0 12.1 Z" fill="url(#b6_r0)"/><path d="M 48.4 13.5 C 51.0 15.1, 50.7 18.8, 48.4 20.8 C 46.2 18.8, 45.9 15.1, 48.4 13.5 Z" fill="#c7e0be" opacity="0.5"/><line x1="50" y1="25.0" x2="50" y2="14.6" stroke="#3f5b39" stroke-width="0.55" opacity="0.5"/></g>
<g transform="rotate(435.9 50 50)"><path d="M 50.0 10.2 C 57.0 13.6, 56.2 21.4, 50.0 25.8 C 43.8 21.4, 43.0 13.6, 50.0 10.2 Z" fill="#26381f" opacity="0.9"/><path d="M 50.0 11.6 C 55.4 14.6, 54.8 21.2, 50.0 25.0 C 45.2 21.2, 44.6 14.6, 50.0 11.6 Z" fill="url(#b6_r0)"/><path d="M 48.3 13.0 C 51.0 14.5, 50.7 17.9, 48.3 19.9 C 45.9 17.9, 45.7 14.5, 48.3 13.0 Z" fill="#c7e0be" opacity="0.5"/><line x1="50" y1="23.9" x2="50" y2="14.0" stroke="#3f5b39" stroke-width="0.55" opacity="0.5"/></g>
<g transform="rotate(458.6 50 50)"><path d="M 50.0 11.9 C 56.5 15.3, 55.9 23.0, 50.0 27.4 C 44.1 23.0, 43.5 15.3, 50.0 11.9 Z" fill="#26381f" opacity="0.9"/><path d="M 50.0 13.3 C 55.0 16.2, 54.5 22.8, 50.0 26.6 C 45.5 22.8, 45.0 16.2, 50.0 13.3 Z" fill="url(#b6_r0)"/><path d="M 48.4 14.6 C 51.0 16.1, 50.7 19.6, 48.4 21.5 C 46.2 19.6, 45.9 16.1, 48.4 14.6 Z" fill="#c7e0be" opacity="0.5"/><line x1="50" y1="25.5" x2="50" y2="15.7" stroke="#3f5b39" stroke-width="0.55" opacity="0.5"/></g>
<g transform="rotate(478.9 50 50)"><path d="M 50.0 12.2 C 56.9 15.5, 56.2 22.9, 50.0 27.1 C 43.8 22.9, 43.1 15.5, 50.0 12.2 Z" fill="#26381f" opacity="0.9"/><path d="M 50.0 13.6 C 55.3 16.4, 54.8 22.8, 50.0 26.3 C 45.2 22.8, 44.7 16.4, 50.0 13.6 Z" fill="url(#b6_r0)"/><path d="M 48.3 14.9 C 51.0 16.4, 50.7 19.7, 48.3 21.5 C 46.0 19.7, 45.7 16.4, 48.3 14.9 Z" fill="#c7e0be" opacity="0.5"/><line x1="50" y1="25.3" x2="50" y2="15.9" stroke="#3f5b39" stroke-width="0.55" opacity="0.5"/></g>
<g transform="rotate(502.4 50 50)"><path d="M 50.0 12.6 C 56.6 15.7, 55.9 22.7, 50.0 26.6 C 44.1 22.7, 43.4 15.7, 50.0 12.6 Z" fill="#26381f" opacity="0.9"/><path d="M 50.0 14.0 C 55.1 16.6, 54.5 22.5, 50.0 25.8 C 45.5 22.5, 44.9 16.6, 50.0 14.0 Z" fill="url(#b6_r0)"/><path d="M 48.4 15.2 C 51.0 16.6, 50.7 19.6, 48.4 21.3 C 46.2 19.6, 45.9 16.6, 48.4 15.2 Z" fill="#c7e0be" opacity="0.5"/><line x1="50" y1="24.9" x2="50" y2="16.2" stroke="#3f5b39" stroke-width="0.55" opacity="0.5"/></g>
<g transform="rotate(525.6 50 50)"><path d="M 50.0 10.2 C 57.1 13.8, 56.3 21.9, 50.0 26.5 C 43.7 21.9, 42.9 13.8, 50.0 10.2 Z" fill="#26381f" opacity="0.9"/><path d="M 50.0 11.6 C 55.4 14.7, 54.9 21.8, 50.0 25.7 C 45.1 21.8, 44.6 14.7, 50.0 11.6 Z" fill="url(#b6_r0)"/><path d="M 48.3 13.0 C 51.0 14.7, 50.8 18.3, 48.3 20.4 C 45.9 18.3, 45.6 14.7, 48.3 13.0 Z" fill="#c7e0be" opacity="0.5"/><line x1="50" y1="24.6" x2="50" y2="14.2" stroke="#3f5b39" stroke-width="0.55" opacity="0.5"/></g>
<g transform="rotate(546.9 50 50)"><path d="M 50.0 9.7 C 56.7 13.3, 56.0 21.5, 50.0 26.1 C 44.0 21.5, 43.3 13.3, 50.0 9.7 Z" fill="#26381f" opacity="0.9"/><path d="M 50.0 11.1 C 55.1 14.2, 54.6 21.4, 50.0 25.3 C 45.4 21.4, 44.9 14.2, 50.0 11.1 Z" fill="url(#b6_r0)"/><path d="M 48.4 12.5 C 51.0 14.2, 50.7 17.9, 48.4 19.9 C 46.1 17.9, 45.8 14.2, 48.4 12.5 Z" fill="#c7e0be" opacity="0.5"/><line x1="50" y1="24.2" x2="50" y2="13.7" stroke="#3f5b39" stroke-width="0.55" opacity="0.5"/></g>
<g transform="rotate(568.8 50 50)"><path d="M 50.0 13.4 C 57.2 16.5, 56.4 23.5, 50.0 27.5 C 43.6 23.5, 42.8 16.5, 50.0 13.4 Z" fill="#26381f" opacity="0.9"/><path d="M 50.0 14.8 C 55.5 17.4, 54.9 23.4, 50.0 26.7 C 45.1 23.4, 44.5 17.4, 50.0 14.8 Z" fill="url(#b6_r0)"/><path d="M 48.3 15.9 C 51.0 17.3, 50.8 20.4, 48.3 22.2 C 45.8 20.4, 45.5 17.3, 48.3 15.9 Z" fill="#c7e0be" opacity="0.5"/><line x1="50" y1="25.7" x2="50" y2="16.9" stroke="#3f5b39" stroke-width="0.55" opacity="0.5"/></g>
<g transform="rotate(593.0 50 50)"><path d="M 50.0 12.1 C 57.1 15.3, 56.4 22.4, 50.0 26.3 C 43.6 22.4, 42.9 15.3, 50.0 12.1 Z" fill="#26381f" opacity="0.9"/><path d="M 50.0 13.5 C 55.5 16.2, 54.9 22.2, 50.0 25.5 C 45.1 22.2, 44.5 16.2, 50.0 13.5 Z" fill="url(#b6_r0)"/><path d="M 48.3 14.7 C 51.0 16.1, 50.8 19.2, 48.3 21.0 C 45.8 19.2, 45.6 16.1, 48.3 14.7 Z" fill="#c7e0be" opacity="0.5"/><line x1="50" y1="24.6" x2="50" y2="15.7" stroke="#3f5b39" stroke-width="0.55" opacity="0.5"/></g>
<g transform="rotate(614.3 50 50)"><path d="M 50.0 11.8 C 57.0 15.1, 56.3 22.5, 50.0 26.7 C 43.7 22.5, 43.0 15.1, 50.0 11.8 Z" fill="#26381f" opacity="0.9"/><path d="M 50.0 13.2 C 55.4 16.0, 54.8 22.4, 50.0 25.9 C 45.2 22.4, 44.6 16.0, 50.0 13.2 Z" fill="url(#b6_r0)"/><path d="M 48.3 14.5 C 51.0 15.9, 50.7 19.2, 48.3 21.1 C 45.9 19.2, 45.6 15.9, 48.3 14.5 Z" fill="#c7e0be" opacity="0.5"/><line x1="50" y1="24.9" x2="50" y2="15.5" stroke="#3f5b39" stroke-width="0.55" opacity="0.5"/></g>
<g transform="rotate(636.8 50 50)"><path d="M 50.0 12.1 C 57.4 15.5, 56.6 23.2, 50.0 27.6 C 43.4 23.2, 42.6 15.5, 50.0 12.1 Z" fill="#26381f" opacity="0.9"/><path d="M 50.0 13.5 C 55.7 16.4, 55.1 23.1, 50.0 26.8 C 44.9 23.1, 44.3 16.4, 50.0 13.5 Z" fill="url(#b6_r0)"/><path d="M 48.2 14.8 C 51.1 16.3, 50.8 19.8, 48.2 21.7 C 45.7 19.8, 45.4 16.3, 48.2 14.8 Z" fill="#c7e0be" opacity="0.5"/><line x1="50" y1="25.7" x2="50" y2="15.9" stroke="#3f5b39" stroke-width="0.55" opacity="0.5"/></g>
<g transform="rotate(663.1 50 50)"><path d="M 50.0 13.7 C 56.5 16.8, 55.8 23.8, 50.0 27.7 C 44.2 23.8, 43.5 16.8, 50.0 13.7 Z" fill="#26381f" opacity="0.9"/><path d="M 50.0 15.1 C 55.0 17.7, 54.5 23.6, 50.0 26.9 C 45.5 23.6, 45.0 17.7, 50.0 15.1 Z" fill="url(#b6_r0)"/><path d="M 48.4 16.3 C 51.0 17.6, 50.7 20.7, 48.4 22.4 C 46.2 20.7, 45.9 17.6, 48.4 16.3 Z" fill="#c7e0be" opacity="0.5"/><line x1="50" y1="25.9" x2="50" y2="17.2" stroke="#3f5b39" stroke-width="0.55" opacity="0.5"/></g>
<g transform="rotate(685.9 50 50)"><path d="M 50.0 11.7 C 57.4 15.0, 56.6 22.4, 50.0 26.6 C 43.4 22.4, 42.6 15.0, 50.0 11.7 Z" fill="#26381f" opacity="0.9"/><path d="M 50.0 13.1 C 55.7 15.9, 55.1 22.3, 50.0 25.8 C 44.9 22.3, 44.3 15.9, 50.0 13.1 Z" fill="url(#b6_r0)"/><path d="M 48.2 14.4 C 51.1 15.8, 50.8 19.1, 48.2 21.0 C 45.7 19.1, 45.4 15.8, 48.2 14.4 Z" fill="#c7e0be" opacity="0.5"/><line x1="50" y1="24.8" x2="50" y2="15.4" stroke="#3f5b39" stroke-width="0.55" opacity="0.5"/></g>
<g transform="rotate(117.6 50 50)"><path d="M 50.0 18.3 C 55.9 21.5, 55.3 28.7, 50.0 32.8 C 44.7 28.7, 44.1 21.5, 50.0 18.3 Z" fill="#26381f" opacity="0.9"/><path d="M 50.0 19.7 C 54.6 22.4, 54.1 28.6, 50.0 32.0 C 45.9 28.6, 45.4 22.4, 50.0 19.7 Z" fill="url(#b6_r1)"/><path d="M 48.6 20.9 C 50.9 22.3, 50.6 25.5, 48.6 27.3 C 46.5 25.5, 46.3 22.3, 48.6 20.9 Z" fill="#d3e8cb" opacity="0.5"/><line x1="50" y1="31.0" x2="50" y2="21.9" stroke="#3f5b39" stroke-width="0.55" opacity="0.5"/></g>
<g transform="rotate(146.3 50 50)"><path d="M 50.0 19.3 C 56.5 22.4, 55.8 29.5, 50.0 33.5 C 44.2 29.5, 43.5 22.4, 50.0 19.3 Z" fill="#26381f" opacity="0.9"/><path d="M 50.0 20.7 C 55.0 23.3, 54.5 29.3, 50.0 32.7 C 45.5 29.3, 45.0 23.3, 50.0 20.7 Z" fill="url(#b6_r1)"/><path d="M 48.4 21.9 C 51.0 23.2, 50.7 26.4, 48.4 28.1 C 46.2 26.4, 45.9 23.2, 48.4 21.9 Z" fill="#d3e8cb" opacity="0.5"/><line x1="50" y1="31.7" x2="50" y2="22.8" stroke="#3f5b39" stroke-width="0.55" opacity="0.5"/></g>
<g transform="rotate(175.5 50 50)"><path d="M 50.0 21.1 C 56.4 23.9, 55.8 30.1, 50.0 33.6 C 44.2 30.1, 43.6 23.9, 50.0 21.1 Z" fill="#26381f" opacity="0.9"/><path d="M 50.0 22.5 C 54.9 24.8, 54.4 29.9, 50.0 32.8 C 45.6 29.9, 45.1 24.8, 50.0 22.5 Z" fill="url(#b6_r1)"/><path d="M 48.5 23.6 C 50.9 24.7, 50.7 27.4, 48.5 28.9 C 46.2 27.4, 46.0 24.7, 48.5 23.6 Z" fill="#d3e8cb" opacity="0.5"/><line x1="50" y1="32.0" x2="50" y2="24.4" stroke="#3f5b39" stroke-width="0.55" opacity="0.5"/></g>
<g transform="rotate(202.1 50 50)"><path d="M 50.0 20.1 C 55.8 23.1, 55.2 30.1, 50.0 34.0 C 44.8 30.1, 44.2 23.1, 50.0 20.1 Z" fill="#26381f" opacity="0.9"/><path d="M 50.0 21.5 C 54.4 24.0, 54.0 29.9, 50.0 33.2 C 46.0 29.9, 45.6 24.0, 50.0 21.5 Z" fill="url(#b6_r1)"/><path d="M 48.6 22.6 C 50.8 24.0, 50.6 27.0, 48.6 28.7 C 46.6 27.0, 46.4 24.0, 48.6 22.6 Z" fill="#d3e8cb" opacity="0.5"/><line x1="50" y1="32.3" x2="50" y2="23.6" stroke="#3f5b39" stroke-width="0.55" opacity="0.5"/></g>
<g transform="rotate(237.2 50 50)"><path d="M 50.0 21.9 C 56.4 24.6, 55.7 30.7, 50.0 34.2 C 44.3 30.7, 43.6 24.6, 50.0 21.9 Z" fill="#26381f" opacity="0.9"/><path d="M 50.0 23.3 C 54.9 25.5, 54.4 30.6, 50.0 33.4 C 45.6 30.6, 45.1 25.5, 50.0 23.3 Z" fill="url(#b6_r1)"/><path d="M 48.5 24.3 C 50.9 25.4, 50.7 28.1, 48.5 29.5 C 46.3 28.1, 46.0 25.4, 48.5 24.3 Z" fill="#d3e8cb" opacity="0.5"/><line x1="50" y1="32.6" x2="50" y2="25.1" stroke="#3f5b39" stroke-width="0.55" opacity="0.5"/></g>
<g transform="rotate(266.3 50 50)"><path d="M 50.0 20.0 C 56.6 22.9, 56.0 29.4, 50.0 33.1 C 44.0 29.4, 43.4 22.9, 50.0 20.0 Z" fill="#26381f" opacity="0.9"/><path d="M 50.0 21.4 C 55.1 23.8, 54.6 29.3, 50.0 32.3 C 45.4 29.3, 44.9 23.8, 50.0 21.4 Z" fill="url(#b6_r1)"/><path d="M 48.4 22.5 C 51.0 23.7, 50.7 26.6, 48.4 28.2 C 46.1 26.6, 45.9 23.7, 48.4 22.5 Z" fill="#d3e8cb" opacity="0.5"/><line x1="50" y1="31.4" x2="50" y2="23.4" stroke="#3f5b39" stroke-width="0.55" opacity="0.5"/></g>
<g transform="rotate(297.7 50 50)"><path d="M 50.0 18.8 C 56.3 21.9, 55.6 28.7, 50.0 32.6 C 44.4 28.7, 43.7 21.9, 50.0 18.8 Z" fill="#26381f" opacity="0.9"/><path d="M 50.0 20.2 C 54.8 22.8, 54.3 28.6, 50.0 31.8 C 45.7 28.6, 45.2 22.8, 50.0 20.2 Z" fill="url(#b6_r1)"/><path d="M 48.5 21.4 C 50.9 22.7, 50.7 25.7, 48.5 27.4 C 46.3 25.7, 46.1 22.7, 48.5 21.4 Z" fill="#d3e8cb" opacity="0.5"/><line x1="50" y1="30.9" x2="50" y2="22.3" stroke="#3f5b39" stroke-width="0.55" opacity="0.5"/></g>
<g transform="rotate(326.7 50 50)"><path d="M 50.0 18.5 C 56.3 21.7, 55.6 28.7, 50.0 32.7 C 44.4 28.7, 43.7 21.7, 50.0 18.5 Z" fill="#26381f" opacity="0.9"/><path d="M 50.0 19.9 C 54.8 22.6, 54.3 28.5, 50.0 31.9 C 45.7 28.5, 45.2 22.6, 50.0 19.9 Z" fill="url(#b6_r1)"/><path d="M 48.5 21.1 C 50.9 22.5, 50.7 25.6, 48.5 27.3 C 46.3 25.6, 46.1 22.5, 48.5 21.1 Z" fill="#d3e8cb" opacity="0.5"/><line x1="50" y1="30.9" x2="50" y2="22.1" stroke="#3f5b39" stroke-width="0.55" opacity="0.5"/></g>
<g transform="rotate(353.0 50 50)"><path d="M 50.0 20.0 C 55.9 22.9, 55.3 29.5, 50.0 33.2 C 44.7 29.5, 44.1 22.9, 50.0 20.0 Z" fill="#26381f" opacity="0.9"/><path d="M 50.0 21.4 C 54.5 23.8, 54.1 29.3, 50.0 32.4 C 45.9 29.3, 45.5 23.8, 50.0 21.4 Z" fill="url(#b6_r1)"/><path d="M 48.6 22.5 C 50.9 23.7, 50.6 26.6, 48.6 28.2 C 46.6 26.6, 46.3 23.7, 48.6 22.5 Z" fill="#d3e8cb" opacity="0.5"/><line x1="50" y1="31.5" x2="50" y2="23.4" stroke="#3f5b39" stroke-width="0.55" opacity="0.5"/></g>
<g transform="rotate(385.8 50 50)"><path d="M 50.0 21.3 C 55.8 24.1, 55.2 30.5, 50.0 34.1 C 44.8 30.5, 44.2 24.1, 50.0 21.3 Z" fill="#26381f" opacity="0.9"/><path d="M 50.0 22.7 C 54.5 25.0, 54.0 30.3, 50.0 33.3 C 46.0 30.3, 45.5 25.0, 50.0 22.7 Z" fill="url(#b6_r1)"/><path d="M 48.6 23.7 C 50.9 25.0, 50.6 27.7, 48.6 29.3 C 46.6 27.7, 46.4 25.0, 48.6 23.7 Z" fill="#d3e8cb" opacity="0.5"/><line x1="50" y1="32.4" x2="50" y2="24.6" stroke="#3f5b39" stroke-width="0.55" opacity="0.5"/></g>
<g transform="rotate(418.4 50 50)"><path d="M 50.0 20.5 C 56.2 23.6, 55.6 30.4, 50.0 34.3 C 44.4 30.4, 43.8 23.6, 50.0 20.5 Z" fill="#26381f" opacity="0.9"/><path d="M 50.0 21.9 C 54.8 24.5, 54.3 30.3, 50.0 33.5 C 45.7 30.3, 45.2 24.5, 50.0 21.9 Z" fill="url(#b6_r1)"/><path d="M 48.5 23.1 C 50.9 24.4, 50.7 27.4, 48.5 29.1 C 46.4 27.4, 46.1 24.4, 48.5 23.1 Z" fill="#d3e8cb" opacity="0.5"/><line x1="50" y1="32.6" x2="50" y2="24.0" stroke="#3f5b39" stroke-width="0.55" opacity="0.5"/></g>
<g transform="rotate(447.7 50 50)"><path d="M 50.0 19.1 C 56.6 22.0, 55.9 28.7, 50.0 32.5 C 44.1 28.7, 43.4 22.0, 50.0 19.1 Z" fill="#26381f" opacity="0.9"/><path d="M 50.0 20.5 C 55.1 23.0, 54.6 28.6, 50.0 31.7 C 45.4 28.6, 44.9 23.0, 50.0 20.5 Z" fill="url(#b6_r1)"/><path d="M 48.4 21.6 C 51.0 22.9, 50.7 25.8, 48.4 27.4 C 46.1 25.8, 45.9 22.9, 48.4 21.6 Z" fill="#d3e8cb" opacity="0.5"/><line x1="50" y1="30.8" x2="50" y2="22.5" stroke="#3f5b39" stroke-width="0.55" opacity="0.5"/></g>
<g transform="rotate(70.2 50 50)"><path d="M 50.0 27.2 C 55.5 29.9, 54.9 36.1, 50.0 39.5 C 45.1 36.1, 44.5 29.9, 50.0 27.2 Z" fill="#26381f" opacity="0.9"/><path d="M 50.0 28.6 C 54.2 30.9, 53.8 35.9, 50.0 38.7 C 46.2 35.9, 45.8 30.9, 50.0 28.6 Z" fill="url(#b6_r2)"/><path d="M 48.7 29.6 C 50.8 30.8, 50.6 33.4, 48.7 34.9 C 46.8 33.4, 46.6 30.8, 48.7 29.6 Z" fill="#dff0d7" opacity="0.5"/><line x1="50" y1="37.9" x2="50" y2="30.5" stroke="#3f5b39" stroke-width="0.55" opacity="0.5"/></g>
<g transform="rotate(113.2 50 50)"><path d="M 50.0 27.6 C 55.7 30.3, 55.1 36.3, 50.0 39.6 C 44.9 36.3, 44.3 30.3, 50.0 27.6 Z" fill="#26381f" opacity="0.9"/><path d="M 50.0 29.0 C 54.4 31.2, 53.9 36.1, 50.0 38.8 C 46.1 36.1, 45.6 31.2, 50.0 29.0 Z" fill="url(#b6_r2)"/><path d="M 48.6 30.0 C 50.8 31.1, 50.6 33.7, 48.6 35.1 C 46.7 33.7, 46.5 31.1, 48.6 30.0 Z" fill="#dff0d7" opacity="0.5"/><line x1="50" y1="38.1" x2="50" y2="30.8" stroke="#3f5b39" stroke-width="0.55" opacity="0.5"/></g>
<g transform="rotate(154.7 50 50)"><path d="M 50.0 28.2 C 55.4 30.6, 54.9 36.1, 50.0 39.1 C 45.1 36.1, 44.6 30.6, 50.0 28.2 Z" fill="#26381f" opacity="0.9"/><path d="M 50.0 29.6 C 54.2 31.5, 53.7 35.9, 50.0 38.3 C 46.3 35.9, 45.8 31.5, 50.0 29.6 Z" fill="url(#b6_r2)"/><path d="M 48.7 30.5 C 50.8 31.5, 50.6 33.7, 48.7 35.0 C 46.8 33.7, 46.6 31.5, 48.7 30.5 Z" fill="#dff0d7" opacity="0.5"/><line x1="50" y1="37.6" x2="50" y2="31.2" stroke="#3f5b39" stroke-width="0.55" opacity="0.5"/></g>
<g transform="rotate(194.1 50 50)"><path d="M 50.0 28.5 C 55.6 31.1, 55.0 36.9, 50.0 40.2 C 45.0 36.9, 44.4 31.1, 50.0 28.5 Z" fill="#26381f" opacity="0.9"/><path d="M 50.0 29.9 C 54.3 32.0, 53.8 36.7, 50.0 39.4 C 46.2 36.7, 45.7 32.0, 50.0 29.9 Z" fill="url(#b6_r2)"/><path d="M 48.7 30.9 C 50.8 32.0, 50.6 34.4, 48.7 35.8 C 46.7 34.4, 46.5 32.0, 48.7 30.9 Z" fill="#dff0d7" opacity="0.5"/><line x1="50" y1="38.6" x2="50" y2="31.6" stroke="#3f5b39" stroke-width="0.55" opacity="0.5"/></g>
<g transform="rotate(230.6 50 50)"><path d="M 50.0 27.8 C 55.7 30.2, 55.1 35.9, 50.0 39.0 C 44.9 35.9, 44.3 30.2, 50.0 27.8 Z" fill="#26381f" opacity="0.9"/><path d="M 50.0 29.2 C 54.4 31.2, 54.0 35.7, 50.0 38.2 C 46.0 35.7, 45.6 31.2, 50.0 29.2 Z" fill="url(#b6_r2)"/><path d="M 48.6 30.1 C 50.8 31.1, 50.6 33.5, 48.6 34.8 C 46.7 33.5, 46.4 31.1, 48.6 30.1 Z" fill="#dff0d7" opacity="0.5"/><line x1="50" y1="37.5" x2="50" y2="30.8" stroke="#3f5b39" stroke-width="0.55" opacity="0.5"/></g>
<g transform="rotate(269.4 50 50)"><path d="M 50.0 26.2 C 55.5 29.0, 54.9 35.4, 50.0 39.0 C 45.1 35.4, 44.5 29.0, 50.0 26.2 Z" fill="#26381f" opacity="0.9"/><path d="M 50.0 27.6 C 54.2 29.9, 53.8 35.2, 50.0 38.2 C 46.2 35.2, 45.8 29.9, 50.0 27.6 Z" fill="url(#b6_r2)"/><path d="M 48.7 28.7 C 50.8 29.9, 50.6 32.6, 48.7 34.2 C 46.8 32.6, 46.6 29.9, 48.7 28.7 Z" fill="#dff0d7" opacity="0.5"/><line x1="50" y1="37.3" x2="50" y2="29.5" stroke="#3f5b39" stroke-width="0.55" opacity="0.5"/></g>
<g transform="rotate(308.0 50 50)"><path d="M 50.0 26.9 C 55.5 29.5, 54.9 35.7, 50.0 39.1 C 45.1 35.7, 44.5 29.5, 50.0 26.9 Z" fill="#26381f" opacity="0.9"/><path d="M 50.0 28.3 C 54.2 30.5, 53.8 35.5, 50.0 38.3 C 46.2 35.5, 45.8 30.5, 50.0 28.3 Z" fill="url(#b6_r2)"/><path d="M 48.7 29.3 C 50.8 30.4, 50.6 33.0, 48.7 34.5 C 46.8 33.0, 46.6 30.4, 48.7 29.3 Z" fill="#dff0d7" opacity="0.5"/><line x1="50" y1="37.5" x2="50" y2="30.1" stroke="#3f5b39" stroke-width="0.55" opacity="0.5"/></g>
<g transform="rotate(350.9 50 50)"><path d="M 50.0 27.6 C 55.7 30.3, 55.1 36.6, 50.0 40.1 C 44.9 36.6, 44.3 30.3, 50.0 27.6 Z" fill="#26381f" opacity="0.9"/><path d="M 50.0 29.0 C 54.4 31.3, 54.0 36.4, 50.0 39.3 C 46.0 36.4, 45.6 31.3, 50.0 29.0 Z" fill="url(#b6_r2)"/><path d="M 48.6 30.0 C 50.8 31.2, 50.6 33.9, 48.6 35.4 C 46.7 33.9, 46.4 31.2, 48.6 30.0 Z" fill="#dff0d7" opacity="0.5"/><line x1="50" y1="38.5" x2="50" y2="30.8" stroke="#3f5b39" stroke-width="0.55" opacity="0.5"/></g>
<g transform="rotate(392.4 50 50)"><path d="M 50.0 29.0 C 55.8 31.5, 55.2 36.9, 50.0 40.0 C 44.8 36.9, 44.2 31.5, 50.0 29.0 Z" fill="#26381f" opacity="0.9"/><path d="M 50.0 30.4 C 54.4 32.4, 54.0 36.8, 50.0 39.2 C 46.0 36.8, 45.6 32.4, 50.0 30.4 Z" fill="url(#b6_r2)"/><path d="M 48.6 31.3 C 50.8 32.3, 50.6 34.6, 48.6 35.9 C 46.6 34.6, 46.4 32.3, 48.6 31.3 Z" fill="#dff0d7" opacity="0.5"/><line x1="50" y1="38.5" x2="50" y2="32.0" stroke="#3f5b39" stroke-width="0.55" opacity="0.5"/></g>
<g transform="rotate(216.5 50 50)"><path d="M 50.0 34.8 C 55.0 37.0, 54.5 42.0, 50.0 44.8 C 45.5 42.0, 45.0 37.0, 50.0 34.8 Z" fill="#26381f" opacity="0.9"/><path d="M 50.0 36.2 C 53.8 37.9, 53.4 41.8, 50.0 44.0 C 46.6 41.8, 46.2 37.9, 50.0 36.2 Z" fill="url(#b6_r3)"/><path d="M 48.8 37.0 C 50.7 37.9, 50.5 39.9, 48.8 41.0 C 47.1 39.9, 46.9 37.9, 48.8 37.0 Z" fill="#eaf8e3" opacity="0.5"/><line x1="50" y1="43.4" x2="50" y2="37.6" stroke="#3f5b39" stroke-width="0.55" opacity="0.5"/></g>
<g transform="rotate(267.8 50 50)"><path d="M 50.0 32.6 C 55.4 35.0, 54.8 40.6, 50.0 43.8 C 45.2 40.6, 44.6 35.0, 50.0 32.6 Z" fill="#26381f" opacity="0.9"/><path d="M 50.0 34.0 C 54.1 35.9, 53.7 40.4, 50.0 43.0 C 46.3 40.4, 45.9 35.9, 50.0 34.0 Z" fill="url(#b6_r3)"/><path d="M 48.7 34.9 C 50.8 35.9, 50.6 38.2, 48.7 39.5 C 46.9 38.2, 46.6 35.9, 48.7 34.9 Z" fill="#eaf8e3" opacity="0.5"/><line x1="50" y1="42.2" x2="50" y2="35.6" stroke="#3f5b39" stroke-width="0.55" opacity="0.5"/></g>
<g transform="rotate(315.2 50 50)"><path d="M 50.0 32.6 C 55.2 35.0, 54.7 40.3, 50.0 43.2 C 45.3 40.3, 44.8 35.0, 50.0 32.6 Z" fill="#26381f" opacity="0.9"/><path d="M 50.0 34.0 C 54.0 35.9, 53.6 40.1, 50.0 42.4 C 46.4 40.1, 46.0 35.9, 50.0 34.0 Z" fill="url(#b6_r3)"/><path d="M 48.8 34.9 C 50.8 35.8, 50.6 38.0, 48.8 39.3 C 47.0 38.0, 46.8 35.8, 48.8 34.9 Z" fill="#eaf8e3" opacity="0.5"/><line x1="50" y1="41.8" x2="50" y2="35.6" stroke="#3f5b39" stroke-width="0.55" opacity="0.5"/></g>
<g transform="rotate(368.1 50 50)"><path d="M 50.0 32.8 C 54.9 35.3, 54.4 40.9, 50.0 44.0 C 45.6 40.9, 45.1 35.3, 50.0 32.8 Z" fill="#26381f" opacity="0.9"/><path d="M 50.0 34.2 C 53.8 36.2, 53.4 40.7, 50.0 43.2 C 46.6 40.7, 46.2 36.2, 50.0 34.2 Z" fill="url(#b6_r3)"/><path d="M 48.8 35.1 C 50.7 36.2, 50.5 38.5, 48.8 39.8 C 47.1 38.5, 46.9 36.2, 48.8 35.1 Z" fill="#eaf8e3" opacity="0.5"/><line x1="50" y1="42.5" x2="50" y2="35.8" stroke="#3f5b39" stroke-width="0.55" opacity="0.5"/></g>
<g transform="rotate(422.4 50 50)"><path d="M 50.0 32.1 C 54.9 34.6, 54.4 40.2, 50.0 43.4 C 45.6 40.2, 45.1 34.6, 50.0 32.1 Z" fill="#26381f" opacity="0.9"/><path d="M 50.0 33.5 C 53.7 35.5, 53.4 40.1, 50.0 42.6 C 46.6 40.1, 46.3 35.5, 50.0 33.5 Z" fill="url(#b6_r3)"/><path d="M 48.8 34.4 C 50.7 35.4, 50.5 37.8, 48.8 39.1 C 47.2 37.8, 47.0 35.4, 48.8 34.4 Z" fill="#eaf8e3" opacity="0.5"/><line x1="50" y1="41.9" x2="50" y2="35.1" stroke="#3f5b39" stroke-width="0.55" opacity="0.5"/></g>
<g transform="rotate(472.5 50 50)"><path d="M 50.0 33.2 C 55.0 35.6, 54.5 41.0, 50.0 44.1 C 45.5 41.0, 45.0 35.6, 50.0 33.2 Z" fill="#26381f" opacity="0.9"/><path d="M 50.0 34.6 C 53.8 36.5, 53.4 40.8, 50.0 43.3 C 46.6 40.8, 46.2 36.5, 50.0 34.6 Z" fill="url(#b6_r3)"/><path d="M 48.8 35.4 C 50.7 36.4, 50.5 38.7, 48.8 40.0 C 47.1 38.7, 46.9 36.4, 48.8 35.4 Z" fill="#eaf8e3" opacity="0.5"/><line x1="50" y1="42.6" x2="50" y2="36.1" stroke="#3f5b39" stroke-width="0.55" opacity="0.5"/></g>
<g transform="rotate(524.3 50 50)"><path d="M 50.0 33.2 C 55.3 35.6, 54.7 41.1, 50.0 44.2 C 45.3 41.1, 44.7 35.6, 50.0 33.2 Z" fill="#26381f" opacity="0.9"/><path d="M 50.0 34.6 C 54.1 36.6, 53.6 41.0, 50.0 43.4 C 46.4 41.0, 45.9 36.6, 50.0 34.6 Z" fill="url(#b6_r3)"/><path d="M 48.7 35.5 C 50.8 36.5, 50.6 38.8, 48.7 40.1 C 46.9 38.8, 46.7 36.5, 48.7 35.5 Z" fill="#eaf8e3" opacity="0.5"/><line x1="50" y1="42.7" x2="50" y2="36.2" stroke="#3f5b39" stroke-width="0.55" opacity="0.5"/></g>
<g transform="rotate(176.6 50 50)"><path d="M 50.0 39.4 C 54.2 41.4, 53.8 45.9, 50.0 48.4 C 46.2 45.9, 45.8 41.4, 50.0 39.4 Z" fill="#26381f" opacity="0.9"/><path d="M 50.0 40.8 C 53.2 42.3, 52.9 45.7, 50.0 47.6 C 47.1 45.7, 46.8 42.3, 50.0 40.8 Z" fill="url(#b6_r4)"/><path d="M 49.0 41.4 C 50.6 42.2, 50.4 44.0, 49.0 45.0 C 47.6 44.0, 47.4 42.2, 49.0 41.4 Z" fill="#f4ffee" opacity="0.5"/><line x1="50" y1="47.1" x2="50" y2="42.0" stroke="#3f5b39" stroke-width="0.55" opacity="0.5"/></g>
<g transform="rotate(247.6 50 50)"><path d="M 50.0 39.5 C 54.5 41.7, 54.0 46.7, 50.0 49.5 C 46.0 46.7, 45.5 41.7, 50.0 39.5 Z" fill="#26381f" opacity="0.9"/><path d="M 50.0 40.9 C 53.4 42.6, 53.1 46.5, 50.0 48.7 C 46.9 46.5, 46.6 42.6, 50.0 40.9 Z" fill="url(#b6_r4)"/><path d="M 48.9 41.7 C 50.7 42.6, 50.5 44.6, 48.9 45.7 C 47.4 44.6, 47.2 42.6, 48.9 41.7 Z" fill="#f4ffee" opacity="0.5"/><line x1="50" y1="48.1" x2="50" y2="42.3" stroke="#3f5b39" stroke-width="0.55" opacity="0.5"/></g>
<g transform="rotate(320.0 50 50)"><path d="M 50.0 38.6 C 54.8 40.6, 54.3 45.2, 50.0 47.7 C 45.7 45.2, 45.2 40.6, 50.0 38.6 Z" fill="#26381f" opacity="0.9"/><path d="M 50.0 40.0 C 53.7 41.5, 53.3 45.0, 50.0 46.9 C 46.7 45.0, 46.3 41.5, 50.0 40.0 Z" fill="url(#b6_r4)"/><path d="M 48.9 40.7 C 50.7 41.4, 50.5 43.3, 48.9 44.3 C 47.2 43.3, 47.0 41.4, 48.9 40.7 Z" fill="#f4ffee" opacity="0.5"/><line x1="50" y1="46.4" x2="50" y2="41.2" stroke="#3f5b39" stroke-width="0.55" opacity="0.5"/></g>
<g transform="rotate(394.5 50 50)"><path d="M 50.0 38.2 C 54.2 40.4, 53.8 45.2, 50.0 48.0 C 46.2 45.2, 45.8 40.4, 50.0 38.2 Z" fill="#26381f" opacity="0.9"/><path d="M 50.0 39.6 C 53.2 41.3, 52.9 45.1, 50.0 47.2 C 47.1 45.1, 46.8 41.3, 50.0 39.6 Z" fill="url(#b6_r4)"/><path d="M 49.0 40.4 C 50.6 41.2, 50.4 43.2, 49.0 44.3 C 47.6 43.2, 47.4 41.2, 49.0 40.4 Z" fill="#f4ffee" opacity="0.5"/><line x1="50" y1="46.6" x2="50" y2="41.0" stroke="#3f5b39" stroke-width="0.55" opacity="0.5"/></g>
<g transform="rotate(467.9 50 50)"><path d="M 50.0 38.3 C 54.8 40.5, 54.3 45.4, 50.0 48.2 C 45.7 45.4, 45.2 40.5, 50.0 38.3 Z" fill="#26381f" opacity="0.9"/><path d="M 50.0 39.7 C 53.7 41.4, 53.3 45.3, 50.0 47.4 C 46.7 45.3, 46.3 41.4, 50.0 39.7 Z" fill="url(#b6_r4)"/><path d="M 48.9 40.5 C 50.7 41.3, 50.5 43.4, 48.9 44.5 C 47.2 43.4, 47.0 41.3, 48.9 40.5 Z" fill="#f4ffee" opacity="0.5"/><line x1="50" y1="46.8" x2="50" y2="41.1" stroke="#3f5b39" stroke-width="0.55" opacity="0.5"/></g>
<g transform="rotate(37.5 50 50)"><path d="M 50.0 43.0 C 53.4 44.8, 53.0 48.8, 50.0 51.1 C 47.0 48.8, 46.6 44.8, 50.0 43.0 Z" fill="#26381f" opacity="0.9"/><path d="M 50.0 44.4 C 52.6 45.7, 52.3 48.6, 50.0 50.3 C 47.7 48.6, 47.4 45.7, 50.0 44.4 Z" fill="url(#b6_r5)"/></g>
<g transform="rotate(125.2 50 50)"><path d="M 50.0 42.5 C 53.6 44.2, 53.2 48.0, 50.0 50.2 C 46.8 48.0, 46.4 44.2, 50.0 42.5 Z" fill="#26381f" opacity="0.9"/><path d="M 50.0 43.9 C 52.7 45.1, 52.5 47.8, 50.0 49.4 C 47.5 47.8, 47.3 45.1, 50.0 43.9 Z" fill="url(#b6_r5)"/><path d="M 49.2 44.5 C 50.5 45.1, 50.4 46.5, 49.2 47.3 C 47.9 46.5, 47.8 45.1, 49.2 44.5 Z" fill="#f7fff3" opacity="0.5"/><line x1="50" y1="48.9" x2="50" y2="44.9" stroke="#3f5b39" stroke-width="0.55" opacity="0.5"/></g>
<g transform="rotate(213.8 50 50)"><path d="M 50.0 43.0 C 53.2 44.8, 52.8 49.0, 50.0 51.3 C 47.2 49.0, 46.8 44.8, 50.0 43.0 Z" fill="#26381f" opacity="0.9"/><path d="M 50.0 44.4 C 52.4 45.7, 52.2 48.8, 50.0 50.5 C 47.8 48.8, 47.6 45.7, 50.0 44.4 Z" fill="url(#b6_r5)"/></g>
<g transform="rotate(305.3 50 50)"><path d="M 50.0 42.1 C 53.5 43.8, 53.1 47.7, 50.0 49.9 C 46.9 47.7, 46.5 43.8, 50.0 42.1 Z" fill="#26381f" opacity="0.9"/><path d="M 50.0 43.5 C 52.7 44.8, 52.4 47.5, 50.0 49.1 C 47.6 47.5, 47.3 44.8, 50.0 43.5 Z" fill="url(#b6_r5)"/><path d="M 49.2 44.1 C 50.5 44.7, 50.4 46.2, 49.2 47.0 C 48.0 46.2, 47.8 44.7, 49.2 44.1 Z" fill="#f7fff3" opacity="0.5"/><line x1="50" y1="48.6" x2="50" y2="44.5" stroke="#3f5b39" stroke-width="0.55" opacity="0.5"/></g>
<circle cx="57.4" cy="57.9" r="5.5" fill="#26381f" opacity="0.4"/><g transform="rotate(260.1 57.4 57.9)"><ellipse cx="57.4" cy="55.1" rx="1.5" ry="2.6" fill="#5c7fd0"/><ellipse cx="57.4" cy="54.5" rx="0.8" ry="1.5" fill="#a3b8ec" opacity="0.85"/></g><g transform="rotate(332.1 57.4 57.9)"><ellipse cx="57.4" cy="55.1" rx="1.5" ry="2.6" fill="#5c7fd0"/><ellipse cx="57.4" cy="54.5" rx="0.8" ry="1.5" fill="#a3b8ec" opacity="0.85"/></g><g transform="rotate(404.1 57.4 57.9)"><ellipse cx="57.4" cy="55.1" rx="1.5" ry="2.6" fill="#5c7fd0"/><ellipse cx="57.4" cy="54.5" rx="0.8" ry="1.5" fill="#a3b8ec" opacity="0.85"/></g><g transform="rotate(476.1 57.4 57.9)"><ellipse cx="57.4" cy="55.1" rx="1.5" ry="2.6" fill="#5c7fd0"/><ellipse cx="57.4" cy="54.5" rx="0.8" ry="1.5" fill="#a3b8ec" opacity="0.85"/></g><g transform="rotate(548.1 57.4 57.9)"><ellipse cx="57.4" cy="55.1" rx="1.5" ry="2.6" fill="#5c7fd0"/><ellipse cx="57.4" cy="54.5" rx="0.8" ry="1.5" fill="#a3b8ec" opacity="0.85"/></g><circle cx="57.4" cy="57.9" r="1.4" fill="#f0d060"/><circle cx="57.0" cy="57.5" r="0.6" fill="#ffe380"/>
<circle cx="27.3" cy="61.1" r="5.4" fill="#26381f" opacity="0.4"/><g transform="rotate(277.5 27.3 61.1)"><ellipse cx="27.3" cy="58.4" rx="1.5" ry="2.6" fill="#5c7fd0"/><ellipse cx="27.3" cy="57.7" rx="0.8" ry="1.5" fill="#a3b8ec" opacity="0.85"/></g><g transform="rotate(349.5 27.3 61.1)"><ellipse cx="27.3" cy="58.4" rx="1.5" ry="2.6" fill="#5c7fd0"/><ellipse cx="27.3" cy="57.7" rx="0.8" ry="1.5" fill="#a3b8ec" opacity="0.85"/></g><g transform="rotate(421.5 27.3 61.1)"><ellipse cx="27.3" cy="58.4" rx="1.5" ry="2.6" fill="#5c7fd0"/><ellipse cx="27.3" cy="57.7" rx="0.8" ry="1.5" fill="#a3b8ec" opacity="0.85"/></g><g transform="rotate(493.5 27.3 61.1)"><ellipse cx="27.3" cy="58.4" rx="1.5" ry="2.6" fill="#5c7fd0"/><ellipse cx="27.3" cy="57.7" rx="0.8" ry="1.5" fill="#a3b8ec" opacity="0.85"/></g><g transform="rotate(565.5 27.3 61.1)"><ellipse cx="27.3" cy="58.4" rx="1.5" ry="2.6" fill="#5c7fd0"/><ellipse cx="27.3" cy="57.7" rx="0.8" ry="1.5" fill="#a3b8ec" opacity="0.85"/></g><circle cx="27.3" cy="61.1" r="1.4" fill="#f0d060"/><circle cx="26.9" cy="60.7" r="0.6" fill="#ffe380"/>
<circle cx="73.2" cy="39.1" r="5.5" fill="#26381f" opacity="0.4"/><g transform="rotate(3.8 73.2 39.1)"><ellipse cx="73.2" cy="36.3" rx="1.5" ry="2.6" fill="#5c7fd0"/><ellipse cx="73.2" cy="35.7" rx="0.8" ry="1.5" fill="#a3b8ec" opacity="0.85"/></g><g transform="rotate(75.8 73.2 39.1)"><ellipse cx="73.2" cy="36.3" rx="1.5" ry="2.6" fill="#5c7fd0"/><ellipse cx="73.2" cy="35.7" rx="0.8" ry="1.5" fill="#a3b8ec" opacity="0.85"/></g><g transform="rotate(147.8 73.2 39.1)"><ellipse cx="73.2" cy="36.3" rx="1.5" ry="2.6" fill="#5c7fd0"/><ellipse cx="73.2" cy="35.7" rx="0.8" ry="1.5" fill="#a3b8ec" opacity="0.85"/></g><g transform="rotate(219.8 73.2 39.1)"><ellipse cx="73.2" cy="36.3" rx="1.5" ry="2.6" fill="#5c7fd0"/><ellipse cx="73.2" cy="35.7" rx="0.8" ry="1.5" fill="#a3b8ec" opacity="0.85"/></g><g transform="rotate(291.8 73.2 39.1)"><ellipse cx="73.2" cy="36.3" rx="1.5" ry="2.6" fill="#5c7fd0"/><ellipse cx="73.2" cy="35.7" rx="0.8" ry="1.5" fill="#a3b8ec" opacity="0.85"/></g><circle cx="73.2" cy="39.1" r="1.4" fill="#f0d060"/><circle cx="72.8" cy="38.7" r="0.6" fill="#ffe380"/>
<circle cx="68.8" cy="67.1" r="5.5" fill="#26381f" opacity="0.4"/><g transform="rotate(100.2 68.8 67.1)"><ellipse cx="68.8" cy="64.3" rx="1.5" ry="2.7" fill="#5c7fd0"/><ellipse cx="68.8" cy="63.6" rx="0.8" ry="1.5" fill="#a3b8ec" opacity="0.85"/></g><g transform="rotate(172.2 68.8 67.1)"><ellipse cx="68.8" cy="64.3" rx="1.5" ry="2.7" fill="#5c7fd0"/><ellipse cx="68.8" cy="63.6" rx="0.8" ry="1.5" fill="#a3b8ec" opacity="0.85"/></g><g transform="rotate(244.2 68.8 67.1)"><ellipse cx="68.8" cy="64.3" rx="1.5" ry="2.7" fill="#5c7fd0"/><ellipse cx="68.8" cy="63.6" rx="0.8" ry="1.5" fill="#a3b8ec" opacity="0.85"/></g><g transform="rotate(316.2 68.8 67.1)"><ellipse cx="68.8" cy="64.3" rx="1.5" ry="2.7" fill="#5c7fd0"/><ellipse cx="68.8" cy="63.6" rx="0.8" ry="1.5" fill="#a3b8ec" opacity="0.85"/></g><g transform="rotate(388.2 68.8 67.1)"><ellipse cx="68.8" cy="64.3" rx="1.5" ry="2.7" fill="#5c7fd0"/><ellipse cx="68.8" cy="63.6" rx="0.8" ry="1.5" fill="#a3b8ec" opacity="0.85"/></g><circle cx="68.8" cy="67.1" r="1.4" fill="#f0d060"/><circle cx="68.4" cy="66.7" r="0.6" fill="#ffe380"/>
<circle cx="46.0" cy="70.6" r="4.4" fill="#26381f" opacity="0.4"/><g transform="rotate(287.0 46.0 70.6)"><ellipse cx="46.0" cy="68.3" rx="1.2" ry="2.1" fill="#5c7fd0"/><ellipse cx="46.0" cy="67.8" rx="0.7" ry="1.2" fill="#a3b8ec" opacity="0.85"/></g><g transform="rotate(359.0 46.0 70.6)"><ellipse cx="46.0" cy="68.3" rx="1.2" ry="2.1" fill="#5c7fd0"/><ellipse cx="46.0" cy="67.8" rx="0.7" ry="1.2" fill="#a3b8ec" opacity="0.85"/></g><g transform="rotate(431.0 46.0 70.6)"><ellipse cx="46.0" cy="68.3" rx="1.2" ry="2.1" fill="#5c7fd0"/><ellipse cx="46.0" cy="67.8" rx="0.7" ry="1.2" fill="#a3b8ec" opacity="0.85"/></g><g transform="rotate(503.0 46.0 70.6)"><ellipse cx="46.0" cy="68.3" rx="1.2" ry="2.1" fill="#5c7fd0"/><ellipse cx="46.0" cy="67.8" rx="0.7" ry="1.2" fill="#a3b8ec" opacity="0.85"/></g><g transform="rotate(575.0 46.0 70.6)"><ellipse cx="46.0" cy="68.3" rx="1.2" ry="2.1" fill="#5c7fd0"/><ellipse cx="46.0" cy="67.8" rx="0.7" ry="1.2" fill="#a3b8ec" opacity="0.85"/></g><circle cx="46.0" cy="70.6" r="1.1" fill="#f0d060"/><circle cx="45.7" cy="70.2" r="0.5" fill="#ffe380"/>
<circle cx="62.7" cy="39.4" r="5.5" fill="#26381f" opacity="0.4"/><g transform="rotate(138.6 62.7 39.4)"><ellipse cx="62.7" cy="36.6" rx="1.5" ry="2.7" fill="#5c7fd0"/><ellipse cx="62.7" cy="35.9" rx="0.8" ry="1.5" fill="#a3b8ec" opacity="0.85"/></g><g transform="rotate(210.6 62.7 39.4)"><ellipse cx="62.7" cy="36.6" rx="1.5" ry="2.7" fill="#5c7fd0"/><ellipse cx="62.7" cy="35.9" rx="0.8" ry="1.5" fill="#a3b8ec" opacity="0.85"/></g><g transform="rotate(282.6 62.7 39.4)"><ellipse cx="62.7" cy="36.6" rx="1.5" ry="2.7" fill="#5c7fd0"/><ellipse cx="62.7" cy="35.9" rx="0.8" ry="1.5" fill="#a3b8ec" opacity="0.85"/></g><g transform="rotate(354.6 62.7 39.4)"><ellipse cx="62.7" cy="36.6" rx="1.5" ry="2.7" fill="#5c7fd0"/><ellipse cx="62.7" cy="35.9" rx="0.8" ry="1.5" fill="#a3b8ec" opacity="0.85"/></g><g transform="rotate(426.6 62.7 39.4)"><ellipse cx="62.7" cy="36.6" rx="1.5" ry="2.7" fill="#5c7fd0"/><ellipse cx="62.7" cy="35.9" rx="0.8" ry="1.5" fill="#a3b8ec" opacity="0.85"/></g><circle cx="62.7" cy="39.4" r="1.4" fill="#f0d060"/><circle cx="62.3" cy="39.0" r="0.6" fill="#ffe380"/>
<circle cx="33.9" cy="47.3" r="5.4" fill="#26381f" opacity="0.4"/><g transform="rotate(299.3 33.9 47.3)"><ellipse cx="33.9" cy="44.5" rx="1.5" ry="2.6" fill="#5c7fd0"/><ellipse cx="33.9" cy="43.9" rx="0.8" ry="1.5" fill="#a3b8ec" opacity="0.85"/></g><g transform="rotate(371.3 33.9 47.3)"><ellipse cx="33.9" cy="44.5" rx="1.5" ry="2.6" fill="#5c7fd0"/><ellipse cx="33.9" cy="43.9" rx="0.8" ry="1.5" fill="#a3b8ec" opacity="0.85"/></g><g transform="rotate(443.3 33.9 47.3)"><ellipse cx="33.9" cy="44.5" rx="1.5" ry="2.6" fill="#5c7fd0"/><ellipse cx="33.9" cy="43.9" rx="0.8" ry="1.5" fill="#a3b8ec" opacity="0.85"/></g><g transform="rotate(515.3 33.9 47.3)"><ellipse cx="33.9" cy="44.5" rx="1.5" ry="2.6" fill="#5c7fd0"/><ellipse cx="33.9" cy="43.9" rx="0.8" ry="1.5" fill="#a3b8ec" opacity="0.85"/></g><g transform="rotate(587.3 33.9 47.3)"><ellipse cx="33.9" cy="44.5" rx="1.5" ry="2.6" fill="#5c7fd0"/><ellipse cx="33.9" cy="43.9" rx="0.8" ry="1.5" fill="#a3b8ec" opacity="0.85"/></g><circle cx="33.9" cy="47.3" r="1.4" fill="#f0d060"/><circle cx="33.5" cy="46.9" r="0.6" fill="#ffe380"/>
</svg>
