<svg xmlns="http://www.w3.org/2000/svg" viewBox="0 0 100 100">
  <!-- Broccoli with dense floret head - top-down view -->
  <defs>
    <radialGradient id="broccoli_base" cx="50%" cy="50%" r="55%">
      <stop offset="0%" stop-color="#3a7828"/>
      <stop offset="70%" stop-color="#2c6420"/>
      <stop offset="100%" stop-color="#205018"/>
    </radialGradient>
  </defs>
  <path d="M78 46 C72 53 71 69 69 79 C62 84 52 82 44 83 C39 80 25 71 20 70 C14 63 13 58 11 56 C13 41 18 36 22 21 C28 15 35 17 43 13 C54 20 64 22 71 23 C73 27 74 40 78 46 Z" fill="url(#broccoli_base)" opacity="0.8"/>
  <ellipse cx="62" cy="55" rx="13" ry="11" fill="#58942e" opacity="0.47"/>
  <ellipse cx="52" cy="65" rx="9" ry="11" fill="#508c28" opacity="0.49"/>
  <ellipse cx="41" cy="53" rx="8" ry="11" fill="#58942e" opacity="0.54"/>
  <ellipse cx="44" cy="41" rx="14" ry="7" fill="#508c28" opacity="0.57"/>
  <ellipse cx="54" cy="40" rx="14" ry="11" fill="#58942e" opacity="0.59"/>
  <circle cx="50" cy="48" r="14" fill="#388028" opacity="0.7"/>
  <circle cx="44" cy="44" r="5" fill="#489838" opacity="0.5"/>
  <circle cx="56" cy="44" r="5" fill="#409030" opacity="0.45"/>
  <circle cx="50" cy="52" r="5" fill="#489838" opacity="0.45"/>
  <line x1="55" y1="44" x2="38" y2="45" stroke="#205018" stroke-width="0.8" opacity="0.3"/>
  <line x1="60" y1="61" x2="41" y2="57" stroke="#205018" stroke-width="0.8" opacity="0.3"/>
</svg>
