<svg xmlns="http://www.w3.org/2000/svg" viewBox="0 0 100 100">
  <!-- Cabbage - tight leaf rosette - top-down view -->
  <defs>
    <radialGradient id="cabbage_base" cx="50%" cy="50%" r="55%">
      <stop offset="0%" stop-color="#488c2e"/>
      <stop offset="70%" stop-color="#3a7824"/>
      <stop offset="100%" stop-color="#2c641c"/>
    </radialGradient>
  </defs>
  <path d="M87 51 C84 58 71 66 68 72 C58 81 58 81 49 87 C46 80 38 76 30 71 C30 64 20 53 19 46 C24 40 24 35 28 33 C36 27 46 16 52 12 C62 20 68 21 75 27 C82 37 86 46 87 51 Z" fill="url(#cabbage_base)" opacity="0.8"/>
  <ellipse cx="59" cy="48" rx="13" ry="6" fill="#58942e" opacity="0.5"/>
  <ellipse cx="53" cy="62" rx="12" ry="11" fill="#508c28" opacity="0.52"/>
  <ellipse cx="36" cy="61" rx="9" ry="9" fill="#58942e" opacity="0.46"/>
  <ellipse cx="39" cy="51" rx="14" ry="7" fill="#508c28" opacity="0.55"/>
  <ellipse cx="40" cy="36" rx="13" ry="7" fill="#58942e" opacity="0.44"/>
  <ellipse cx="56" cy="35" rx="8" ry="6" fill="#508c28" opacity="0.57"/>
  <circle cx="50" cy="50" r="16" fill="#78c058" opacity="0.6"/>
  <circle cx="50" cy="50" r="10" fill="#a0d880" opacity="0.5"/>
  <circle cx="50" cy="50" r="5" fill="#c8e8a8" opacity="0.4"/>
  <line x1="37" y1="50" x2="54" y2="68" stroke="#2c641c" stroke-width="0.8" opacity="0.3"/>
  <line x1="35" y1="47" x2="38" y2="43" stroke="#2c641c" stroke-width="0.8" opacity="0.3"/>
</svg>
