<svg xmlns="http://www.w3.org/2000/svg" viewBox="0 0 100 100">
  <!-- Chamomile with daisy-like flowers - top-down view -->
  <defs>
    <radialGradient id="chamomile_base" cx="50%" cy="50%" r="55%">
      <stop offset="0%" stop-color="#58a038"/>
      <stop offset="70%" stop-color="#489028"/>
      <stop offset="100%" stop-color="#388020"/>
    </radialGradient>
  </defs>
  <path d="M81 48 C80 54 77 64 71 71 C65 72 55 78 49 76 C43 73 33 74 23 70 C20 65 20 54 23 47 C26 43 25 38 28 29 C37 24 48 20 55 19 C62 28 66 29 68 36 C69 38 79 40 81 48 Z" fill="url(#chamomile_base)" opacity="0.8"/>
  <ellipse cx="64" cy="50" rx="14" ry="9" fill="#58942e" opacity="0.49"/>
  <ellipse cx="51" cy="61" rx="9" ry="11" fill="#508c28" opacity="0.48"/>
  <ellipse cx="37" cy="62" rx="12" ry="10" fill="#58942e" opacity="0.41"/>
  <ellipse cx="39" cy="37" rx="11" ry="11" fill="#508c28" opacity="0.45"/>
  <ellipse cx="50" cy="38" rx="11" ry="6" fill="#58942e" opacity="0.41"/>
  <circle cx="42" cy="36" r="4" fill="#f8f0d0" opacity="0.8"/>
  <circle cx="41" cy="35" r="1.6" fill="#ffffff" opacity="0.45"/>
  <circle cx="58" cy="40" r="4" fill="#f8f0d0" opacity="0.8"/>
  <circle cx="57" cy="39" r="1.6" fill="#ffffff" opacity="0.45"/>
  <circle cx="35" cy="55" r="4" fill="#f8f0d0" opacity="0.8"/>
  <circle cx="34" cy="54" r="1.6" fill="#ffffff" opacity="0.45"/>
  <circle cx="55" cy="60" r="4" fill="#f8f0d0" opacity="0.8"/>
  <circle cx="54" cy="59" r="1.6" fill="#ffffff" opacity="0.45"/>
  <circle cx="48" cy="45" r="4" fill="#f8f0d0" opacity="0.8"/>
  <circle cx="47" cy="44" r="1.6" fill="#ffffff" opacity="0.45"/>
  <circle cx="42" cy="36" r="2" fill="#e8c828" opacity="0.8"/>
  <circle cx="58" cy="40" r="2" fill="#e8c828" opacity="0.8"/>
  <circle cx="35" cy="55" r="2" fill="#e8c828" opacity="0.8"/>
  <circle cx="55" cy="60" r="2" fill="#e8c828" opacity="0.8"/>
  <circle cx="48" cy="45" r="2" fill="#e8c828" opacity="0.8"/>
  <line x1="37" y1="44" x2="49" y2="56" stroke="#388020" stroke-width="0.8" opacity="0.3"/>
  <line x1="65" y1="62" x2="80" y2="74" stroke="#388020" stroke-width="0.8" opacity="0.3"/>
</svg>
