<svg xmlns="http://www.w3.org/2000/svg" viewBox="0 0 100 100">
  <!-- Chives - thin tubular leaves with purple flowers - top-down view -->
  <defs>
    <radialGradient id="chives_base" cx="50%" cy="50%" r="55%">
      <stop offset="0%" stop-color="#48a830"/>
      <stop offset="70%" stop-color="#389828"/>
      <stop offset="100%" stop-color="#288820"/>
    </radialGradient>
  </defs>
  <path d="M71 49 C66 54 64 61 65 65 C55 65 49 68 47 70 C40 69 37 70 37 69 C38 65 33 55 33 51 C32 42 36 44 36 35 C38 33 48 29 51 29 C54 29 56 34 64 36 C69 43 69 43 71 49 Z" fill="url(#chives_base)" opacity="0.8"/>
  <ellipse cx="59" cy="51" rx="12" ry="11" fill="#58942e" opacity="0.57"/>
  <ellipse cx="49" cy="58" rx="9" ry="7" fill="#508c28" opacity="0.49"/>
  <ellipse cx="41" cy="53" rx="11" ry="6" fill="#58942e" opacity="0.49"/>
  <ellipse cx="53" cy="42" rx="9" ry="7" fill="#508c28" opacity="0.45"/>
  <ellipse cx="50" cy="26" rx="2" ry="18" fill="#58b838" opacity="0.65"/>
  <ellipse cx="44" cy="30" rx="2" ry="16" fill="#50b030" opacity="0.6" transform="rotate(-8 44 30)"/>
  <ellipse cx="56" cy="28" rx="2" ry="16" fill="#58b838" opacity="0.6" transform="rotate(8 56 28)"/>
  <circle cx="50" cy="30" r="3" fill="#c080d0" opacity="0.8"/>
  <circle cx="44" cy="34" r="3" fill="#c080d0" opacity="0.8"/>
  <line x1="61" y1="38" x2="48" y2="45" stroke="#288820" stroke-width="0.8" opacity="0.3"/>
  <line x1="38" y1="46" x2="41" y2="34" stroke="#288820" stroke-width="0.8" opacity="0.3"/>
</svg>
