<svg xmlns="http://www.w3.org/2000/svg" viewBox="0 0 100 100">
  <!-- Chrysanthemum with dense layered petals - top-down view -->
  <defs>
    <radialGradient id="chrysanthemum_base" cx="50%" cy="50%" r="55%">
      <stop offset="0%" stop-color="#3a7828"/>
      <stop offset="70%" stop-color="#2c6420"/>
      <stop offset="100%" stop-color="#205018"/>
    </radialGradient>
  </defs>
  <path d="M73 48 C73 54 66 62 64 69 C59 69 51 71 48 72 C44 70 35 70 31 75 C29 66 20 63 16 57 C24 48 26 42 36 33 C45 25 48 18 54 15 C57 24 67 23 70 30 C71 36 75 44 73 48 Z" fill="url(#chrysanthemum_base)" opacity="0.8"/>
  <ellipse cx="60" cy="53" rx="12" ry="11" fill="#58942e" opacity="0.49"/>
  <ellipse cx="56" cy="65" rx="10" ry="10" fill="#508c28" opacity="0.49"/>
  <ellipse cx="40" cy="49" rx="12" ry="6" fill="#58942e" opacity="0.51"/>
  <ellipse cx="53" cy="37" rx="8" ry="11" fill="#508c28" opacity="0.54"/>
  <ellipse cx="66" cy="50" rx="3" ry="10" fill="#e8c030" opacity="0.75" transform="rotate(0 66 50)"/>
  <ellipse cx="64" cy="57" rx="3" ry="10" fill="#f0c838" opacity="0.73" transform="rotate(26 64 57)"/>
  <ellipse cx="60" cy="63" rx="3" ry="10" fill="#e8c030" opacity="0.71" transform="rotate(51 60 63)"/>
  <ellipse cx="54" cy="66" rx="3" ry="10" fill="#f0c838" opacity="0.69" transform="rotate(77 54 66)"/>
  <ellipse cx="46" cy="66" rx="3" ry="10" fill="#e8c030" opacity="0.67" transform="rotate(103 46 66)"/>
  <ellipse cx="40" cy="63" rx="3" ry="10" fill="#f0c838" opacity="0.65" transform="rotate(129 40 63)"/>
  <ellipse cx="36" cy="57" rx="3" ry="10" fill="#e8c030" opacity="0.63" transform="rotate(154 36 57)"/>
  <ellipse cx="34" cy="50" rx="3" ry="10" fill="#f0c838" opacity="0.61" transform="rotate(180 34 50)"/>
  <ellipse cx="36" cy="43" rx="3" ry="10" fill="#e8c030" opacity="0.59" transform="rotate(206 36 43)"/>
  <ellipse cx="40" cy="37" rx="3" ry="10" fill="#f0c838" opacity="0.57" transform="rotate(231 40 37)"/>
  <ellipse cx="46" cy="34" rx="3" ry="10" fill="#e8c030" opacity="0.55" transform="rotate(257 46 34)"/>
  <ellipse cx="54" cy="34" rx="3" ry="10" fill="#f0c838" opacity="0.53" transform="rotate(283 54 34)"/>
  <ellipse cx="60" cy="37" rx="3" ry="10" fill="#e8c030" opacity="0.51" transform="rotate(309 60 37)"/>
  <ellipse cx="64" cy="43" rx="3" ry="10" fill="#f0c838" opacity="0.5" transform="rotate(334 64 43)"/>
  <circle cx="50" cy="50" r="5" fill="#c8a020" opacity="0.9"/>
  <line x1="60" y1="35" x2="47" y2="50" stroke="#205018" stroke-width="0.8" opacity="0.3"/>
  <line x1="36" y1="40" x2="27" y2="32" stroke="#205018" stroke-width="0.8" opacity="0.3"/>
</svg>
