<svg xmlns="http://www.w3.org/2000/svg" viewBox="0 0 100 100">
  <!-- Cilantro with flat delicate leaves - top-down view -->
  <defs>
    <radialGradient id="cilantro_base" cx="50%" cy="50%" r="55%">
      <stop offset="0%" stop-color="#58a838"/>
      <stop offset="70%" stop-color="#489428"/>
      <stop offset="100%" stop-color="#388020"/>
    </radialGradient>
  </defs>
  <path d="M70 47 C69 52 69 53 66 61 C63 61 55 66 47 71 C42 71 39 73 30 71 C30 63 27 58 25 53 C28 48 34 35 36 31 C44 29 50 29 53 22 C61 28 66 29 68 33 C65 35 68 45 70 47 Z" fill="url(#cilantro_base)" opacity="0.8"/>
  <ellipse cx="67" cy="49" rx="10" ry="11" fill="#68b848" opacity="0.59"/>
  <ellipse cx="56" cy="62" rx="13" ry="10" fill="#58a838" opacity="0.53"/>
  <ellipse cx="47" cy="63" rx="14" ry="7" fill="#68b848" opacity="0.49"/>
  <ellipse cx="34" cy="53" rx="13" ry="10" fill="#58a838" opacity="0.5"/>
  <ellipse cx="43" cy="40" rx="14" ry="6" fill="#68b848" opacity="0.49"/>
  <ellipse cx="51" cy="42" rx="9" ry="8" fill="#58a838" opacity="0.4"/>
  <line x1="51" y1="60" x2="47" y2="47" stroke="#388020" stroke-width="0.8" opacity="0.3"/>
  <line x1="63" y1="42" x2="78" y2="22" stroke="#388020" stroke-width="0.8" opacity="0.3"/>
</svg>
