<svg xmlns="http://www.w3.org/2000/svg" viewBox="0 0 100 100">
  <!-- Currant bush with small clustered fruits - top-down view -->
  <defs>
    <radialGradient id="currant_base" cx="50%" cy="50%" r="55%">
      <stop offset="0%" stop-color="#3a7828"/>
      <stop offset="70%" stop-color="#2c6420"/>
      <stop offset="100%" stop-color="#205018"/>
    </radialGradient>
  </defs>
  <path d="M82 47 C76 58 77 59 70 70 C64 69 55 71 49 76 C40 75 39 71 29 68 C22 65 22 59 19 54 C21 45 21 39 28 29 C37 29 42 32 49 27 C54 27 63 26 74 29 C77 34 82 43 82 47 Z" fill="url(#currant_base)" opacity="0.8"/>
  <ellipse cx="61" cy="46" rx="8" ry="8" fill="#58942e" opacity="0.49"/>
  <ellipse cx="54" cy="58" rx="13" ry="9" fill="#508c28" opacity="0.47"/>
  <ellipse cx="43" cy="55" rx="13" ry="9" fill="#58942e" opacity="0.54"/>
  <ellipse cx="39" cy="46" rx="10" ry="10" fill="#508c28" opacity="0.41"/>
  <ellipse cx="58" cy="37" rx="13" ry="11" fill="#58942e" opacity="0.56"/>
  <circle cx="38" cy="38" r="2.5" fill="#c02030" opacity="0.8"/>
  <circle cx="37" cy="37" r="1.0" fill="#d83848" opacity="0.45"/>
  <circle cx="42" cy="42" r="2.5" fill="#c02030" opacity="0.8"/>
  <circle cx="41" cy="41" r="1.0" fill="#d83848" opacity="0.45"/>
  <circle cx="40" cy="46" r="2.5" fill="#c02030" opacity="0.8"/>
  <circle cx="39" cy="45" r="1.0" fill="#d83848" opacity="0.45"/>
  <circle cx="56" cy="40" r="2.5" fill="#c02030" opacity="0.8"/>
  <circle cx="55" cy="39" r="1.0" fill="#d83848" opacity="0.45"/>
  <circle cx="60" cy="44" r="2.5" fill="#c02030" opacity="0.8"/>
  <circle cx="59" cy="43" r="1.0" fill="#d83848" opacity="0.45"/>
  <circle cx="58" cy="48" r="2.5" fill="#c02030" opacity="0.8"/>
  <circle cx="57" cy="47" r="1.0" fill="#d83848" opacity="0.45"/>
  <line x1="41" y1="52" x2="39" y2="49" stroke="#205018" stroke-width="0.8" opacity="0.3"/>
  <line x1="45" y1="57" x2="37" y2="54" stroke="#205018" stroke-width="0.8" opacity="0.3"/>
</svg>
