<svg xmlns="http://www.w3.org/2000/svg" viewBox="0 0 100 100">
  <!-- Daffodil with trumpet center - top-down view -->
  <defs>
    <radialGradient id="daffodil_base" cx="50%" cy="50%" r="55%">
      <stop offset="0%" stop-color="#488c28"/>
      <stop offset="70%" stop-color="#3a7820"/>
      <stop offset="100%" stop-color="#2c6418"/>
    </radialGradient>
  </defs>
  <path d="M72 47 C70 54 68 63 66 72 C61 69 57 75 55 76 C50 71 39 72 33 73 C30 64 33 61 31 50 C33 47 40 43 39 34 C42 31 48 31 49 30 C54 35 64 34 71 32 C72 40 70 41 72 47 Z" fill="url(#daffodil_base)" opacity="0.8"/>
  <ellipse cx="62" cy="53" rx="10" ry="7" fill="#58942e" opacity="0.41"/>
  <ellipse cx="40" cy="58" rx="13" ry="11" fill="#508c28" opacity="0.58"/>
  <ellipse cx="41" cy="35" rx="11" ry="8" fill="#58942e" opacity="0.48"/>
  <ellipse cx="66" cy="50" rx="6" ry="14" fill="#f8e028" opacity="0.75" transform="rotate(0 66 50)"/>
  <ellipse cx="58" cy="64" rx="6" ry="14" fill="#f0d820" opacity="0.73" transform="rotate(60 58 64)"/>
  <ellipse cx="42" cy="64" rx="6" ry="14" fill="#f8e028" opacity="0.71" transform="rotate(120 42 64)"/>
  <ellipse cx="34" cy="50" rx="6" ry="14" fill="#f0d820" opacity="0.69" transform="rotate(180 34 50)"/>
  <ellipse cx="42" cy="36" rx="6" ry="14" fill="#f8e028" opacity="0.67" transform="rotate(240 42 36)"/>
  <ellipse cx="58" cy="36" rx="6" ry="14" fill="#f0d820" opacity="0.65" transform="rotate(300 58 36)"/>
  <circle cx="50" cy="50" r="7" fill="#e8a018" opacity="0.9"/>
  <line x1="42" y1="64" x2="32" y2="67" stroke="#2c6418" stroke-width="0.8" opacity="0.3"/>
  <line x1="51" y1="37" x2="46" y2="33" stroke="#2c6418" stroke-width="0.8" opacity="0.3"/>
</svg>
