<svg xmlns="http://www.w3.org/2000/svg" viewBox="0 0 100 100">
  <!-- Fig tree with large lobed leaves - top-down view -->
  <defs>
    <radialGradient id="fig_tree_base" cx="50%" cy="50%" r="55%">
      <stop offset="0%" stop-color="#3a6828"/>
      <stop offset="70%" stop-color="#2c5820"/>
      <stop offset="100%" stop-color="#1e4818"/>
    </radialGradient>
  </defs>
  <path d="M86 48 C85 54 78 67 78 73 C65 75 61 83 47 84 C37 79 29 80 20 74 C18 71 17 62 16 55 C20 44 22 35 26 19 C39 15 44 11 52 13 C62 14 71 17 76 19 C78 30 80 39 86 48 Z" fill="url(#fig_tree_base)" opacity="0.8"/>
  <ellipse cx="67" cy="45" rx="14" ry="7" fill="#58942e" opacity="0.45"/>
  <ellipse cx="51" cy="65" rx="13" ry="8" fill="#508c28" opacity="0.51"/>
  <ellipse cx="44" cy="58" rx="12" ry="11" fill="#58942e" opacity="0.51"/>
  <ellipse cx="43" cy="40" rx="9" ry="9" fill="#508c28" opacity="0.59"/>
  <ellipse cx="50" cy="31" rx="8" ry="10" fill="#58942e" opacity="0.41"/>
  <circle cx="44" cy="40" r="4" fill="#584028" opacity="0.8"/>
  <circle cx="43" cy="39" r="1.6" fill="#685038" opacity="0.45"/>
  <circle cx="58" cy="52" r="4" fill="#584028" opacity="0.8"/>
  <circle cx="57" cy="51" r="1.6" fill="#685038" opacity="0.45"/>
  <circle cx="38" cy="56" r="4" fill="#584028" opacity="0.8"/>
  <circle cx="37" cy="55" r="1.6" fill="#685038" opacity="0.45"/>
  <line x1="60" y1="53" x2="54" y2="61" stroke="#1e4818" stroke-width="0.8" opacity="0.3"/>
  <line x1="37" y1="64" x2="50" y2="59" stroke="#1e4818" stroke-width="0.8" opacity="0.3"/>
</svg>
