<svg xmlns="http://www.w3.org/2000/svg" viewBox="0 0 100 100">
<!-- fig_tree — generated by scripts/generate_plant_sprites.py (do not hand-edit) -->
<defs><radialGradient id="ft8_shadow" cx="50%" cy="50%" r="50%"><stop offset="0%" stop-color="#12300d" stop-opacity="0.28"/><stop offset="62%" stop-color="#12300d" stop-opacity="0.25"/><stop offset="100%" stop-color="#12300d" stop-opacity="0"/></radialGradient><linearGradient id="ft8_r0" x1="0" y1="0" x2="0" y2="1"><stop offset="0%" stop-color="#3d8f45"/><stop offset="48%" stop-color="#2a6e39"/><stop offset="100%" stop-color="#12452a"/></linearGradient><linearGradient id="ft8_r1" x1="0" y1="0" x2="0" y2="1"><stop offset="0%" stop-color="#58a557"/><stop offset="48%" stop-color="#3d8246"/><stop offset="100%" stop-color="#1c5832"/></linearGradient><linearGradient id="ft8_r2" x1="0" y1="0" x2="0" y2="1"><stop offset="0%" stop-color="#74ba68"/><stop offset="48%" stop-color="#509753"/><stop offset="100%" stop-color="#256c3a"/></linearGradient><linearGradient id="ft8_r3" x1="0" y1="0" x2="0" y2="1"><stop offset="0%" stop-color="#8fd07a"/><stop offset="48%" stop-color="#64ac61"/><stop offset="100%" stop-color="#2f7f42"/></linearGradient><radialGradient id="ft8_fruit" cx="38%" cy="35%" r="65%"><stop offset="0%" stop-color="#8a6a9d"/><stop offset="48%" stop-color="#5c3f78"/><stop offset="100%" stop-color="#33204a"/></radialGradient></defs>
<circle cx="50" cy="50" r="46.0" fill="url(#ft8_shadow)"/>
<circle cx="76.8" cy="50.0" r="16.3" fill="#12452a"/><circle cx="70.6" cy="67.3" r="16.3" fill="#12452a"/><circle cx="54.7" cy="76.4" r="16.3" fill="#12452a"/><circle cx="36.6" cy="73.2" r="16.3" fill="#12452a"/><circle cx="24.8" cy="59.2" r="16.3" fill="#12452a"/><circle cx="24.8" cy="40.8" r="16.3" fill="#12452a"/><circle cx="36.6" cy="26.8" r="16.3" fill="#12452a"/><circle cx="54.7" cy="23.6" r="16.3" fill="#12452a"/><circle cx="70.6" cy="32.7" r="16.3" fill="#12452a"/><circle cx="50" cy="50" r="28.8" fill="#206236"/>
<g transform="rotate(244.1 50 50)"><path d="M 50.0 3.9 C 63.7 6.4, 55.7 10.4, 61.4 13.9 C 66.7 16.8, 58.0 21.8, 50.0 28.7 C 42.0 21.8, 33.3 16.8, 38.6 13.9 C 44.3 10.4, 36.3 6.4, 50.0 3.9 Z" fill="#092e18" opacity="0.9"/><path d="M 50.0 5.3 C 60.5 7.6, 54.4 11.2, 58.8 14.4 C 62.8 17.1, 56.1 21.6, 50.0 27.9 C 43.9 21.6, 37.2 17.1, 41.2 14.4 C 45.6 11.2, 39.5 7.6, 50.0 5.3 Z" fill="url(#ft8_r0)"/><path d="M 47.4 7.6 C 51.6 10.2, 51.2 16.1, 47.4 19.3 C 43.6 16.1, 43.1 10.2, 47.4 7.6 Z" fill="#62bd6a" opacity="0.5"/><line x1="50" y1="26.1" x2="50" y2="9.4" stroke="#144a2c" stroke-width="0.55" opacity="0.5"/><line x1="50" y1="20.0" x2="56.1" y2="16.9" stroke="#144a2c" stroke-width="0.4" opacity="0.4"/><line x1="50" y1="20.0" x2="43.9" y2="16.9" stroke="#144a2c" stroke-width="0.4" opacity="0.4"/><line x1="50" y1="14.4" x2="56.1" y2="11.2" stroke="#144a2c" stroke-width="0.4" opacity="0.4"/><line x1="50" y1="14.4" x2="43.9" y2="11.2" stroke="#144a2c" stroke-width="0.4" opacity="0.4"/></g>
<g transform="rotate(273.3 50 50)"><path d="M 50.0 3.6 C 62.5 6.1, 55.2 10.1, 60.4 13.6 C 65.3 16.6, 57.3 21.6, 50.0 28.5 C 42.7 21.6, 34.7 16.6, 39.6 13.6 C 44.8 10.1, 37.5 6.1, 50.0 3.6 Z" fill="#092e18" opacity="0.9"/><path d="M 50.0 5.0 C 59.6 7.3, 54.0 10.9, 58.0 14.1 C 61.7 16.8, 55.6 21.4, 50.0 27.7 C 44.4 21.4, 38.3 16.8, 42.0 14.1 C 46.0 10.9, 40.4 7.3, 50.0 5.0 Z" fill="url(#ft8_r0)"/><path d="M 47.6 7.3 C 51.5 9.9, 51.1 15.8, 47.6 19.1 C 44.1 15.8, 43.7 9.9, 47.6 7.3 Z" fill="#62bd6a" opacity="0.5"/><line x1="50" y1="25.9" x2="50" y2="9.1" stroke="#144a2c" stroke-width="0.55" opacity="0.5"/><line x1="50" y1="19.8" x2="55.6" y2="16.6" stroke="#144a2c" stroke-width="0.4" opacity="0.4"/><line x1="50" y1="19.8" x2="44.4" y2="16.6" stroke="#144a2c" stroke-width="0.4" opacity="0.4"/><line x1="50" y1="14.1" x2="55.6" y2="10.9" stroke="#144a2c" stroke-width="0.4" opacity="0.4"/><line x1="50" y1="14.1" x2="44.4" y2="10.9" stroke="#144a2c" stroke-width="0.4" opacity="0.4"/></g>
<g transform="rotate(301.9 50 50)"><path d="M 50.0 8.0 C 64.2 10.2, 55.9 13.7, 61.8 16.7 C 67.4 19.3, 58.3 23.6, 50.0 29.7 C 41.7 23.6, 32.6 19.3, 38.2 16.7 C 44.1 13.7, 35.8 10.2, 50.0 8.0 Z" fill="#092e18" opacity="0.9"/><path d="M 50.0 9.4 C 60.9 11.4, 54.6 14.5, 59.1 17.2 C 63.4 19.6, 56.4 23.5, 50.0 28.9 C 43.6 23.5, 36.6 19.6, 40.9 17.2 C 45.4 14.5, 39.1 11.4, 50.0 9.4 Z" fill="url(#ft8_r0)"/><path d="M 47.3 11.4 C 51.7 13.6, 51.2 18.7, 47.3 21.5 C 43.3 18.7, 42.9 13.6, 47.3 11.4 Z" fill="#62bd6a" opacity="0.5"/><line x1="50" y1="27.4" x2="50" y2="12.9" stroke="#144a2c" stroke-width="0.55" opacity="0.5"/><line x1="50" y1="22.1" x2="56.4" y2="19.4" stroke="#144a2c" stroke-width="0.4" opacity="0.4"/><line x1="50" y1="22.1" x2="43.6" y2="19.4" stroke="#144a2c" stroke-width="0.4" opacity="0.4"/><line x1="50" y1="17.2" x2="56.4" y2="14.5" stroke="#144a2c" stroke-width="0.4" opacity="0.4"/><line x1="50" y1="17.2" x2="43.6" y2="14.5" stroke="#144a2c" stroke-width="0.4" opacity="0.4"/></g>
<g transform="rotate(330.9 50 50)"><path d="M 50.0 4.7 C 64.4 7.1, 56.0 11.0, 62.0 14.5 C 67.5 17.4, 58.4 22.3, 50.0 29.1 C 41.6 22.3, 32.5 17.4, 38.0 14.5 C 44.0 11.0, 35.6 7.1, 50.0 4.7 Z" fill="#092e18" opacity="0.9"/><path d="M 50.0 6.1 C 61.0 8.3, 54.6 11.9, 59.2 15.0 C 63.5 17.7, 56.4 22.1, 50.0 28.3 C 43.6 22.1, 36.5 17.7, 40.8 15.0 C 45.4 11.9, 39.0 8.3, 50.0 6.1 Z" fill="url(#ft8_r0)"/><path d="M 47.2 8.3 C 51.7 10.9, 51.2 16.6, 47.2 19.9 C 43.3 16.6, 42.8 10.9, 47.2 8.3 Z" fill="#62bd6a" opacity="0.5"/><line x1="50" y1="26.5" x2="50" y2="10.1" stroke="#144a2c" stroke-width="0.55" opacity="0.5"/><line x1="50" y1="20.5" x2="56.4" y2="17.4" stroke="#144a2c" stroke-width="0.4" opacity="0.4"/><line x1="50" y1="20.5" x2="43.6" y2="17.4" stroke="#144a2c" stroke-width="0.4" opacity="0.4"/><line x1="50" y1="15.0" x2="56.4" y2="11.9" stroke="#144a2c" stroke-width="0.4" opacity="0.4"/><line x1="50" y1="15.0" x2="43.6" y2="11.9" stroke="#144a2c" stroke-width="0.4" opacity="0.4"/></g>
<g transform="rotate(360.0 50 50)"><path d="M 50.0 6.5 C 62.6 8.7, 55.3 12.3, 60.5 15.4 C 65.4 18.1, 57.4 22.5, 50.0 28.7 C 42.6 22.5, 34.6 18.1, 39.5 15.4 C 44.7 12.3, 37.4 8.7, 50.0 6.5 Z" fill="#092e18" opacity="0.9"/><path d="M 50.0 7.9 C 59.7 9.9, 54.0 13.1, 58.1 15.9 C 61.9 18.3, 55.7 22.3, 50.0 27.9 C 44.3 22.3, 38.1 18.3, 41.9 15.9 C 46.0 13.1, 40.3 9.9, 50.0 7.9 Z" fill="url(#ft8_r0)"/><path d="M 47.6 9.9 C 51.5 12.2, 51.1 17.4, 47.6 20.3 C 44.1 17.4, 43.7 12.2, 47.6 9.9 Z" fill="#62bd6a" opacity="0.5"/><line x1="50" y1="26.3" x2="50" y2="11.5" stroke="#144a2c" stroke-width="0.55" opacity="0.5"/><line x1="50" y1="20.9" x2="55.7" y2="18.1" stroke="#144a2c" stroke-width="0.4" opacity="0.4"/><line x1="50" y1="20.9" x2="44.3" y2="18.1" stroke="#144a2c" stroke-width="0.4" opacity="0.4"/><line x1="50" y1="15.9" x2="55.7" y2="13.1" stroke="#144a2c" stroke-width="0.4" opacity="0.4"/><line x1="50" y1="15.9" x2="44.3" y2="13.1" stroke="#144a2c" stroke-width="0.4" opacity="0.4"/></g>
<g transform="rotate(391.1 50 50)"><path d="M 50.0 6.1 C 63.3 8.4, 55.5 12.1, 61.1 15.3 C 66.2 18.0, 57.7 22.6, 50.0 29.0 C 42.3 22.6, 33.8 18.0, 38.9 15.3 C 44.5 12.1, 36.7 8.4, 50.0 6.1 Z" fill="#092e18" opacity="0.9"/><path d="M 50.0 7.5 C 60.2 9.6, 54.3 12.9, 58.5 15.8 C 62.5 18.3, 56.0 22.4, 50.0 28.2 C 44.0 22.4, 37.5 18.3, 41.5 15.8 C 45.7 12.9, 39.8 9.6, 50.0 7.5 Z" fill="url(#ft8_r0)"/><path d="M 47.4 9.6 C 51.6 11.9, 51.1 17.3, 47.4 20.3 C 43.8 17.3, 43.3 11.9, 47.4 9.6 Z" fill="#62bd6a" opacity="0.5"/><line x1="50" y1="26.6" x2="50" y2="11.2" stroke="#144a2c" stroke-width="0.55" opacity="0.5"/><line x1="50" y1="21.0" x2="56.0" y2="18.1" stroke="#144a2c" stroke-width="0.4" opacity="0.4"/><line x1="50" y1="21.0" x2="44.0" y2="18.1" stroke="#144a2c" stroke-width="0.4" opacity="0.4"/><line x1="50" y1="15.8" x2="56.0" y2="12.9" stroke="#144a2c" stroke-width="0.4" opacity="0.4"/><line x1="50" y1="15.8" x2="44.0" y2="12.9" stroke="#144a2c" stroke-width="0.4" opacity="0.4"/></g>
<g transform="rotate(422.6 50 50)"><path d="M 50.0 3.5 C 63.3 6.0, 55.5 10.1, 61.1 13.7 C 66.2 16.7, 57.7 21.8, 50.0 29.0 C 42.3 21.8, 33.8 16.7, 38.9 13.7 C 44.5 10.1, 36.7 6.0, 50.0 3.5 Z" fill="#092e18" opacity="0.9"/><path d="M 50.0 4.9 C 60.2 7.2, 54.3 11.0, 58.5 14.2 C 62.5 17.0, 56.0 21.7, 50.0 28.2 C 44.0 21.7, 37.5 17.0, 41.5 14.2 C 45.7 11.0, 39.8 7.2, 50.0 4.9 Z" fill="url(#ft8_r0)"/><path d="M 47.4 7.2 C 51.6 9.9, 51.1 15.9, 47.4 19.3 C 43.8 15.9, 43.3 9.9, 47.4 7.2 Z" fill="#62bd6a" opacity="0.5"/><line x1="50" y1="26.3" x2="50" y2="9.1" stroke="#144a2c" stroke-width="0.55" opacity="0.5"/><line x1="50" y1="20.0" x2="56.0" y2="16.8" stroke="#144a2c" stroke-width="0.4" opacity="0.4"/><line x1="50" y1="20.0" x2="44.0" y2="16.8" stroke="#144a2c" stroke-width="0.4" opacity="0.4"/><line x1="50" y1="14.2" x2="56.0" y2="11.0" stroke="#144a2c" stroke-width="0.4" opacity="0.4"/><line x1="50" y1="14.2" x2="44.0" y2="11.0" stroke="#144a2c" stroke-width="0.4" opacity="0.4"/></g>
<g transform="rotate(449.0 50 50)"><path d="M 50.0 2.9 C 63.1 5.5, 55.5 9.6, 60.9 13.2 C 66.0 16.3, 57.6 21.5, 50.0 28.7 C 42.4 21.5, 34.0 16.3, 39.1 13.2 C 44.5 9.6, 36.9 5.5, 50.0 2.9 Z" fill="#092e18" opacity="0.9"/><path d="M 50.0 4.3 C 60.1 6.7, 54.2 10.4, 58.4 13.7 C 62.3 16.6, 55.9 21.3, 50.0 27.9 C 44.1 21.3, 37.7 16.6, 41.6 13.7 C 45.8 10.4, 39.9 6.7, 50.0 4.3 Z" fill="url(#ft8_r0)"/><path d="M 47.5 6.7 C 51.5 9.4, 51.1 15.5, 47.5 18.9 C 43.8 15.5, 43.4 9.4, 47.5 6.7 Z" fill="#62bd6a" opacity="0.5"/><line x1="50" y1="26.0" x2="50" y2="8.6" stroke="#144a2c" stroke-width="0.55" opacity="0.5"/><line x1="50" y1="19.6" x2="55.9" y2="16.3" stroke="#144a2c" stroke-width="0.4" opacity="0.4"/><line x1="50" y1="19.6" x2="44.1" y2="16.3" stroke="#144a2c" stroke-width="0.4" opacity="0.4"/><line x1="50" y1="13.7" x2="55.9" y2="10.4" stroke="#144a2c" stroke-width="0.4" opacity="0.4"/><line x1="50" y1="13.7" x2="44.1" y2="10.4" stroke="#144a2c" stroke-width="0.4" opacity="0.4"/></g>
<g transform="rotate(480.1 50 50)"><path d="M 50.0 5.5 C 63.4 7.9, 55.6 11.8, 61.1 15.1 C 66.3 18.0, 57.8 22.8, 50.0 29.5 C 42.2 22.8, 33.7 18.0, 38.9 15.1 C 44.4 11.8, 36.6 7.9, 50.0 5.5 Z" fill="#092e18" opacity="0.9"/><path d="M 50.0 6.9 C 60.3 9.1, 54.3 12.6, 58.6 15.6 C 62.6 18.2, 56.0 22.6, 50.0 28.7 C 44.0 22.6, 37.4 18.2, 41.4 15.6 C 45.7 12.6, 39.7 9.1, 50.0 6.9 Z" fill="url(#ft8_r0)"/><path d="M 47.4 9.1 C 51.6 11.6, 51.1 17.2, 47.4 20.4 C 43.7 17.2, 43.3 11.6, 47.4 9.1 Z" fill="#62bd6a" opacity="0.5"/><line x1="50" y1="27.0" x2="50" y2="10.8" stroke="#144a2c" stroke-width="0.55" opacity="0.5"/><line x1="50" y1="21.1" x2="56.0" y2="18.0" stroke="#144a2c" stroke-width="0.4" opacity="0.4"/><line x1="50" y1="21.1" x2="44.0" y2="18.0" stroke="#144a2c" stroke-width="0.4" opacity="0.4"/><line x1="50" y1="15.6" x2="56.0" y2="12.6" stroke="#144a2c" stroke-width="0.4" opacity="0.4"/><line x1="50" y1="15.6" x2="44.0" y2="12.6" stroke="#144a2c" stroke-width="0.4" opacity="0.4"/></g>
<g transform="rotate(507.9 50 50)"><path d="M 50.0 6.1 C 63.9 8.4, 55.8 12.2, 61.5 15.5 C 66.9 18.4, 58.1 23.1, 50.0 29.8 C 41.9 23.1, 33.1 18.4, 38.5 15.5 C 44.2 12.2, 36.1 8.4, 50.0 6.1 Z" fill="#092e18" opacity="0.9"/><path d="M 50.0 7.5 C 60.7 9.6, 54.4 13.1, 58.9 16.1 C 63.0 18.6, 56.2 22.9, 50.0 29.0 C 43.8 22.9, 37.0 18.6, 41.1 16.1 C 45.6 13.1, 39.3 9.6, 50.0 7.5 Z" fill="url(#ft8_r0)"/><path d="M 47.3 9.6 C 51.6 12.1, 51.2 17.7, 47.3 20.8 C 43.5 17.7, 43.0 12.1, 47.3 9.6 Z" fill="#62bd6a" opacity="0.5"/><line x1="50" y1="27.2" x2="50" y2="11.3" stroke="#144a2c" stroke-width="0.55" opacity="0.5"/><line x1="50" y1="21.4" x2="56.2" y2="18.4" stroke="#144a2c" stroke-width="0.4" opacity="0.4"/><line x1="50" y1="21.4" x2="43.8" y2="18.4" stroke="#144a2c" stroke-width="0.4" opacity="0.4"/><line x1="50" y1="16.1" x2="56.2" y2="13.1" stroke="#144a2c" stroke-width="0.4" opacity="0.4"/><line x1="50" y1="16.1" x2="43.8" y2="13.1" stroke="#144a2c" stroke-width="0.4" opacity="0.4"/></g>
<g transform="rotate(543.9 50 50)"><path d="M 50.0 7.6 C 64.3 9.8, 56.0 13.3, 61.9 16.4 C 67.5 19.1, 58.4 23.6, 50.0 29.8 C 41.6 23.6, 32.5 19.1, 38.1 16.4 C 44.0 13.3, 35.7 9.8, 50.0 7.6 Z" fill="#092e18" opacity="0.9"/><path d="M 50.0 9.0 C 61.0 11.0, 54.6 14.2, 59.2 17.0 C 63.5 19.4, 56.4 23.4, 50.0 29.0 C 43.6 23.4, 36.5 19.4, 40.8 17.0 C 45.4 14.2, 39.0 11.0, 50.0 9.0 Z" fill="url(#ft8_r0)"/><path d="M 47.2 11.0 C 51.7 13.3, 51.2 18.5, 47.2 21.4 C 43.3 18.5, 42.8 13.3, 47.2 11.0 Z" fill="#62bd6a" opacity="0.5"/><line x1="50" y1="27.4" x2="50" y2="12.6" stroke="#144a2c" stroke-width="0.55" opacity="0.5"/><line x1="50" y1="22.0" x2="56.4" y2="19.2" stroke="#144a2c" stroke-width="0.4" opacity="0.4"/><line x1="50" y1="22.0" x2="43.6" y2="19.2" stroke="#144a2c" stroke-width="0.4" opacity="0.4"/><line x1="50" y1="17.0" x2="56.4" y2="14.2" stroke="#144a2c" stroke-width="0.4" opacity="0.4"/><line x1="50" y1="17.0" x2="43.6" y2="14.2" stroke="#144a2c" stroke-width="0.4" opacity="0.4"/></g>
<g transform="rotate(568.6 50 50)"><path d="M 50.0 4.4 C 64.2 6.8, 55.9 10.7, 61.8 14.1 C 67.3 17.1, 58.3 21.9, 50.0 28.8 C 41.7 21.9, 32.7 17.1, 38.2 14.1 C 44.1 10.7, 35.8 6.8, 50.0 4.4 Z" fill="#092e18" opacity="0.9"/><path d="M 50.0 5.8 C 60.9 8.0, 54.5 11.5, 59.1 14.6 C 63.3 17.3, 56.4 21.8, 50.0 28.0 C 43.6 21.8, 36.7 17.3, 40.9 14.6 C 45.5 11.5, 39.1 8.0, 50.0 5.8 Z" fill="url(#ft8_r0)"/><path d="M 47.3 8.0 C 51.7 10.5, 51.2 16.3, 47.3 19.5 C 43.3 16.3, 42.9 10.5, 47.3 8.0 Z" fill="#62bd6a" opacity="0.5"/><line x1="50" y1="26.2" x2="50" y2="9.8" stroke="#144a2c" stroke-width="0.55" opacity="0.5"/><line x1="50" y1="20.2" x2="56.4" y2="17.1" stroke="#144a2c" stroke-width="0.4" opacity="0.4"/><line x1="50" y1="20.2" x2="43.6" y2="17.1" stroke="#144a2c" stroke-width="0.4" opacity="0.4"/><line x1="50" y1="14.6" x2="56.4" y2="11.5" stroke="#144a2c" stroke-width="0.4" opacity="0.4"/><line x1="50" y1="14.6" x2="43.6" y2="11.5" stroke="#144a2c" stroke-width="0.4" opacity="0.4"/></g>
<g transform="rotate(101.1 50 50)"><path d="M 50.0 18.0 C 61.5 20.2, 54.8 23.8, 59.6 27.0 C 64.1 29.7, 56.7 34.2, 50.0 40.6 C 43.3 34.2, 35.9 29.7, 40.4 27.0 C 45.2 23.8, 38.5 20.2, 50.0 18.0 Z" fill="#092e18" opacity="0.9"/><path d="M 50.0 19.4 C 58.9 21.4, 53.7 24.7, 57.4 27.5 C 60.8 30.0, 55.2 34.1, 50.0 39.8 C 44.8 34.1, 39.2 30.0, 42.6 27.5 C 46.3 24.7, 41.1 21.4, 50.0 19.4 Z" fill="url(#ft8_r1)"/><path d="M 47.8 21.4 C 51.4 23.7, 51.0 29.0, 47.8 32.0 C 44.6 29.0, 44.2 23.7, 47.8 21.4 Z" fill="#83d382" opacity="0.5"/><line x1="50" y1="38.1" x2="50" y2="23.0" stroke="#144a2c" stroke-width="0.55" opacity="0.5"/><line x1="50" y1="32.6" x2="55.2" y2="29.8" stroke="#144a2c" stroke-width="0.4" opacity="0.4"/><line x1="50" y1="32.6" x2="44.8" y2="29.8" stroke="#144a2c" stroke-width="0.4" opacity="0.4"/><line x1="50" y1="27.5" x2="55.2" y2="24.7" stroke="#144a2c" stroke-width="0.4" opacity="0.4"/><line x1="50" y1="27.5" x2="44.8" y2="24.7" stroke="#144a2c" stroke-width="0.4" opacity="0.4"/></g>
<g transform="rotate(140.8 50 50)"><path d="M 50.0 17.8 C 61.4 20.0, 54.8 23.6, 59.5 26.7 C 64.0 29.3, 56.7 33.8, 50.0 39.9 C 43.3 33.8, 36.0 29.3, 40.5 26.7 C 45.2 23.6, 38.6 20.0, 50.0 17.8 Z" fill="#092e18" opacity="0.9"/><path d="M 50.0 19.2 C 58.8 21.2, 53.7 24.4, 57.3 27.2 C 60.7 29.6, 55.1 33.6, 50.0 39.1 C 44.9 33.6, 39.3 29.6, 42.7 27.2 C 46.3 24.4, 41.2 21.2, 50.0 19.2 Z" fill="url(#ft8_r1)"/><path d="M 47.8 21.2 C 51.3 23.5, 51.0 28.7, 47.8 31.6 C 44.6 28.7, 44.3 23.5, 47.8 21.2 Z" fill="#83d382" opacity="0.5"/><line x1="50" y1="37.6" x2="50" y2="22.8" stroke="#144a2c" stroke-width="0.55" opacity="0.5"/><line x1="50" y1="32.2" x2="55.1" y2="29.4" stroke="#144a2c" stroke-width="0.4" opacity="0.4"/><line x1="50" y1="32.2" x2="44.9" y2="29.4" stroke="#144a2c" stroke-width="0.4" opacity="0.4"/><line x1="50" y1="27.2" x2="55.1" y2="24.4" stroke="#144a2c" stroke-width="0.4" opacity="0.4"/><line x1="50" y1="27.2" x2="44.9" y2="24.4" stroke="#144a2c" stroke-width="0.4" opacity="0.4"/></g>
<g transform="rotate(179.4 50 50)"><path d="M 50.0 21.3 C 61.8 23.2, 54.9 26.2, 59.9 28.9 C 64.5 31.1, 56.9 34.9, 50.0 40.2 C 43.1 34.9, 35.5 31.1, 40.1 28.9 C 45.1 26.2, 38.2 23.2, 50.0 21.3 Z" fill="#092e18" opacity="0.9"/><path d="M 50.0 22.7 C 59.1 24.4, 53.8 27.0, 57.6 29.4 C 61.1 31.4, 55.3 34.7, 50.0 39.4 C 44.7 34.7, 38.9 31.4, 42.4 29.4 C 46.2 27.0, 40.9 24.4, 50.0 22.7 Z" fill="url(#ft8_r1)"/><path d="M 47.7 24.4 C 51.4 26.3, 51.0 30.6, 47.7 33.1 C 44.4 30.6, 44.1 26.3, 47.7 24.4 Z" fill="#83d382" opacity="0.5"/><line x1="50" y1="38.1" x2="50" y2="25.7" stroke="#144a2c" stroke-width="0.55" opacity="0.5"/><line x1="50" y1="33.6" x2="55.3" y2="31.2" stroke="#144a2c" stroke-width="0.4" opacity="0.4"/><line x1="50" y1="33.6" x2="44.7" y2="31.2" stroke="#144a2c" stroke-width="0.4" opacity="0.4"/><line x1="50" y1="29.4" x2="55.3" y2="27.0" stroke="#144a2c" stroke-width="0.4" opacity="0.4"/><line x1="50" y1="29.4" x2="44.7" y2="27.0" stroke="#144a2c" stroke-width="0.4" opacity="0.4"/></g>
<g transform="rotate(217.1 50 50)"><path d="M 50.0 20.7 C 62.5 22.7, 55.2 25.9, 60.4 28.7 C 65.3 31.1, 57.3 35.1, 50.0 40.7 C 42.7 35.1, 34.7 31.1, 39.6 28.7 C 44.8 25.9, 37.5 22.7, 50.0 20.7 Z" fill="#092e18" opacity="0.9"/><path d="M 50.0 22.1 C 59.6 23.9, 54.0 26.8, 58.0 29.3 C 61.7 31.4, 55.6 35.0, 50.0 39.9 C 44.4 35.0, 38.3 31.4, 42.0 29.3 C 46.0 26.8, 40.4 23.9, 50.0 22.1 Z" fill="url(#ft8_r1)"/><path d="M 47.6 23.9 C 51.5 26.0, 51.1 30.6, 47.6 33.2 C 44.1 30.6, 43.7 26.0, 47.6 23.9 Z" fill="#83d382" opacity="0.5"/><line x1="50" y1="38.5" x2="50" y2="25.3" stroke="#144a2c" stroke-width="0.55" opacity="0.5"/><line x1="50" y1="33.7" x2="55.6" y2="31.2" stroke="#144a2c" stroke-width="0.4" opacity="0.4"/><line x1="50" y1="33.7" x2="44.4" y2="31.2" stroke="#144a2c" stroke-width="0.4" opacity="0.4"/><line x1="50" y1="29.3" x2="55.6" y2="26.8" stroke="#144a2c" stroke-width="0.4" opacity="0.4"/><line x1="50" y1="29.3" x2="44.4" y2="26.8" stroke="#144a2c" stroke-width="0.4" opacity="0.4"/></g>
<g transform="rotate(261.3 50 50)"><path d="M 50.0 18.3 C 61.4 20.5, 54.8 23.9, 59.5 27.0 C 64.0 29.6, 56.7 33.9, 50.0 40.0 C 43.3 33.9, 36.0 29.6, 40.5 27.0 C 45.2 23.9, 38.6 20.5, 50.0 18.3 Z" fill="#092e18" opacity="0.9"/><path d="M 50.0 19.7 C 58.8 21.6, 53.7 24.8, 57.3 27.5 C 60.8 29.8, 55.1 33.7, 50.0 39.2 C 44.9 33.7, 39.2 29.8, 42.7 27.5 C 46.3 24.8, 41.2 21.6, 50.0 19.7 Z" fill="url(#ft8_r1)"/><path d="M 47.8 21.6 C 51.3 23.9, 51.0 28.9, 47.8 31.8 C 44.6 28.9, 44.3 23.9, 47.8 21.6 Z" fill="#83d382" opacity="0.5"/><line x1="50" y1="37.7" x2="50" y2="23.2" stroke="#144a2c" stroke-width="0.55" opacity="0.5"/><line x1="50" y1="32.4" x2="55.1" y2="29.6" stroke="#144a2c" stroke-width="0.4" opacity="0.4"/><line x1="50" y1="32.4" x2="44.9" y2="29.6" stroke="#144a2c" stroke-width="0.4" opacity="0.4"/><line x1="50" y1="27.5" x2="55.1" y2="24.8" stroke="#144a2c" stroke-width="0.4" opacity="0.4"/><line x1="50" y1="27.5" x2="44.9" y2="24.8" stroke="#144a2c" stroke-width="0.4" opacity="0.4"/></g>
<g transform="rotate(297.0 50 50)"><path d="M 50.0 19.0 C 61.3 21.1, 54.7 24.5, 59.4 27.4 C 63.8 29.9, 56.6 34.1, 50.0 39.9 C 43.4 34.1, 36.2 29.9, 40.6 27.4 C 45.3 24.5, 38.7 21.1, 50.0 19.0 Z" fill="#092e18" opacity="0.9"/><path d="M 50.0 20.4 C 58.7 22.3, 53.6 25.3, 57.2 27.9 C 60.6 30.2, 55.1 33.9, 50.0 39.1 C 44.9 33.9, 39.4 30.2, 42.8 27.9 C 46.4 25.3, 41.3 22.3, 50.0 20.4 Z" fill="url(#ft8_r1)"/><path d="M 47.8 22.3 C 51.3 24.4, 51.0 29.3, 47.8 32.0 C 44.7 29.3, 44.3 24.4, 47.8 22.3 Z" fill="#83d382" opacity="0.5"/><line x1="50" y1="37.6" x2="50" y2="23.8" stroke="#144a2c" stroke-width="0.55" opacity="0.5"/><line x1="50" y1="32.6" x2="55.1" y2="30.0" stroke="#144a2c" stroke-width="0.4" opacity="0.4"/><line x1="50" y1="32.6" x2="44.9" y2="30.0" stroke="#144a2c" stroke-width="0.4" opacity="0.4"/><line x1="50" y1="27.9" x2="55.1" y2="25.3" stroke="#144a2c" stroke-width="0.4" opacity="0.4"/><line x1="50" y1="27.9" x2="44.9" y2="25.3" stroke="#144a2c" stroke-width="0.4" opacity="0.4"/></g>
<g transform="rotate(335.7 50 50)"><path d="M 50.0 20.0 C 61.4 22.1, 54.7 25.4, 59.5 28.4 C 63.9 30.9, 56.6 35.0, 50.0 40.8 C 43.4 35.0, 36.1 30.9, 40.5 28.4 C 45.3 25.4, 38.6 22.1, 50.0 20.0 Z" fill="#092e18" opacity="0.9"/><path d="M 50.0 21.4 C 58.7 23.3, 53.6 26.3, 57.3 28.9 C 60.7 31.1, 55.1 34.8, 50.0 40.0 C 44.9 34.8, 39.3 31.1, 42.7 28.9 C 46.4 26.3, 41.3 23.3, 50.0 21.4 Z" fill="url(#ft8_r1)"/><path d="M 47.8 23.3 C 51.3 25.4, 51.0 30.3, 47.8 33.0 C 44.7 30.3, 44.3 25.4, 47.8 23.3 Z" fill="#83d382" opacity="0.5"/><line x1="50" y1="38.6" x2="50" y2="24.8" stroke="#144a2c" stroke-width="0.55" opacity="0.5"/><line x1="50" y1="33.5" x2="55.1" y2="30.9" stroke="#144a2c" stroke-width="0.4" opacity="0.4"/><line x1="50" y1="33.5" x2="44.9" y2="30.9" stroke="#144a2c" stroke-width="0.4" opacity="0.4"/><line x1="50" y1="28.9" x2="55.1" y2="26.3" stroke="#144a2c" stroke-width="0.4" opacity="0.4"/><line x1="50" y1="28.9" x2="44.9" y2="26.3" stroke="#144a2c" stroke-width="0.4" opacity="0.4"/></g>
<g transform="rotate(382.3 50 50)"><path d="M 50.0 17.6 C 61.5 19.8, 54.8 23.4, 59.6 26.5 C 64.1 29.2, 56.7 33.7, 50.0 39.9 C 43.3 33.7, 35.9 29.2, 40.4 26.5 C 45.2 23.4, 38.5 19.8, 50.0 17.6 Z" fill="#092e18" opacity="0.9"/><path d="M 50.0 19.0 C 58.9 21.0, 53.7 24.2, 57.4 27.0 C 60.8 29.4, 55.2 33.5, 50.0 39.1 C 44.8 33.5, 39.2 29.4, 42.6 27.0 C 46.3 24.2, 41.1 21.0, 50.0 19.0 Z" fill="url(#ft8_r1)"/><path d="M 47.8 21.0 C 51.4 23.3, 51.0 28.5, 47.8 31.5 C 44.6 28.5, 44.2 23.3, 47.8 21.0 Z" fill="#83d382" opacity="0.5"/><line x1="50" y1="37.5" x2="50" y2="22.6" stroke="#144a2c" stroke-width="0.55" opacity="0.5"/><line x1="50" y1="32.1" x2="55.2" y2="29.2" stroke="#144a2c" stroke-width="0.4" opacity="0.4"/><line x1="50" y1="32.1" x2="44.8" y2="29.2" stroke="#144a2c" stroke-width="0.4" opacity="0.4"/><line x1="50" y1="27.0" x2="55.2" y2="24.2" stroke="#144a2c" stroke-width="0.4" opacity="0.4"/><line x1="50" y1="27.0" x2="44.8" y2="24.2" stroke="#144a2c" stroke-width="0.4" opacity="0.4"/></g>
<g transform="rotate(421.4 50 50)"><path d="M 50.0 18.9 C 62.3 21.0, 55.1 24.3, 60.2 27.2 C 65.0 29.7, 57.2 33.8, 50.0 39.6 C 42.8 33.8, 35.0 29.7, 39.8 27.2 C 44.9 24.3, 37.7 21.0, 50.0 18.9 Z" fill="#092e18" opacity="0.9"/><path d="M 50.0 20.3 C 59.4 22.2, 53.9 25.1, 57.9 27.7 C 61.5 29.9, 55.5 33.6, 50.0 38.8 C 44.5 33.6, 38.5 29.9, 42.1 27.7 C 46.1 25.1, 40.6 22.2, 50.0 20.3 Z" fill="url(#ft8_r1)"/><path d="M 47.6 22.2 C 51.4 24.3, 51.0 29.1, 47.6 31.8 C 44.2 29.1, 43.8 24.3, 47.6 22.2 Z" fill="#83d382" opacity="0.5"/><line x1="50" y1="37.3" x2="50" y2="23.7" stroke="#144a2c" stroke-width="0.55" opacity="0.5"/><line x1="50" y1="32.3" x2="55.5" y2="29.7" stroke="#144a2c" stroke-width="0.4" opacity="0.4"/><line x1="50" y1="32.3" x2="44.5" y2="29.7" stroke="#144a2c" stroke-width="0.4" opacity="0.4"/><line x1="50" y1="27.7" x2="55.5" y2="25.1" stroke="#144a2c" stroke-width="0.4" opacity="0.4"/><line x1="50" y1="27.7" x2="44.5" y2="25.1" stroke="#144a2c" stroke-width="0.4" opacity="0.4"/></g>
<g transform="rotate(238.4 50 50)"><path d="M 50.0 31.5 C 61.1 33.3, 54.6 36.2, 59.2 38.7 C 63.5 40.8, 56.5 44.4, 50.0 49.4 C 43.5 44.4, 36.5 40.8, 40.8 38.7 C 45.4 36.2, 38.9 33.3, 50.0 31.5 Z" fill="#092e18" opacity="0.9"/><path d="M 50.0 32.9 C 58.5 34.5, 53.6 37.0, 57.1 39.2 C 60.4 41.1, 55.0 44.2, 50.0 48.6 C 45.0 44.2, 39.6 41.1, 42.9 39.2 C 46.4 37.0, 41.5 34.5, 50.0 32.9 Z" fill="url(#ft8_r2)"/><path d="M 47.9 34.5 C 51.3 36.3, 50.9 40.4, 47.9 42.6 C 44.8 40.4, 44.4 36.3, 47.9 34.5 Z" fill="#a2e897" opacity="0.5"/><line x1="50" y1="47.3" x2="50" y2="35.7" stroke="#144a2c" stroke-width="0.55" opacity="0.5"/><line x1="50" y1="43.1" x2="55.0" y2="40.9" stroke="#144a2c" stroke-width="0.4" opacity="0.4"/><line x1="50" y1="43.1" x2="45.0" y2="40.9" stroke="#144a2c" stroke-width="0.4" opacity="0.4"/><line x1="50" y1="39.2" x2="55.0" y2="37.0" stroke="#144a2c" stroke-width="0.4" opacity="0.4"/><line x1="50" y1="39.2" x2="45.0" y2="37.0" stroke="#144a2c" stroke-width="0.4" opacity="0.4"/></g>
<g transform="rotate(290.8 50 50)"><path d="M 50.0 30.5 C 60.8 32.4, 54.5 35.3, 59.0 37.9 C 63.1 40.2, 56.3 43.9, 50.0 49.1 C 43.7 43.9, 36.9 40.2, 41.0 37.9 C 45.5 35.3, 39.2 32.4, 50.0 30.5 Z" fill="#092e18" opacity="0.9"/><path d="M 50.0 31.9 C 58.3 33.6, 53.4 36.2, 56.9 38.5 C 60.1 40.4, 54.8 43.7, 50.0 48.3 C 45.2 43.7, 39.9 40.4, 43.1 38.5 C 46.6 36.2, 41.7 33.6, 50.0 31.9 Z" fill="url(#ft8_r2)"/><path d="M 47.9 33.6 C 51.3 35.4, 50.9 39.7, 47.9 42.1 C 44.9 39.7, 44.6 35.4, 47.9 33.6 Z" fill="#a2e897" opacity="0.5"/><line x1="50" y1="47.0" x2="50" y2="34.9" stroke="#144a2c" stroke-width="0.55" opacity="0.5"/><line x1="50" y1="42.6" x2="54.8" y2="40.3" stroke="#144a2c" stroke-width="0.4" opacity="0.4"/><line x1="50" y1="42.6" x2="45.2" y2="40.3" stroke="#144a2c" stroke-width="0.4" opacity="0.4"/><line x1="50" y1="38.5" x2="54.8" y2="36.2" stroke="#144a2c" stroke-width="0.4" opacity="0.4"/><line x1="50" y1="38.5" x2="45.2" y2="36.2" stroke="#144a2c" stroke-width="0.4" opacity="0.4"/></g>
<g transform="rotate(342.1 50 50)"><path d="M 50.0 29.6 C 60.0 31.6, 54.2 34.7, 58.4 37.5 C 62.2 39.8, 55.8 43.7, 50.0 49.2 C 44.2 43.7, 37.8 39.8, 41.6 37.5 C 45.8 34.7, 40.0 31.6, 50.0 29.6 Z" fill="#092e18" opacity="0.9"/><path d="M 50.0 31.0 C 57.7 32.7, 53.2 35.5, 56.4 38.0 C 59.4 40.1, 54.5 43.6, 50.0 48.4 C 45.5 43.6, 40.6 40.1, 43.6 38.0 C 46.8 35.5, 42.3 32.7, 50.0 31.0 Z" fill="url(#ft8_r2)"/><path d="M 48.1 32.7 C 51.2 34.7, 50.9 39.3, 48.1 41.8 C 45.3 39.3, 45.0 34.7, 48.1 32.7 Z" fill="#a2e897" opacity="0.5"/><line x1="50" y1="47.1" x2="50" y2="34.1" stroke="#144a2c" stroke-width="0.55" opacity="0.5"/><line x1="50" y1="42.3" x2="54.5" y2="39.9" stroke="#144a2c" stroke-width="0.4" opacity="0.4"/><line x1="50" y1="42.3" x2="45.5" y2="39.9" stroke="#144a2c" stroke-width="0.4" opacity="0.4"/><line x1="50" y1="38.0" x2="54.5" y2="35.5" stroke="#144a2c" stroke-width="0.4" opacity="0.4"/><line x1="50" y1="38.0" x2="45.5" y2="35.5" stroke="#144a2c" stroke-width="0.4" opacity="0.4"/></g>
<g transform="rotate(389.8 50 50)"><path d="M 50.0 33.1 C 61.0 34.8, 54.6 37.6, 59.2 40.1 C 63.5 42.1, 56.4 45.6, 50.0 50.5 C 43.6 45.6, 36.5 42.1, 40.8 40.1 C 45.4 37.6, 39.0 34.8, 50.0 33.1 Z" fill="#092e18" opacity="0.9"/><path d="M 50.0 34.5 C 58.5 36.0, 53.5 38.4, 57.1 40.6 C 60.4 42.4, 55.0 45.4, 50.0 49.7 C 45.0 45.4, 39.6 42.4, 42.9 40.6 C 46.5 38.4, 41.5 36.0, 50.0 34.5 Z" fill="url(#ft8_r2)"/><path d="M 47.9 36.0 C 51.3 37.7, 50.9 41.7, 47.9 43.9 C 44.8 41.7, 44.5 37.7, 47.9 36.0 Z" fill="#a2e897" opacity="0.5"/><line x1="50" y1="48.5" x2="50" y2="37.2" stroke="#144a2c" stroke-width="0.55" opacity="0.5"/><line x1="50" y1="44.4" x2="55.0" y2="42.2" stroke="#144a2c" stroke-width="0.4" opacity="0.4"/><line x1="50" y1="44.4" x2="45.0" y2="42.2" stroke="#144a2c" stroke-width="0.4" opacity="0.4"/><line x1="50" y1="40.6" x2="55.0" y2="38.4" stroke="#144a2c" stroke-width="0.4" opacity="0.4"/><line x1="50" y1="40.6" x2="45.0" y2="38.4" stroke="#144a2c" stroke-width="0.4" opacity="0.4"/></g>
<g transform="rotate(441.1 50 50)"><path d="M 50.0 30.1 C 60.8 32.0, 54.5 35.0, 59.0 37.7 C 63.2 39.9, 56.3 43.7, 50.0 49.0 C 43.7 43.7, 36.8 39.9, 41.0 37.7 C 45.5 35.0, 39.2 32.0, 50.0 30.1 Z" fill="#092e18" opacity="0.9"/><path d="M 50.0 31.5 C 58.3 33.1, 53.5 35.8, 56.9 38.2 C 60.2 40.2, 54.9 43.5, 50.0 48.2 C 45.1 43.5, 39.8 40.2, 43.1 38.2 C 46.5 35.8, 41.7 33.1, 50.0 31.5 Z" fill="url(#ft8_r2)"/><path d="M 47.9 33.1 C 51.3 35.1, 50.9 39.4, 47.9 41.9 C 44.9 39.4, 44.6 35.1, 47.9 33.1 Z" fill="#a2e897" opacity="0.5"/><line x1="50" y1="46.9" x2="50" y2="34.5" stroke="#144a2c" stroke-width="0.55" opacity="0.5"/><line x1="50" y1="42.4" x2="54.9" y2="40.0" stroke="#144a2c" stroke-width="0.4" opacity="0.4"/><line x1="50" y1="42.4" x2="45.1" y2="40.0" stroke="#144a2c" stroke-width="0.4" opacity="0.4"/><line x1="50" y1="38.2" x2="54.9" y2="35.8" stroke="#144a2c" stroke-width="0.4" opacity="0.4"/><line x1="50" y1="38.2" x2="45.1" y2="35.8" stroke="#144a2c" stroke-width="0.4" opacity="0.4"/></g>
<g transform="rotate(492.9 50 50)"><path d="M 50.0 32.2 C 60.6 34.0, 54.4 36.8, 58.9 39.2 C 63.0 41.3, 56.2 44.8, 50.0 49.7 C 43.8 44.8, 37.0 41.3, 41.1 39.2 C 45.6 36.8, 39.4 34.0, 50.0 32.2 Z" fill="#092e18" opacity="0.9"/><path d="M 50.0 33.6 C 58.2 35.2, 53.4 37.6, 56.8 39.7 C 60.0 41.6, 54.8 44.6, 50.0 48.9 C 45.2 44.6, 40.0 41.6, 43.2 39.7 C 46.6 37.6, 41.8 35.2, 50.0 33.6 Z" fill="url(#ft8_r2)"/><path d="M 48.0 35.2 C 51.2 36.9, 50.9 40.9, 48.0 43.1 C 45.0 40.9, 44.7 36.9, 48.0 35.2 Z" fill="#a2e897" opacity="0.5"/><line x1="50" y1="47.7" x2="50" y2="36.4" stroke="#144a2c" stroke-width="0.55" opacity="0.5"/><line x1="50" y1="43.5" x2="54.8" y2="41.4" stroke="#144a2c" stroke-width="0.4" opacity="0.4"/><line x1="50" y1="43.5" x2="45.2" y2="41.4" stroke="#144a2c" stroke-width="0.4" opacity="0.4"/><line x1="50" y1="39.7" x2="54.8" y2="37.6" stroke="#144a2c" stroke-width="0.4" opacity="0.4"/><line x1="50" y1="39.7" x2="45.2" y2="37.6" stroke="#144a2c" stroke-width="0.4" opacity="0.4"/></g>
<g transform="rotate(545.5 50 50)"><path d="M 50.0 32.2 C 60.4 34.0, 54.4 36.9, 58.7 39.5 C 62.8 41.7, 56.1 45.4, 50.0 50.5 C 43.9 45.4, 37.2 41.7, 41.3 39.5 C 45.6 36.9, 39.6 34.0, 50.0 32.2 Z" fill="#092e18" opacity="0.9"/><path d="M 50.0 33.6 C 58.0 35.2, 53.3 37.8, 56.7 40.0 C 59.8 42.0, 54.7 45.2, 50.0 49.7 C 45.3 45.2, 40.2 42.0, 43.3 40.0 C 46.7 37.8, 42.0 35.2, 50.0 33.6 Z" fill="url(#ft8_r2)"/><path d="M 48.0 35.2 C 51.2 37.0, 50.9 41.2, 48.0 43.6 C 45.1 41.2, 44.8 37.0, 48.0 35.2 Z" fill="#a2e897" opacity="0.5"/><line x1="50" y1="48.4" x2="50" y2="36.5" stroke="#144a2c" stroke-width="0.55" opacity="0.5"/><line x1="50" y1="44.0" x2="54.7" y2="41.8" stroke="#144a2c" stroke-width="0.4" opacity="0.4"/><line x1="50" y1="44.0" x2="45.3" y2="41.8" stroke="#144a2c" stroke-width="0.4" opacity="0.4"/><line x1="50" y1="40.0" x2="54.7" y2="37.8" stroke="#144a2c" stroke-width="0.4" opacity="0.4"/><line x1="50" y1="40.0" x2="45.3" y2="37.8" stroke="#144a2c" stroke-width="0.4" opacity="0.4"/></g>
<g transform="rotate(89.5 50 50)"><path d="M 50.0 36.7 C 58.4 38.2, 53.5 40.4, 57.0 42.4 C 60.3 44.1, 54.9 47.0, 50.0 51.0 C 45.1 47.0, 39.7 44.1, 43.0 42.4 C 46.5 40.4, 41.6 38.2, 50.0 36.7 Z" fill="#092e18" opacity="0.9"/><path d="M 50.0 38.1 C 56.5 39.3, 52.7 41.3, 55.4 42.9 C 57.9 44.4, 53.8 46.8, 50.0 50.2 C 46.2 46.8, 42.1 44.4, 44.6 42.9 C 47.3 41.3, 43.5 39.3, 50.0 38.1 Z" fill="url(#ft8_r3)"/><path d="M 48.4 39.3 C 51.0 40.7, 50.7 43.8, 48.4 45.6 C 46.0 43.8, 45.8 40.7, 48.4 39.3 Z" fill="#c0feac" opacity="0.5"/><line x1="50" y1="49.2" x2="50" y2="40.3" stroke="#144a2c" stroke-width="0.55" opacity="0.5"/><line x1="50" y1="46.0" x2="53.8" y2="44.3" stroke="#144a2c" stroke-width="0.4" opacity="0.4"/><line x1="50" y1="46.0" x2="46.2" y2="44.3" stroke="#144a2c" stroke-width="0.4" opacity="0.4"/><line x1="50" y1="42.9" x2="53.8" y2="41.3" stroke="#144a2c" stroke-width="0.4" opacity="0.4"/><line x1="50" y1="42.9" x2="46.2" y2="41.3" stroke="#144a2c" stroke-width="0.4" opacity="0.4"/></g>
<g transform="rotate(181.4 50 50)"><path d="M 50.0 36.9 C 57.8 38.3, 53.2 40.6, 56.5 42.7 C 59.5 44.4, 54.5 47.3, 50.0 51.3 C 45.5 47.3, 40.5 44.4, 43.5 42.7 C 46.8 40.6, 42.2 38.3, 50.0 36.9 Z" fill="#092e18" opacity="0.9"/><path d="M 50.0 38.3 C 56.0 39.5, 52.5 41.5, 55.0 43.2 C 57.3 44.6, 53.5 47.1, 50.0 50.5 C 46.5 47.1, 42.7 44.6, 45.0 43.2 C 47.5 41.5, 44.0 39.5, 50.0 38.3 Z" fill="url(#ft8_r3)"/><path d="M 48.5 39.5 C 50.9 40.9, 50.7 44.1, 48.5 45.9 C 46.3 44.1, 46.1 40.9, 48.5 39.5 Z" fill="#c0feac" opacity="0.5"/><line x1="50" y1="49.5" x2="50" y2="40.5" stroke="#144a2c" stroke-width="0.55" opacity="0.5"/><line x1="50" y1="46.2" x2="53.5" y2="44.5" stroke="#144a2c" stroke-width="0.4" opacity="0.4"/><line x1="50" y1="46.2" x2="46.5" y2="44.5" stroke="#144a2c" stroke-width="0.4" opacity="0.4"/><line x1="50" y1="43.2" x2="53.5" y2="41.5" stroke="#144a2c" stroke-width="0.4" opacity="0.4"/><line x1="50" y1="43.2" x2="46.5" y2="41.5" stroke="#144a2c" stroke-width="0.4" opacity="0.4"/></g>
<g transform="rotate(269.7 50 50)"><path d="M 50.0 37.3 C 57.2 38.6, 53.0 40.6, 56.0 42.3 C 58.8 43.8, 54.2 46.4, 50.0 49.9 C 45.8 46.4, 41.2 43.8, 44.0 42.3 C 47.0 40.6, 42.8 38.6, 50.0 37.3 Z" fill="#092e18" opacity="0.9"/><path d="M 50.0 38.7 C 55.5 39.7, 52.3 41.4, 54.6 42.9 C 56.8 44.1, 53.2 46.2, 50.0 49.1 C 46.8 46.2, 43.2 44.1, 45.4 42.9 C 47.7 41.4, 44.5 39.7, 50.0 38.7 Z" fill="url(#ft8_r3)"/><path d="M 48.6 39.7 C 50.8 40.9, 50.6 43.6, 48.6 45.1 C 46.6 43.6, 46.4 40.9, 48.6 39.7 Z" fill="#c0feac" opacity="0.5"/><line x1="50" y1="48.3" x2="50" y2="40.6" stroke="#144a2c" stroke-width="0.55" opacity="0.5"/></g>
<g transform="rotate(357.8 50 50)"><path d="M 50.0 37.4 C 58.0 38.6, 53.3 40.7, 56.6 42.5 C 59.7 44.0, 54.6 46.5, 50.0 50.1 C 45.4 46.5, 40.3 44.0, 43.4 42.5 C 46.7 40.7, 42.0 38.6, 50.0 37.4 Z" fill="#092e18" opacity="0.9"/><path d="M 50.0 38.8 C 56.1 39.8, 52.5 41.5, 55.1 43.0 C 57.5 44.2, 53.6 46.3, 50.0 49.3 C 46.4 46.3, 42.5 44.2, 44.9 43.0 C 47.5 41.5, 43.9 39.8, 50.0 38.8 Z" fill="url(#ft8_r3)"/><path d="M 48.5 39.8 C 50.9 41.0, 50.7 43.8, 48.5 45.3 C 46.3 43.8, 46.0 41.0, 48.5 39.8 Z" fill="#c0feac" opacity="0.5"/><line x1="50" y1="48.4" x2="50" y2="40.7" stroke="#144a2c" stroke-width="0.55" opacity="0.5"/><line x1="50" y1="45.6" x2="53.6" y2="44.1" stroke="#144a2c" stroke-width="0.4" opacity="0.4"/><line x1="50" y1="45.6" x2="46.4" y2="44.1" stroke="#144a2c" stroke-width="0.4" opacity="0.4"/><line x1="50" y1="43.0" x2="53.6" y2="41.5" stroke="#144a2c" stroke-width="0.4" opacity="0.4"/><line x1="50" y1="43.0" x2="46.4" y2="41.5" stroke="#144a2c" stroke-width="0.4" opacity="0.4"/></g>
<circle cx="71.5" cy="46.7" r="4.0" fill="#3f0e04" opacity="0.5"/><circle cx="70.6" cy="46.8" r="3.2" fill="url(#ft8_fruit)"/><circle cx="69.4" cy="45.7" r="0.9" fill="#ffffff" opacity="0.85"/>
<circle cx="43.8" cy="66.2" r="4.3" fill="#3f0e04" opacity="0.5"/><circle cx="44.1" cy="65.4" r="3.4" fill="url(#ft8_fruit)"/><circle cx="42.9" cy="64.2" r="1.0" fill="#ffffff" opacity="0.85"/>
<circle cx="44.7" cy="68.8" r="4.4" fill="#3f0e04" opacity="0.5"/><circle cx="44.9" cy="67.9" r="3.5" fill="url(#ft8_fruit)"/><circle cx="43.7" cy="66.7" r="1.0" fill="#ffffff" opacity="0.85"/>
<circle cx="37.0" cy="34.0" r="4.7" fill="#3f0e04" opacity="0.5"/><circle cx="37.5" cy="34.7" r="3.7" fill="url(#ft8_fruit)"/><circle cx="36.2" cy="33.4" r="1.0" fill="#ffffff" opacity="0.85"/>
</svg>
