<svg xmlns="http://www.w3.org/2000/svg" viewBox="0 0 100 100">
  <!-- Garlic plant with narrow upright leaves - top-down view -->
  <defs>
    <radialGradient id="garlic_base" cx="50%" cy="50%" r="55%">
      <stop offset="0%" stop-color="#68a848"/>
      <stop offset="70%" stop-color="#589438"/>
      <stop offset="100%" stop-color="#488028"/>
    </radialGradient>
  </defs>
  <path d="M71 47 C66 55 68 55 67 62 C63 66 56 63 49 70 C48 63 38 61 37 61 C35 61 27 56 25 50 C29 47 33 40 39 40 C40 39 47 34 48 31 C53 33 56 37 65 39 C70 45 67 42 71 47 Z" fill="url(#garlic_base)" opacity="0.8"/>
  <ellipse cx="58" cy="51" rx="8" ry="8" fill="#58942e" opacity="0.54"/>
  <ellipse cx="53" cy="58" rx="9" ry="10" fill="#508c28" opacity="0.45"/>
  <ellipse cx="41" cy="50" rx="8" ry="8" fill="#58942e" opacity="0.55"/>
  <ellipse cx="47" cy="42" rx="13" ry="11" fill="#508c28" opacity="0.59"/>
  <ellipse cx="50" cy="26" rx="2.5" ry="18" fill="#70b848" opacity="0.6"/>
  <ellipse cx="44" cy="30" rx="2.5" ry="16" fill="#68b040" opacity="0.55" transform="rotate(-12 44 30)"/>
  <line x1="51" y1="54" x2="53" y2="58" stroke="#488028" stroke-width="0.8" opacity="0.3"/>
  <line x1="41" y1="63" x2="30" y2="65" stroke="#488028" stroke-width="0.8" opacity="0.3"/>
</svg>
