<svg xmlns="http://www.w3.org/2000/svg" viewBox="0 0 100 100">
  <!-- Hibiscus with large tropical flowers - top-down view -->
  <defs>
    <radialGradient id="hibiscus_base" cx="50%" cy="50%" r="55%">
      <stop offset="0%" stop-color="#3a7828"/>
      <stop offset="70%" stop-color="#2c6420"/>
      <stop offset="100%" stop-color="#205018"/>
    </radialGradient>
  </defs>
  <path d="M82 55 C78 64 79 65 73 70 C64 80 61 77 49 86 C45 78 39 71 34 68 C29 60 25 60 19 50 C26 39 24 32 29 20 C37 21 48 15 52 13 C62 14 72 21 78 26 C83 39 77 44 82 55 Z" fill="url(#hibiscus_base)" opacity="0.8"/>
  <ellipse cx="65" cy="44" rx="13" ry="9" fill="#58942e" opacity="0.55"/>
  <ellipse cx="53" cy="59" rx="9" ry="6" fill="#508c28" opacity="0.55"/>
  <ellipse cx="34" cy="54" rx="11" ry="9" fill="#58942e" opacity="0.52"/>
  <ellipse cx="56" cy="35" rx="9" ry="11" fill="#508c28" opacity="0.47"/>
  <ellipse cx="66" cy="50" rx="7" ry="16" fill="#e84050" opacity="0.75" transform="rotate(0 66 50)"/>
  <ellipse cx="55" cy="65" rx="7" ry="16" fill="#f05060" opacity="0.73" transform="rotate(72 55 65)"/>
  <ellipse cx="37" cy="59" rx="7" ry="16" fill="#e84050" opacity="0.71" transform="rotate(144 37 59)"/>
  <ellipse cx="37" cy="41" rx="7" ry="16" fill="#f05060" opacity="0.69" transform="rotate(216 37 41)"/>
  <ellipse cx="55" cy="35" rx="7" ry="16" fill="#e84050" opacity="0.67" transform="rotate(288 55 35)"/>
  <circle cx="50" cy="50" r="5" fill="#f0d030" opacity="0.9"/>
  <line x1="38" y1="35" x2="46" y2="36" stroke="#205018" stroke-width="0.8" opacity="0.3"/>
  <line x1="56" y1="40" x2="57" y2="23" stroke="#205018" stroke-width="0.8" opacity="0.3"/>
</svg>
