<svg xmlns="http://www.w3.org/2000/svg" viewBox="0 0 100 100">
<!-- holly — generated by scripts/generate_plant_sprites.py (do not hand-edit) -->
<defs><radialGradient id="h5_shadow" cx="50%" cy="50%" r="50%"><stop offset="0%" stop-color="#12300d" stop-opacity="0.28"/><stop offset="62%" stop-color="#12300d" stop-opacity="0.25"/><stop offset="100%" stop-color="#12300d" stop-opacity="0"/></radialGradient><linearGradient id="h5_r0" x1="0" y1="0" x2="0" y2="1"><stop offset="0%" stop-color="#3d8f45"/><stop offset="48%" stop-color="#2a6e39"/><stop offset="100%" stop-color="#12452a"/></linearGradient><linearGradient id="h5_r1" x1="0" y1="0" x2="0" y2="1"><stop offset="0%" stop-color="#4d9c50"/><stop offset="48%" stop-color="#357a41"/><stop offset="100%" stop-color="#18512f"/></linearGradient><linearGradient id="h5_r2" x1="0" y1="0" x2="0" y2="1"><stop offset="0%" stop-color="#5ea95a"/><stop offset="48%" stop-color="#418649"/><stop offset="100%" stop-color="#1e5c34"/></linearGradient><linearGradient id="h5_r3" x1="0" y1="0" x2="0" y2="1"><stop offset="0%" stop-color="#6eb665"/><stop offset="48%" stop-color="#4c9351"/><stop offset="100%" stop-color="#236838"/></linearGradient><linearGradient id="h5_r4" x1="0" y1="0" x2="0" y2="1"><stop offset="0%" stop-color="#7fc36f"/><stop offset="48%" stop-color="#589f58"/><stop offset="100%" stop-color="#29733d"/></linearGradient><linearGradient id="h5_r5" x1="0" y1="0" x2="0" y2="1"><stop offset="0%" stop-color="#8fd07a"/><stop offset="48%" stop-color="#64ac61"/><stop offset="100%" stop-color="#2f7f42"/></linearGradient><radialGradient id="h5_fruit" cx="38%" cy="35%" r="65%"><stop offset="0%" stop-color="#ff7a6e"/><stop offset="48%" stop-color="#d92c3a"/><stop offset="100%" stop-color="#8a0f1f"/></radialGradient></defs>
<circle cx="50" cy="50" r="41.0" fill="url(#h5_shadow)"/>
<circle cx="72.0" cy="50.0" r="13.3" fill="#12452a"/><circle cx="66.9" cy="64.2" r="13.3" fill="#12452a"/><circle cx="53.8" cy="71.7" r="13.3" fill="#12452a"/><circle cx="39.0" cy="69.1" r="13.3" fill="#12452a"/><circle cx="29.3" cy="57.5" r="13.3" fill="#12452a"/><circle cx="29.3" cy="42.5" r="13.3" fill="#12452a"/><circle cx="39.0" cy="30.9" r="13.3" fill="#12452a"/><circle cx="53.8" cy="28.3" r="13.3" fill="#12452a"/><circle cx="66.9" cy="35.8" r="13.3" fill="#12452a"/><circle cx="50" cy="50" r="24.0" fill="#206236"/>
<g transform="rotate(354.8 50 50)"><path d="M 50.0 13.4 C 58.3 14.7, 53.4 16.9, 56.9 18.7 C 60.1 20.3, 54.8 23.0, 50.0 26.7 C 45.2 23.0, 39.9 20.3, 43.1 18.7 C 46.6 16.9, 41.7 14.7, 50.0 13.4 Z" fill="#092e18" opacity="0.9"/><path d="M 50.0 14.8 C 56.3 15.9, 52.6 17.7, 55.3 19.2 C 57.8 20.6, 53.7 22.8, 50.0 25.9 C 46.3 22.8, 42.2 20.6, 44.7 19.2 C 47.4 17.7, 43.7 15.9, 50.0 14.8 Z" fill="url(#h5_r0)"/><path d="M 48.4 15.9 C 51.0 17.2, 50.7 20.1, 48.4 21.7 C 46.1 20.1, 45.9 17.2, 48.4 15.9 Z" fill="#62bd6a" opacity="0.5"/><line x1="50" y1="25.0" x2="50" y2="16.8" stroke="#144a2c" stroke-width="0.55" opacity="0.5"/><line x1="50" y1="22.0" x2="53.7" y2="20.5" stroke="#144a2c" stroke-width="0.4" opacity="0.4"/><line x1="50" y1="22.0" x2="46.3" y2="20.5" stroke="#144a2c" stroke-width="0.4" opacity="0.4"/><line x1="50" y1="19.2" x2="53.7" y2="17.7" stroke="#144a2c" stroke-width="0.4" opacity="0.4"/><line x1="50" y1="19.2" x2="46.3" y2="17.7" stroke="#144a2c" stroke-width="0.4" opacity="0.4"/></g>
<g transform="rotate(382.6 50 50)"><path d="M 50.0 12.7 C 58.7 14.1, 53.6 16.3, 57.3 18.3 C 60.7 20.0, 55.1 22.8, 50.0 26.7 C 44.9 22.8, 39.3 20.0, 42.7 18.3 C 46.4 16.3, 41.3 14.1, 50.0 12.7 Z" fill="#092e18" opacity="0.9"/><path d="M 50.0 14.1 C 56.7 15.3, 52.8 17.2, 55.6 18.8 C 58.2 20.2, 53.9 22.6, 50.0 25.9 C 46.1 22.6, 41.8 20.2, 44.4 18.8 C 47.2 17.2, 43.3 15.3, 50.0 14.1 Z" fill="url(#h5_r0)"/><path d="M 48.3 15.3 C 51.0 16.6, 50.7 19.7, 48.3 21.4 C 45.9 19.7, 45.6 16.6, 48.3 15.3 Z" fill="#62bd6a" opacity="0.5"/><line x1="50" y1="24.9" x2="50" y2="16.2" stroke="#144a2c" stroke-width="0.55" opacity="0.5"/><line x1="50" y1="21.7" x2="53.9" y2="20.1" stroke="#144a2c" stroke-width="0.4" opacity="0.4"/><line x1="50" y1="21.7" x2="46.1" y2="20.1" stroke="#144a2c" stroke-width="0.4" opacity="0.4"/><line x1="50" y1="18.8" x2="53.9" y2="17.2" stroke="#144a2c" stroke-width="0.4" opacity="0.4"/><line x1="50" y1="18.8" x2="46.1" y2="17.2" stroke="#144a2c" stroke-width="0.4" opacity="0.4"/></g>
<g transform="rotate(403.8 50 50)"><path d="M 50.0 11.6 C 58.2 13.1, 53.4 15.5, 56.8 17.6 C 60.0 19.3, 54.8 22.3, 50.0 26.5 C 45.2 22.3, 40.0 19.3, 43.2 17.6 C 46.6 15.5, 41.8 13.1, 50.0 11.6 Z" fill="#092e18" opacity="0.9"/><path d="M 50.0 13.0 C 56.3 14.3, 52.6 16.3, 55.2 18.1 C 57.7 19.6, 53.7 22.1, 50.0 25.7 C 46.3 22.1, 42.3 19.6, 44.8 18.1 C 47.4 16.3, 43.7 14.3, 50.0 13.0 Z" fill="url(#h5_r0)"/><path d="M 48.4 14.3 C 51.0 15.7, 50.7 19.0, 48.4 20.9 C 46.2 19.0, 45.9 15.7, 48.4 14.3 Z" fill="#62bd6a" opacity="0.5"/><line x1="50" y1="24.7" x2="50" y2="15.3" stroke="#144a2c" stroke-width="0.55" opacity="0.5"/><line x1="50" y1="21.3" x2="53.7" y2="19.5" stroke="#144a2c" stroke-width="0.4" opacity="0.4"/><line x1="50" y1="21.3" x2="46.3" y2="19.5" stroke="#144a2c" stroke-width="0.4" opacity="0.4"/><line x1="50" y1="18.1" x2="53.7" y2="16.3" stroke="#144a2c" stroke-width="0.4" opacity="0.4"/><line x1="50" y1="18.1" x2="46.3" y2="16.3" stroke="#144a2c" stroke-width="0.4" opacity="0.4"/></g>
<g transform="rotate(426.5 50 50)"><path d="M 50.0 12.4 C 57.6 13.8, 53.2 15.9, 56.4 17.8 C 59.3 19.5, 54.5 22.2, 50.0 26.0 C 45.5 22.2, 40.7 19.5, 43.6 17.8 C 46.8 15.9, 42.4 13.8, 50.0 12.4 Z" fill="#092e18" opacity="0.9"/><path d="M 50.0 13.8 C 55.9 14.9, 52.4 16.8, 54.9 18.4 C 57.2 19.7, 53.4 22.0, 50.0 25.2 C 46.6 22.0, 42.8 19.7, 45.1 18.4 C 47.6 16.8, 44.1 14.9, 50.0 13.8 Z" fill="url(#h5_r0)"/><path d="M 48.5 14.9 C 50.9 16.2, 50.7 19.2, 48.5 20.8 C 46.4 19.2, 46.2 16.2, 48.5 14.9 Z" fill="#62bd6a" opacity="0.5"/><line x1="50" y1="24.3" x2="50" y2="15.9" stroke="#144a2c" stroke-width="0.55" opacity="0.5"/><line x1="50" y1="21.2" x2="53.4" y2="19.6" stroke="#144a2c" stroke-width="0.4" opacity="0.4"/><line x1="50" y1="21.2" x2="46.6" y2="19.6" stroke="#144a2c" stroke-width="0.4" opacity="0.4"/><line x1="50" y1="18.4" x2="53.4" y2="16.8" stroke="#144a2c" stroke-width="0.4" opacity="0.4"/><line x1="50" y1="18.4" x2="46.6" y2="16.8" stroke="#144a2c" stroke-width="0.4" opacity="0.4"/></g>
<g transform="rotate(448.6 50 50)"><path d="M 50.0 11.5 C 57.5 12.9, 53.1 15.1, 56.2 17.1 C 59.2 18.7, 54.4 21.5, 50.0 25.4 C 45.6 21.5, 40.8 18.7, 43.8 17.1 C 46.9 15.1, 42.5 12.9, 50.0 11.5 Z" fill="#092e18" opacity="0.9"/><path d="M 50.0 12.9 C 55.8 14.1, 52.4 16.0, 54.8 17.6 C 57.0 19.0, 53.4 21.3, 50.0 24.6 C 46.6 21.3, 43.0 19.0, 45.2 17.6 C 47.6 16.0, 44.2 14.1, 50.0 12.9 Z" fill="url(#h5_r0)"/><path d="M 48.6 14.1 C 50.9 15.4, 50.6 18.5, 48.6 20.2 C 46.5 18.5, 46.2 15.4, 48.6 14.1 Z" fill="#62bd6a" opacity="0.5"/><line x1="50" y1="23.7" x2="50" y2="15.0" stroke="#144a2c" stroke-width="0.55" opacity="0.5"/><line x1="50" y1="20.5" x2="53.4" y2="18.9" stroke="#144a2c" stroke-width="0.4" opacity="0.4"/><line x1="50" y1="20.5" x2="46.6" y2="18.9" stroke="#144a2c" stroke-width="0.4" opacity="0.4"/><line x1="50" y1="17.6" x2="53.4" y2="16.0" stroke="#144a2c" stroke-width="0.4" opacity="0.4"/><line x1="50" y1="17.6" x2="46.6" y2="16.0" stroke="#144a2c" stroke-width="0.4" opacity="0.4"/></g>
<g transform="rotate(466.8 50 50)"><path d="M 50.0 11.8 C 57.9 13.3, 53.3 15.7, 56.6 17.8 C 59.7 19.6, 54.6 22.6, 50.0 26.8 C 45.4 22.6, 40.3 19.6, 43.4 17.8 C 46.7 15.7, 42.1 13.3, 50.0 11.8 Z" fill="#092e18" opacity="0.9"/><path d="M 50.0 13.2 C 56.1 14.5, 52.5 16.5, 55.1 18.3 C 57.5 19.8, 53.6 22.4, 50.0 26.0 C 46.4 22.4, 42.5 19.8, 44.9 18.3 C 47.5 16.5, 43.9 14.5, 50.0 13.2 Z" fill="url(#h5_r0)"/><path d="M 48.5 14.5 C 50.9 15.9, 50.7 19.3, 48.5 21.1 C 46.3 19.3, 46.0 15.9, 48.5 14.5 Z" fill="#62bd6a" opacity="0.5"/><line x1="50" y1="25.0" x2="50" y2="15.5" stroke="#144a2c" stroke-width="0.55" opacity="0.5"/><line x1="50" y1="21.5" x2="53.6" y2="19.7" stroke="#144a2c" stroke-width="0.4" opacity="0.4"/><line x1="50" y1="21.5" x2="46.4" y2="19.7" stroke="#144a2c" stroke-width="0.4" opacity="0.4"/><line x1="50" y1="18.3" x2="53.6" y2="16.5" stroke="#144a2c" stroke-width="0.4" opacity="0.4"/><line x1="50" y1="18.3" x2="46.4" y2="16.5" stroke="#144a2c" stroke-width="0.4" opacity="0.4"/></g>
<g transform="rotate(489.7 50 50)"><path d="M 50.0 12.7 C 58.5 14.1, 53.5 16.3, 57.1 18.2 C 60.3 19.9, 54.9 22.6, 50.0 26.4 C 45.1 22.6, 39.7 19.9, 42.9 18.2 C 46.5 16.3, 41.5 14.1, 50.0 12.7 Z" fill="#092e18" opacity="0.9"/><path d="M 50.0 14.1 C 56.5 15.3, 52.7 17.1, 55.4 18.7 C 58.0 20.1, 53.8 22.4, 50.0 25.6 C 46.2 22.4, 42.0 20.1, 44.6 18.7 C 47.3 17.1, 43.5 15.3, 50.0 14.1 Z" fill="url(#h5_r0)"/><path d="M 48.4 15.3 C 51.0 16.6, 50.7 19.6, 48.4 21.3 C 46.0 19.6, 45.8 16.6, 48.4 15.3 Z" fill="#62bd6a" opacity="0.5"/><line x1="50" y1="24.7" x2="50" y2="16.2" stroke="#144a2c" stroke-width="0.55" opacity="0.5"/><line x1="50" y1="21.6" x2="53.8" y2="20.0" stroke="#144a2c" stroke-width="0.4" opacity="0.4"/><line x1="50" y1="21.6" x2="46.2" y2="20.0" stroke="#144a2c" stroke-width="0.4" opacity="0.4"/><line x1="50" y1="18.7" x2="53.8" y2="17.1" stroke="#144a2c" stroke-width="0.4" opacity="0.4"/><line x1="50" y1="18.7" x2="46.2" y2="17.1" stroke="#144a2c" stroke-width="0.4" opacity="0.4"/></g>
<g transform="rotate(512.4 50 50)"><path d="M 50.0 11.9 C 58.3 13.2, 53.5 15.4, 56.9 17.3 C 60.2 18.9, 54.9 21.6, 50.0 25.4 C 45.1 21.6, 39.8 18.9, 43.1 17.3 C 46.5 15.4, 41.7 13.2, 50.0 11.9 Z" fill="#092e18" opacity="0.9"/><path d="M 50.0 13.3 C 56.4 14.4, 52.7 16.2, 55.3 17.8 C 57.8 19.2, 53.7 21.4, 50.0 24.6 C 46.3 21.4, 42.2 19.2, 44.7 17.8 C 47.3 16.2, 43.6 14.4, 50.0 13.3 Z" fill="url(#h5_r0)"/><path d="M 48.4 14.4 C 51.0 15.7, 50.7 18.6, 48.4 20.3 C 46.1 18.6, 45.8 15.7, 48.4 14.4 Z" fill="#62bd6a" opacity="0.5"/><line x1="50" y1="23.7" x2="50" y2="15.3" stroke="#144a2c" stroke-width="0.55" opacity="0.5"/><line x1="50" y1="20.6" x2="53.7" y2="19.0" stroke="#144a2c" stroke-width="0.4" opacity="0.4"/><line x1="50" y1="20.6" x2="46.3" y2="19.0" stroke="#144a2c" stroke-width="0.4" opacity="0.4"/><line x1="50" y1="17.8" x2="53.7" y2="16.2" stroke="#144a2c" stroke-width="0.4" opacity="0.4"/><line x1="50" y1="17.8" x2="46.3" y2="16.2" stroke="#144a2c" stroke-width="0.4" opacity="0.4"/></g>
<g transform="rotate(539.4 50 50)"><path d="M 50.0 11.4 C 57.6 12.9, 53.2 15.4, 56.4 17.6 C 59.3 19.4, 54.4 22.5, 50.0 26.8 C 45.6 22.5, 40.7 19.4, 43.6 17.6 C 46.8 15.4, 42.4 12.9, 50.0 11.4 Z" fill="#092e18" opacity="0.9"/><path d="M 50.0 12.8 C 55.9 14.1, 52.4 16.2, 54.9 18.1 C 57.2 19.7, 53.4 22.3, 50.0 26.0 C 46.6 22.3, 42.8 19.7, 45.1 18.1 C 47.6 16.2, 44.1 14.1, 50.0 12.8 Z" fill="url(#h5_r0)"/><path d="M 48.5 14.1 C 50.9 15.6, 50.7 19.1, 48.5 21.0 C 46.4 19.1, 46.2 15.6, 48.5 14.1 Z" fill="#62bd6a" opacity="0.5"/><line x1="50" y1="24.9" x2="50" y2="15.2" stroke="#144a2c" stroke-width="0.55" opacity="0.5"/><line x1="50" y1="21.4" x2="53.4" y2="19.5" stroke="#144a2c" stroke-width="0.4" opacity="0.4"/><line x1="50" y1="21.4" x2="46.6" y2="19.5" stroke="#144a2c" stroke-width="0.4" opacity="0.4"/><line x1="50" y1="18.1" x2="53.4" y2="16.2" stroke="#144a2c" stroke-width="0.4" opacity="0.4"/><line x1="50" y1="18.1" x2="46.6" y2="16.2" stroke="#144a2c" stroke-width="0.4" opacity="0.4"/></g>
<g transform="rotate(561.1 50 50)"><path d="M 50.0 11.1 C 58.7 12.6, 53.6 14.9, 57.2 16.9 C 60.6 18.6, 55.1 21.4, 50.0 25.4 C 44.9 21.4, 39.4 18.6, 42.8 16.9 C 46.4 14.9, 41.3 12.6, 50.0 11.1 Z" fill="#092e18" opacity="0.9"/><path d="M 50.0 12.5 C 56.7 13.8, 52.8 15.7, 55.6 17.4 C 58.2 18.8, 53.9 21.3, 50.0 24.6 C 46.1 21.3, 41.8 18.8, 44.4 17.4 C 47.2 15.7, 43.3 13.8, 50.0 12.5 Z" fill="url(#h5_r0)"/><path d="M 48.3 13.8 C 51.0 15.1, 50.7 18.3, 48.3 20.0 C 45.9 18.3, 45.6 15.1, 48.3 13.8 Z" fill="#62bd6a" opacity="0.5"/><line x1="50" y1="23.7" x2="50" y2="14.7" stroke="#144a2c" stroke-width="0.55" opacity="0.5"/><line x1="50" y1="20.4" x2="53.9" y2="18.7" stroke="#144a2c" stroke-width="0.4" opacity="0.4"/><line x1="50" y1="20.4" x2="46.1" y2="18.7" stroke="#144a2c" stroke-width="0.4" opacity="0.4"/><line x1="50" y1="17.4" x2="53.9" y2="15.7" stroke="#144a2c" stroke-width="0.4" opacity="0.4"/><line x1="50" y1="17.4" x2="46.1" y2="15.7" stroke="#144a2c" stroke-width="0.4" opacity="0.4"/></g>
<g transform="rotate(583.7 50 50)"><path d="M 50.0 11.9 C 58.1 13.3, 53.4 15.5, 56.8 17.4 C 59.9 19.1, 54.7 21.8, 50.0 25.7 C 45.3 21.8, 40.1 19.1, 43.2 17.4 C 46.6 15.5, 41.9 13.3, 50.0 11.9 Z" fill="#092e18" opacity="0.9"/><path d="M 50.0 13.3 C 56.2 14.4, 52.6 16.3, 55.2 17.9 C 57.6 19.3, 53.6 21.6, 50.0 24.9 C 46.4 21.6, 42.4 19.3, 44.8 17.9 C 47.4 16.3, 43.8 14.4, 50.0 13.3 Z" fill="url(#h5_r0)"/><path d="M 48.4 14.4 C 51.0 15.8, 50.7 18.8, 48.4 20.5 C 46.2 18.8, 45.9 15.8, 48.4 14.4 Z" fill="#62bd6a" opacity="0.5"/><line x1="50" y1="24.0" x2="50" y2="15.4" stroke="#144a2c" stroke-width="0.55" opacity="0.5"/><line x1="50" y1="20.8" x2="53.6" y2="19.2" stroke="#144a2c" stroke-width="0.4" opacity="0.4"/><line x1="50" y1="20.8" x2="46.4" y2="19.2" stroke="#144a2c" stroke-width="0.4" opacity="0.4"/><line x1="50" y1="17.9" x2="53.6" y2="16.3" stroke="#144a2c" stroke-width="0.4" opacity="0.4"/><line x1="50" y1="17.9" x2="46.4" y2="16.3" stroke="#144a2c" stroke-width="0.4" opacity="0.4"/></g>
<g transform="rotate(602.0 50 50)"><path d="M 50.0 11.1 C 58.6 12.5, 53.6 14.9, 57.2 17.0 C 60.5 18.8, 55.0 21.8, 50.0 26.0 C 45.0 21.8, 39.5 18.8, 42.8 17.0 C 46.4 14.9, 41.4 12.5, 50.0 11.1 Z" fill="#092e18" opacity="0.9"/><path d="M 50.0 12.5 C 56.6 13.7, 52.8 15.8, 55.5 17.5 C 58.1 19.1, 53.9 21.6, 50.0 25.2 C 46.1 21.6, 41.9 19.1, 44.5 17.5 C 47.2 15.8, 43.4 13.7, 50.0 12.5 Z" fill="url(#h5_r0)"/><path d="M 48.3 13.7 C 51.0 15.2, 50.7 18.5, 48.3 20.3 C 45.9 18.5, 45.7 15.2, 48.3 13.7 Z" fill="#62bd6a" opacity="0.5"/><line x1="50" y1="24.2" x2="50" y2="14.7" stroke="#144a2c" stroke-width="0.55" opacity="0.5"/><line x1="50" y1="20.7" x2="53.9" y2="18.9" stroke="#144a2c" stroke-width="0.4" opacity="0.4"/><line x1="50" y1="20.7" x2="46.1" y2="18.9" stroke="#144a2c" stroke-width="0.4" opacity="0.4"/><line x1="50" y1="17.5" x2="53.9" y2="15.8" stroke="#144a2c" stroke-width="0.4" opacity="0.4"/><line x1="50" y1="17.5" x2="46.1" y2="15.8" stroke="#144a2c" stroke-width="0.4" opacity="0.4"/></g>
<g transform="rotate(628.5 50 50)"><path d="M 50.0 11.9 C 58.2 13.3, 53.4 15.6, 56.8 17.6 C 60.0 19.4, 54.8 22.2, 50.0 26.2 C 45.2 22.2, 40.0 19.4, 43.2 17.6 C 46.6 15.6, 41.8 13.3, 50.0 11.9 Z" fill="#092e18" opacity="0.9"/><path d="M 50.0 13.3 C 56.3 14.5, 52.6 16.5, 55.2 18.2 C 57.7 19.6, 53.7 22.0, 50.0 25.4 C 46.3 22.0, 42.3 19.6, 44.8 18.2 C 47.4 16.5, 43.7 14.5, 50.0 13.3 Z" fill="url(#h5_r0)"/><path d="M 48.4 14.5 C 51.0 15.9, 50.7 19.1, 48.4 20.8 C 46.2 19.1, 45.9 15.9, 48.4 14.5 Z" fill="#62bd6a" opacity="0.5"/><line x1="50" y1="24.5" x2="50" y2="15.5" stroke="#144a2c" stroke-width="0.55" opacity="0.5"/><line x1="50" y1="21.2" x2="53.7" y2="19.5" stroke="#144a2c" stroke-width="0.4" opacity="0.4"/><line x1="50" y1="21.2" x2="46.3" y2="19.5" stroke="#144a2c" stroke-width="0.4" opacity="0.4"/><line x1="50" y1="18.2" x2="53.7" y2="16.5" stroke="#144a2c" stroke-width="0.4" opacity="0.4"/><line x1="50" y1="18.2" x2="46.3" y2="16.5" stroke="#144a2c" stroke-width="0.4" opacity="0.4"/></g>
<g transform="rotate(648.1 50 50)"><path d="M 50.0 10.8 C 58.7 12.2, 53.6 14.6, 57.3 16.6 C 60.6 18.3, 55.1 21.2, 50.0 25.3 C 44.9 21.2, 39.4 18.3, 42.7 16.6 C 46.4 14.6, 41.3 12.2, 50.0 10.8 Z" fill="#092e18" opacity="0.9"/><path d="M 50.0 12.2 C 56.7 13.4, 52.8 15.4, 55.6 17.1 C 58.2 18.6, 53.9 21.0, 50.0 24.5 C 46.1 21.0, 41.8 18.6, 44.4 17.1 C 47.2 15.4, 43.3 13.4, 50.0 12.2 Z" fill="url(#h5_r0)"/><path d="M 48.3 13.4 C 51.0 14.8, 50.7 18.0, 48.3 19.8 C 45.9 18.0, 45.6 14.8, 48.3 13.4 Z" fill="#62bd6a" opacity="0.5"/><line x1="50" y1="23.5" x2="50" y2="14.4" stroke="#144a2c" stroke-width="0.55" opacity="0.5"/><line x1="50" y1="20.2" x2="53.9" y2="18.5" stroke="#144a2c" stroke-width="0.4" opacity="0.4"/><line x1="50" y1="20.2" x2="46.1" y2="18.5" stroke="#144a2c" stroke-width="0.4" opacity="0.4"/><line x1="50" y1="17.1" x2="53.9" y2="15.4" stroke="#144a2c" stroke-width="0.4" opacity="0.4"/><line x1="50" y1="17.1" x2="46.1" y2="15.4" stroke="#144a2c" stroke-width="0.4" opacity="0.4"/></g>
<g transform="rotate(674.3 50 50)"><path d="M 50.0 12.2 C 58.0 13.7, 53.3 16.0, 56.7 18.0 C 59.8 19.8, 54.7 22.7, 50.0 26.7 C 45.3 22.7, 40.2 19.8, 43.3 18.0 C 46.7 16.0, 42.0 13.7, 50.0 12.2 Z" fill="#092e18" opacity="0.9"/><path d="M 50.0 13.6 C 56.2 14.9, 52.6 16.8, 55.1 18.6 C 57.5 20.0, 53.6 22.5, 50.0 25.9 C 46.4 22.5, 42.5 20.0, 44.9 18.6 C 47.4 16.8, 43.8 14.9, 50.0 13.6 Z" fill="url(#h5_r0)"/><path d="M 48.5 14.9 C 50.9 16.3, 50.7 19.5, 48.5 21.3 C 46.2 19.5, 46.0 16.3, 48.5 14.9 Z" fill="#62bd6a" opacity="0.5"/><line x1="50" y1="24.9" x2="50" y2="15.9" stroke="#144a2c" stroke-width="0.55" opacity="0.5"/><line x1="50" y1="21.6" x2="53.6" y2="19.9" stroke="#144a2c" stroke-width="0.4" opacity="0.4"/><line x1="50" y1="21.6" x2="46.4" y2="19.9" stroke="#144a2c" stroke-width="0.4" opacity="0.4"/><line x1="50" y1="18.6" x2="53.6" y2="16.8" stroke="#144a2c" stroke-width="0.4" opacity="0.4"/><line x1="50" y1="18.6" x2="46.4" y2="16.8" stroke="#144a2c" stroke-width="0.4" opacity="0.4"/></g>
<g transform="rotate(694.1 50 50)"><path d="M 50.0 10.5 C 58.2 12.0, 53.4 14.3, 56.8 16.3 C 60.0 18.1, 54.8 21.0, 50.0 25.1 C 45.2 21.0, 40.0 18.1, 43.2 16.3 C 46.6 14.3, 41.8 12.0, 50.0 10.5 Z" fill="#092e18" opacity="0.9"/><path d="M 50.0 11.9 C 56.3 13.1, 52.6 15.1, 55.3 16.9 C 57.7 18.4, 53.7 20.8, 50.0 24.3 C 46.3 20.8, 42.3 18.4, 44.7 16.9 C 47.4 15.1, 43.7 13.1, 50.0 11.9 Z" fill="url(#h5_r0)"/><path d="M 48.4 13.1 C 51.0 14.6, 50.7 17.8, 48.4 19.6 C 46.1 17.8, 45.9 14.6, 48.4 13.1 Z" fill="#62bd6a" opacity="0.5"/><line x1="50" y1="23.3" x2="50" y2="14.1" stroke="#144a2c" stroke-width="0.55" opacity="0.5"/><line x1="50" y1="20.0" x2="53.7" y2="18.2" stroke="#144a2c" stroke-width="0.4" opacity="0.4"/><line x1="50" y1="20.0" x2="46.3" y2="18.2" stroke="#144a2c" stroke-width="0.4" opacity="0.4"/><line x1="50" y1="16.9" x2="53.7" y2="15.1" stroke="#144a2c" stroke-width="0.4" opacity="0.4"/><line x1="50" y1="16.9" x2="46.3" y2="15.1" stroke="#144a2c" stroke-width="0.4" opacity="0.4"/></g>
<g transform="rotate(26.1 50 50)"><path d="M 50.0 20.1 C 57.4 21.4, 53.1 23.4, 56.2 25.3 C 59.1 26.8, 54.3 29.4, 50.0 33.1 C 45.7 29.4, 40.9 26.8, 43.8 25.3 C 46.9 23.4, 42.6 21.4, 50.0 20.1 Z" fill="#092e18" opacity="0.9"/><path d="M 50.0 21.5 C 55.7 22.5, 52.4 24.3, 54.7 25.8 C 57.0 27.1, 53.3 29.2, 50.0 32.3 C 46.7 29.2, 43.0 27.1, 45.3 25.8 C 47.6 24.3, 44.3 22.5, 50.0 21.5 Z" fill="url(#h5_r1)"/><path d="M 48.6 22.5 C 50.9 23.8, 50.6 26.6, 48.6 28.2 C 46.5 26.6, 46.3 23.8, 48.6 22.5 Z" fill="#76ca79" opacity="0.5"/><line x1="50" y1="31.4" x2="50" y2="23.4" stroke="#144a2c" stroke-width="0.55" opacity="0.5"/></g>
<g transform="rotate(57.1 50 50)"><path d="M 50.0 20.4 C 56.8 21.6, 52.8 23.7, 55.6 25.5 C 58.3 27.0, 53.9 29.6, 50.0 33.2 C 46.1 29.6, 41.7 27.0, 44.4 25.5 C 47.2 23.7, 43.2 21.6, 50.0 20.4 Z" fill="#092e18" opacity="0.9"/><path d="M 50.0 21.8 C 55.2 22.8, 52.2 24.5, 54.3 26.0 C 56.4 27.3, 53.0 29.4, 50.0 32.4 C 47.0 29.4, 43.6 27.3, 45.7 26.0 C 47.8 24.5, 44.8 22.8, 50.0 21.8 Z" fill="url(#h5_r1)"/><path d="M 48.7 22.8 C 50.8 24.0, 50.6 26.8, 48.7 28.4 C 46.8 26.8, 46.6 24.0, 48.7 22.8 Z" fill="#76ca79" opacity="0.5"/><line x1="50" y1="31.5" x2="50" y2="23.7" stroke="#144a2c" stroke-width="0.55" opacity="0.5"/></g>
<g transform="rotate(82.9 50 50)"><path d="M 50.0 19.7 C 57.5 21.0, 53.1 23.1, 56.3 24.9 C 59.2 26.4, 54.4 28.9, 50.0 32.5 C 45.6 28.9, 40.8 26.4, 43.7 24.9 C 46.9 23.1, 42.5 21.0, 50.0 19.7 Z" fill="#092e18" opacity="0.9"/><path d="M 50.0 21.1 C 55.8 22.2, 52.4 23.9, 54.8 25.4 C 57.1 26.6, 53.4 28.8, 50.0 31.7 C 46.6 28.8, 42.9 26.6, 45.2 25.4 C 47.6 23.9, 44.2 22.2, 50.0 21.1 Z" fill="url(#h5_r1)"/><path d="M 48.5 22.2 C 50.9 23.4, 50.6 26.2, 48.5 27.7 C 46.5 26.2, 46.2 23.4, 48.5 22.2 Z" fill="#76ca79" opacity="0.5"/><line x1="50" y1="30.9" x2="50" y2="23.0" stroke="#144a2c" stroke-width="0.55" opacity="0.5"/><line x1="50" y1="28.0" x2="53.4" y2="26.5" stroke="#144a2c" stroke-width="0.4" opacity="0.4"/><line x1="50" y1="28.0" x2="46.6" y2="26.5" stroke="#144a2c" stroke-width="0.4" opacity="0.4"/><line x1="50" y1="25.4" x2="53.4" y2="23.9" stroke="#144a2c" stroke-width="0.4" opacity="0.4"/><line x1="50" y1="25.4" x2="46.6" y2="23.9" stroke="#144a2c" stroke-width="0.4" opacity="0.4"/></g>
<g transform="rotate(112.5 50 50)"><path d="M 50.0 19.3 C 57.9 20.6, 53.3 22.7, 56.5 24.5 C 59.6 26.0, 54.6 28.6, 50.0 32.2 C 45.4 28.6, 40.4 26.0, 43.5 24.5 C 46.7 22.7, 42.1 20.6, 50.0 19.3 Z" fill="#092e18" opacity="0.9"/><path d="M 50.0 20.7 C 56.0 21.8, 52.5 23.5, 55.0 25.0 C 57.4 26.3, 53.5 28.4, 50.0 31.4 C 46.5 28.4, 42.6 26.3, 45.0 25.0 C 47.5 23.5, 44.0 21.8, 50.0 20.7 Z" fill="url(#h5_r1)"/><path d="M 48.5 21.8 C 50.9 23.0, 50.7 25.8, 48.5 27.4 C 46.3 25.8, 46.1 23.0, 48.5 21.8 Z" fill="#76ca79" opacity="0.5"/><line x1="50" y1="30.6" x2="50" y2="22.7" stroke="#144a2c" stroke-width="0.55" opacity="0.5"/><line x1="50" y1="27.7" x2="53.5" y2="26.2" stroke="#144a2c" stroke-width="0.4" opacity="0.4"/><line x1="50" y1="27.7" x2="46.5" y2="26.2" stroke="#144a2c" stroke-width="0.4" opacity="0.4"/><line x1="50" y1="25.0" x2="53.5" y2="23.5" stroke="#144a2c" stroke-width="0.4" opacity="0.4"/><line x1="50" y1="25.0" x2="46.5" y2="23.5" stroke="#144a2c" stroke-width="0.4" opacity="0.4"/></g>
<g transform="rotate(146.9 50 50)"><path d="M 50.0 19.1 C 57.5 20.5, 53.1 22.7, 56.2 24.6 C 59.2 26.3, 54.4 29.0, 50.0 32.9 C 45.6 29.0, 40.8 26.3, 43.8 24.6 C 46.9 22.7, 42.5 20.5, 50.0 19.1 Z" fill="#092e18" opacity="0.9"/><path d="M 50.0 20.5 C 55.8 21.6, 52.4 23.5, 54.8 25.1 C 57.0 26.5, 53.4 28.9, 50.0 32.1 C 46.6 28.9, 43.0 26.5, 45.2 25.1 C 47.6 23.5, 44.2 21.6, 50.0 20.5 Z" fill="url(#h5_r1)"/><path d="M 48.6 21.6 C 50.9 23.0, 50.6 26.0, 48.6 27.7 C 46.5 26.0, 46.2 23.0, 48.6 21.6 Z" fill="#76ca79" opacity="0.5"/><line x1="50" y1="31.2" x2="50" y2="22.6" stroke="#144a2c" stroke-width="0.55" opacity="0.5"/><line x1="50" y1="28.0" x2="53.4" y2="26.4" stroke="#144a2c" stroke-width="0.4" opacity="0.4"/><line x1="50" y1="28.0" x2="46.6" y2="26.4" stroke="#144a2c" stroke-width="0.4" opacity="0.4"/><line x1="50" y1="25.1" x2="53.4" y2="23.5" stroke="#144a2c" stroke-width="0.4" opacity="0.4"/><line x1="50" y1="25.1" x2="46.6" y2="23.5" stroke="#144a2c" stroke-width="0.4" opacity="0.4"/></g>
<g transform="rotate(174.6 50 50)"><path d="M 50.0 21.0 C 57.4 22.2, 53.1 24.1, 56.1 25.8 C 59.0 27.2, 54.3 29.5, 50.0 32.9 C 45.7 29.5, 41.0 27.2, 43.9 25.8 C 46.9 24.1, 42.6 22.2, 50.0 21.0 Z" fill="#092e18" opacity="0.9"/><path d="M 50.0 22.4 C 55.7 23.4, 52.4 24.9, 54.7 26.3 C 56.9 27.4, 53.3 29.4, 50.0 32.1 C 46.7 29.4, 43.1 27.4, 45.3 26.3 C 47.6 24.9, 44.3 23.4, 50.0 22.4 Z" fill="url(#h5_r1)"/><path d="M 48.6 23.4 C 50.9 24.5, 50.6 27.0, 48.6 28.4 C 46.5 27.0, 46.3 24.5, 48.6 23.4 Z" fill="#76ca79" opacity="0.5"/><line x1="50" y1="31.3" x2="50" y2="24.1" stroke="#144a2c" stroke-width="0.55" opacity="0.5"/></g>
<g transform="rotate(208.5 50 50)"><path d="M 50.0 20.8 C 57.3 22.0, 53.0 24.0, 56.1 25.8 C 58.9 27.3, 54.3 29.8, 50.0 33.3 C 45.7 29.8, 41.1 27.3, 43.9 25.8 C 47.0 24.0, 42.7 22.0, 50.0 20.8 Z" fill="#092e18" opacity="0.9"/><path d="M 50.0 22.2 C 55.6 23.2, 52.3 24.9, 54.7 26.3 C 56.9 27.5, 53.3 29.6, 50.0 32.5 C 46.7 29.6, 43.1 27.5, 45.3 26.3 C 47.7 24.9, 44.4 23.2, 50.0 22.2 Z" fill="url(#h5_r1)"/><path d="M 48.6 23.2 C 50.9 24.4, 50.6 27.1, 48.6 28.6 C 46.6 27.1, 46.3 24.4, 48.6 23.2 Z" fill="#76ca79" opacity="0.5"/><line x1="50" y1="31.7" x2="50" y2="24.0" stroke="#144a2c" stroke-width="0.55" opacity="0.5"/></g>
<g transform="rotate(234.7 50 50)"><path d="M 50.0 19.2 C 57.0 20.4, 52.9 22.4, 55.8 24.1 C 58.5 25.6, 54.1 28.0, 50.0 31.5 C 45.9 28.0, 41.5 25.6, 44.2 24.1 C 47.1 22.4, 43.0 20.4, 50.0 19.2 Z" fill="#092e18" opacity="0.9"/><path d="M 50.0 20.6 C 55.4 21.6, 52.2 23.2, 54.5 24.6 C 56.6 25.8, 53.1 27.8, 50.0 30.7 C 46.9 27.8, 43.4 25.8, 45.5 24.6 C 47.8 23.2, 44.6 21.6, 50.0 20.6 Z" fill="url(#h5_r1)"/><path d="M 48.7 21.6 C 50.8 22.7, 50.6 25.4, 48.7 26.8 C 46.7 25.4, 46.5 22.7, 48.7 21.6 Z" fill="#76ca79" opacity="0.5"/><line x1="50" y1="29.9" x2="50" y2="22.4" stroke="#144a2c" stroke-width="0.55" opacity="0.5"/></g>
<g transform="rotate(268.6 50 50)"><path d="M 50.0 18.3 C 57.1 19.7, 53.0 21.9, 55.9 23.9 C 58.7 25.5, 54.1 28.3, 50.0 32.1 C 45.9 28.3, 41.3 25.5, 44.1 23.9 C 47.0 21.9, 42.9 19.7, 50.0 18.3 Z" fill="#092e18" opacity="0.9"/><path d="M 50.0 19.7 C 55.5 20.9, 52.3 22.8, 54.5 24.4 C 56.7 25.8, 53.2 28.1, 50.0 31.3 C 46.8 28.1, 43.3 25.8, 45.5 24.4 C 47.7 22.8, 44.5 20.9, 50.0 19.7 Z" fill="url(#h5_r1)"/><path d="M 48.6 20.9 C 50.8 22.2, 50.6 25.2, 48.6 26.9 C 46.7 25.2, 46.4 22.2, 48.6 20.9 Z" fill="#76ca79" opacity="0.5"/><line x1="50" y1="30.4" x2="50" y2="21.8" stroke="#144a2c" stroke-width="0.55" opacity="0.5"/></g>
<g transform="rotate(298.0 50 50)"><path d="M 50.0 20.4 C 57.7 21.6, 53.2 23.5, 56.4 25.1 C 59.5 26.5, 54.5 28.9, 50.0 32.2 C 45.5 28.9, 40.5 26.5, 43.6 25.1 C 46.8 23.5, 42.3 21.6, 50.0 20.4 Z" fill="#092e18" opacity="0.9"/><path d="M 50.0 21.8 C 56.0 22.8, 52.5 24.3, 55.0 25.7 C 57.3 26.8, 53.5 28.7, 50.0 31.4 C 46.5 28.7, 42.7 26.8, 45.0 25.7 C 47.5 24.3, 44.0 22.8, 50.0 21.8 Z" fill="url(#h5_r1)"/><path d="M 48.5 22.8 C 50.9 23.9, 50.7 26.4, 48.5 27.8 C 46.4 26.4, 46.1 23.9, 48.5 22.8 Z" fill="#76ca79" opacity="0.5"/><line x1="50" y1="30.6" x2="50" y2="23.5" stroke="#144a2c" stroke-width="0.55" opacity="0.5"/><line x1="50" y1="28.1" x2="53.5" y2="26.7" stroke="#144a2c" stroke-width="0.4" opacity="0.4"/><line x1="50" y1="28.1" x2="46.5" y2="26.7" stroke="#144a2c" stroke-width="0.4" opacity="0.4"/><line x1="50" y1="25.7" x2="53.5" y2="24.3" stroke="#144a2c" stroke-width="0.4" opacity="0.4"/><line x1="50" y1="25.7" x2="46.5" y2="24.3" stroke="#144a2c" stroke-width="0.4" opacity="0.4"/></g>
<g transform="rotate(325.9 50 50)"><path d="M 50.0 20.1 C 57.8 21.4, 53.3 23.5, 56.5 25.3 C 59.6 26.9, 54.6 29.5, 50.0 33.1 C 45.4 29.5, 40.4 26.9, 43.5 25.3 C 46.7 23.5, 42.2 21.4, 50.0 20.1 Z" fill="#092e18" opacity="0.9"/><path d="M 50.0 21.5 C 56.0 22.6, 52.5 24.3, 55.0 25.8 C 57.4 27.1, 53.5 29.3, 50.0 32.3 C 46.5 29.3, 42.6 27.1, 45.0 25.8 C 47.5 24.3, 44.0 22.6, 50.0 21.5 Z" fill="url(#h5_r1)"/><path d="M 48.5 22.6 C 50.9 23.8, 50.7 26.6, 48.5 28.2 C 46.3 26.6, 46.1 23.8, 48.5 22.6 Z" fill="#76ca79" opacity="0.5"/><line x1="50" y1="31.4" x2="50" y2="23.5" stroke="#144a2c" stroke-width="0.55" opacity="0.5"/><line x1="50" y1="28.5" x2="53.5" y2="27.0" stroke="#144a2c" stroke-width="0.4" opacity="0.4"/><line x1="50" y1="28.5" x2="46.5" y2="27.0" stroke="#144a2c" stroke-width="0.4" opacity="0.4"/><line x1="50" y1="25.8" x2="53.5" y2="24.3" stroke="#144a2c" stroke-width="0.4" opacity="0.4"/><line x1="50" y1="25.8" x2="46.5" y2="24.3" stroke="#144a2c" stroke-width="0.4" opacity="0.4"/></g>
<g transform="rotate(352.7 50 50)"><path d="M 50.0 20.2 C 57.7 21.5, 53.2 23.6, 56.4 25.5 C 59.4 27.0, 54.5 29.7, 50.0 33.3 C 45.5 29.7, 40.6 27.0, 43.6 25.5 C 46.8 23.6, 42.3 21.5, 50.0 20.2 Z" fill="#092e18" opacity="0.9"/><path d="M 50.0 21.6 C 55.9 22.7, 52.5 24.5, 54.9 26.0 C 57.2 27.3, 53.5 29.5, 50.0 32.5 C 46.5 29.5, 42.8 27.3, 45.1 26.0 C 47.5 24.5, 44.1 22.7, 50.0 21.6 Z" fill="url(#h5_r1)"/><path d="M 48.5 22.7 C 50.9 24.0, 50.7 26.8, 48.5 28.4 C 46.4 26.8, 46.1 24.0, 48.5 22.7 Z" fill="#76ca79" opacity="0.5"/><line x1="50" y1="31.7" x2="50" y2="23.6" stroke="#144a2c" stroke-width="0.55" opacity="0.5"/><line x1="50" y1="28.7" x2="53.5" y2="27.2" stroke="#144a2c" stroke-width="0.4" opacity="0.4"/><line x1="50" y1="28.7" x2="46.5" y2="27.2" stroke="#144a2c" stroke-width="0.4" opacity="0.4"/><line x1="50" y1="26.0" x2="53.5" y2="24.5" stroke="#144a2c" stroke-width="0.4" opacity="0.4"/><line x1="50" y1="26.0" x2="46.5" y2="24.5" stroke="#144a2c" stroke-width="0.4" opacity="0.4"/></g>
<g transform="rotate(101.9 50 50)"><path d="M 50.0 26.9 C 56.7 28.1, 52.8 29.9, 55.6 31.5 C 58.2 32.9, 53.9 35.2, 50.0 38.4 C 46.1 35.2, 41.8 32.9, 44.4 31.5 C 47.2 29.9, 43.3 28.1, 50.0 26.9 Z" fill="#092e18" opacity="0.9"/><path d="M 50.0 28.3 C 55.1 29.2, 52.1 30.7, 54.3 32.0 C 56.3 33.1, 53.0 35.0, 50.0 37.6 C 47.0 35.0, 43.7 33.1, 45.7 32.0 C 47.9 30.7, 44.9 29.2, 50.0 28.3 Z" fill="url(#h5_r2)"/><path d="M 48.7 29.2 C 50.8 30.3, 50.6 32.7, 48.7 34.1 C 46.9 32.7, 46.6 30.3, 48.7 29.2 Z" fill="#8ad786" opacity="0.5"/><line x1="50" y1="36.8" x2="50" y2="30.0" stroke="#144a2c" stroke-width="0.55" opacity="0.5"/></g>
<g transform="rotate(140.3 50 50)"><path d="M 50.0 27.7 C 56.5 28.8, 52.7 30.5, 55.4 32.0 C 58.0 33.3, 53.8 35.5, 50.0 38.5 C 46.2 35.5, 42.0 33.3, 44.6 32.0 C 47.3 30.5, 43.5 28.8, 50.0 27.7 Z" fill="#092e18" opacity="0.9"/><path d="M 50.0 29.1 C 55.0 30.0, 52.1 31.4, 54.2 32.6 C 56.1 33.6, 52.9 35.3, 50.0 37.7 C 47.1 35.3, 43.9 33.6, 45.8 32.6 C 47.9 31.4, 45.0 30.0, 50.0 29.1 Z" fill="url(#h5_r2)"/><path d="M 48.7 30.0 C 50.8 31.0, 50.6 33.2, 48.7 34.5 C 46.9 33.2, 46.7 31.0, 48.7 30.0 Z" fill="#8ad786" opacity="0.5"/><line x1="50" y1="37.1" x2="50" y2="30.7" stroke="#144a2c" stroke-width="0.55" opacity="0.5"/></g>
<g transform="rotate(183.9 50 50)"><path d="M 50.0 28.1 C 56.0 29.1, 52.5 30.8, 55.0 32.3 C 57.4 33.6, 53.5 35.7, 50.0 38.6 C 46.5 35.7, 42.6 33.6, 45.0 32.3 C 47.5 30.8, 44.0 29.1, 50.0 28.1 Z" fill="#092e18" opacity="0.9"/><path d="M 50.0 29.5 C 54.6 30.3, 51.9 31.7, 53.9 32.8 C 55.7 33.8, 52.7 35.5, 50.0 37.8 C 47.3 35.5, 44.3 33.8, 46.1 32.8 C 48.1 31.7, 45.4 30.3, 50.0 29.5 Z" fill="url(#h5_r2)"/><path d="M 48.8 30.3 C 50.7 31.3, 50.5 33.5, 48.8 34.7 C 47.2 33.5, 47.0 31.3, 48.8 30.3 Z" fill="#8ad786" opacity="0.5"/><line x1="50" y1="37.2" x2="50" y2="31.0" stroke="#144a2c" stroke-width="0.55" opacity="0.5"/></g>
<g transform="rotate(221.9 50 50)"><path d="M 50.0 27.9 C 56.3 29.0, 52.6 30.7, 55.3 32.2 C 57.8 33.5, 53.7 35.7, 50.0 38.7 C 46.3 35.7, 42.2 33.5, 44.7 32.2 C 47.4 30.7, 43.7 29.0, 50.0 27.9 Z" fill="#092e18" opacity="0.9"/><path d="M 50.0 29.3 C 54.9 30.1, 52.0 31.5, 54.1 32.7 C 56.0 33.8, 52.8 35.5, 50.0 37.9 C 47.2 35.5, 44.0 33.8, 45.9 32.7 C 48.0 31.5, 45.1 30.1, 50.0 29.3 Z" fill="url(#h5_r2)"/><path d="M 48.8 30.1 C 50.7 31.1, 50.5 33.4, 48.8 34.6 C 47.0 33.4, 46.8 31.1, 48.8 30.1 Z" fill="#8ad786" opacity="0.5"/><line x1="50" y1="37.2" x2="50" y2="30.8" stroke="#144a2c" stroke-width="0.55" opacity="0.5"/></g>
<g transform="rotate(259.7 50 50)"><path d="M 50.0 27.1 C 56.5 28.2, 52.7 30.1, 55.4 31.7 C 57.9 33.1, 53.8 35.4, 50.0 38.6 C 46.2 35.4, 42.1 33.1, 44.6 31.7 C 47.3 30.1, 43.5 28.2, 50.0 27.1 Z" fill="#092e18" opacity="0.9"/><path d="M 50.0 28.5 C 55.0 29.4, 52.1 30.9, 54.1 32.2 C 56.1 33.3, 52.9 35.2, 50.0 37.8 C 47.1 35.2, 43.9 33.3, 45.9 32.2 C 47.9 30.9, 45.0 29.4, 50.0 28.5 Z" fill="url(#h5_r2)"/><path d="M 48.8 29.4 C 50.8 30.5, 50.6 32.9, 48.8 34.3 C 47.0 32.9, 46.8 30.5, 48.8 29.4 Z" fill="#8ad786" opacity="0.5"/><line x1="50" y1="37.1" x2="50" y2="30.1" stroke="#144a2c" stroke-width="0.55" opacity="0.5"/></g>
<g transform="rotate(301.2 50 50)"><path d="M 50.0 24.8 C 56.3 26.0, 52.6 28.0, 55.2 29.7 C 57.7 31.2, 53.7 33.7, 50.0 37.2 C 46.3 33.7, 42.3 31.2, 44.8 29.7 C 47.4 28.0, 43.7 26.0, 50.0 24.8 Z" fill="#092e18" opacity="0.9"/><path d="M 50.0 26.2 C 54.8 27.2, 52.0 28.8, 54.0 30.3 C 55.9 31.5, 52.8 33.5, 50.0 36.4 C 47.2 33.5, 44.1 31.5, 46.0 30.3 C 48.0 28.8, 45.2 27.2, 50.0 26.2 Z" fill="url(#h5_r2)"/><path d="M 48.8 27.2 C 50.7 28.4, 50.5 31.0, 48.8 32.5 C 47.1 31.0, 46.8 28.4, 48.8 27.2 Z" fill="#8ad786" opacity="0.5"/><line x1="50" y1="35.5" x2="50" y2="28.0" stroke="#144a2c" stroke-width="0.55" opacity="0.5"/></g>
<g transform="rotate(341.8 50 50)"><path d="M 50.0 27.3 C 56.8 28.3, 52.8 30.0, 55.7 31.4 C 58.3 32.7, 54.0 34.7, 50.0 37.6 C 46.0 34.7, 41.7 32.7, 44.3 31.4 C 47.2 30.0, 43.2 28.3, 50.0 27.3 Z" fill="#092e18" opacity="0.9"/><path d="M 50.0 28.7 C 55.2 29.5, 52.2 30.8, 54.4 31.9 C 56.4 32.9, 53.0 34.5, 50.0 36.8 C 47.0 34.5, 43.6 32.9, 45.6 31.9 C 47.8 30.8, 44.8 29.5, 50.0 28.7 Z" fill="url(#h5_r2)"/><path d="M 48.7 29.5 C 50.8 30.4, 50.6 32.5, 48.7 33.7 C 46.8 32.5, 46.6 30.4, 48.7 29.5 Z" fill="#8ad786" opacity="0.5"/><line x1="50" y1="36.2" x2="50" y2="30.1" stroke="#144a2c" stroke-width="0.55" opacity="0.5"/></g>
<g transform="rotate(379.7 50 50)"><path d="M 50.0 25.3 C 56.1 26.5, 52.5 28.4, 55.1 30.1 C 57.4 31.6, 53.5 34.0, 50.0 37.4 C 46.5 34.0, 42.6 31.6, 44.9 30.1 C 47.5 28.4, 43.9 26.5, 50.0 25.3 Z" fill="#092e18" opacity="0.9"/><path d="M 50.0 26.7 C 54.7 27.7, 51.9 29.2, 53.9 30.6 C 55.7 31.8, 52.7 33.8, 50.0 36.6 C 47.3 33.8, 44.3 31.8, 46.1 30.6 C 48.1 29.2, 45.3 27.7, 50.0 26.7 Z" fill="url(#h5_r2)"/><path d="M 48.8 27.7 C 50.7 28.8, 50.5 31.4, 48.8 32.8 C 47.1 31.4, 47.0 28.8, 48.8 27.7 Z" fill="#8ad786" opacity="0.5"/><line x1="50" y1="35.8" x2="50" y2="28.4" stroke="#144a2c" stroke-width="0.55" opacity="0.5"/></g>
<g transform="rotate(420.6 50 50)"><path d="M 50.0 26.7 C 56.5 27.8, 52.7 29.6, 55.4 31.1 C 57.9 32.5, 53.8 34.7, 50.0 37.8 C 46.2 34.7, 42.1 32.5, 44.6 31.1 C 47.3 29.6, 43.5 27.8, 50.0 26.7 Z" fill="#092e18" opacity="0.9"/><path d="M 50.0 28.1 C 55.0 29.0, 52.1 30.4, 54.1 31.7 C 56.1 32.7, 52.9 34.5, 50.0 37.0 C 47.1 34.5, 43.9 32.7, 45.9 31.7 C 47.9 30.4, 45.0 29.0, 50.0 28.1 Z" fill="url(#h5_r2)"/><path d="M 48.8 29.0 C 50.8 30.0, 50.6 32.3, 48.8 33.6 C 47.0 32.3, 46.8 30.0, 48.8 29.0 Z" fill="#8ad786" opacity="0.5"/><line x1="50" y1="36.2" x2="50" y2="29.7" stroke="#144a2c" stroke-width="0.55" opacity="0.5"/></g>
<g transform="rotate(210.4 50 50)"><path d="M 50.0 32.6 C 55.9 33.6, 52.4 35.3, 54.9 36.7 C 57.2 37.9, 53.4 40.0, 50.0 42.9 C 46.6 40.0, 42.8 37.9, 45.1 36.7 C 47.6 35.3, 44.1 33.6, 50.0 32.6 Z" fill="#092e18" opacity="0.9"/><path d="M 50.0 34.0 C 54.5 34.8, 51.9 36.1, 53.8 37.2 C 55.5 38.2, 52.6 39.8, 50.0 42.1 C 47.4 39.8, 44.5 38.2, 46.2 37.2 C 48.1 36.1, 45.5 34.8, 50.0 34.0 Z" fill="url(#h5_r3)"/><path d="M 48.9 34.8 C 50.7 35.7, 50.5 37.8, 48.9 39.0 C 47.2 37.8, 47.1 35.7, 48.9 34.8 Z" fill="#9ce493" opacity="0.5"/><line x1="50" y1="41.4" x2="50" y2="35.4" stroke="#144a2c" stroke-width="0.55" opacity="0.5"/></g>
<g transform="rotate(257.0 50 50)"><path d="M 50.0 33.0 C 56.0 34.0, 52.5 35.6, 55.0 37.1 C 57.3 38.3, 53.5 40.3, 50.0 43.2 C 46.5 40.3, 42.7 38.3, 45.0 37.1 C 47.5 35.6, 44.0 34.0, 50.0 33.0 Z" fill="#092e18" opacity="0.9"/><path d="M 50.0 34.4 C 54.6 35.2, 51.9 36.5, 53.8 37.6 C 55.6 38.6, 52.7 40.2, 50.0 42.4 C 47.3 40.2, 44.4 38.6, 46.2 37.6 C 48.1 36.5, 45.4 35.2, 50.0 34.4 Z" fill="url(#h5_r3)"/><path d="M 48.8 35.2 C 50.7 36.1, 50.5 38.2, 48.8 39.4 C 47.2 38.2, 47.0 36.1, 48.8 35.2 Z" fill="#9ce493" opacity="0.5"/><line x1="50" y1="41.8" x2="50" y2="35.8" stroke="#144a2c" stroke-width="0.55" opacity="0.5"/></g>
<g transform="rotate(314.5 50 50)"><path d="M 50.0 32.9 C 56.0 33.9, 52.5 35.5, 55.0 36.9 C 57.3 38.1, 53.5 40.0, 50.0 42.8 C 46.5 40.0, 42.7 38.1, 45.0 36.9 C 47.5 35.5, 44.0 33.9, 50.0 32.9 Z" fill="#092e18" opacity="0.9"/><path d="M 50.0 34.3 C 54.6 35.1, 51.9 36.3, 53.8 37.4 C 55.6 38.3, 52.7 39.8, 50.0 42.0 C 47.3 39.8, 44.4 38.3, 46.2 37.4 C 48.1 36.3, 45.4 35.1, 50.0 34.3 Z" fill="url(#h5_r3)"/><path d="M 48.8 35.1 C 50.7 36.0, 50.5 38.0, 48.8 39.1 C 47.2 38.0, 47.0 36.0, 48.8 35.1 Z" fill="#9ce493" opacity="0.5"/><line x1="50" y1="41.4" x2="50" y2="35.7" stroke="#144a2c" stroke-width="0.55" opacity="0.5"/></g>
<g transform="rotate(363.7 50 50)"><path d="M 50.0 31.5 C 55.8 32.5, 52.4 34.3, 54.8 35.8 C 57.1 37.1, 53.4 39.2, 50.0 42.2 C 46.6 39.2, 42.9 37.1, 45.2 35.8 C 47.6 34.3, 44.2 32.5, 50.0 31.5 Z" fill="#092e18" opacity="0.9"/><path d="M 50.0 32.9 C 54.5 33.7, 51.9 35.1, 53.7 36.3 C 55.5 37.3, 52.6 39.0, 50.0 41.4 C 47.4 39.0, 44.5 37.3, 46.3 36.3 C 48.1 35.1, 45.5 33.7, 50.0 32.9 Z" fill="url(#h5_r3)"/><path d="M 48.9 33.7 C 50.7 34.7, 50.5 36.9, 48.9 38.2 C 47.3 36.9, 47.1 34.7, 48.9 33.7 Z" fill="#9ce493" opacity="0.5"/><line x1="50" y1="40.7" x2="50" y2="34.4" stroke="#144a2c" stroke-width="0.55" opacity="0.5"/></g>
<g transform="rotate(412.5 50 50)"><path d="M 50.0 32.2 C 55.8 33.3, 52.4 35.0, 54.8 36.5 C 57.1 37.8, 53.4 40.0, 50.0 43.0 C 46.6 40.0, 42.9 37.8, 45.2 36.5 C 47.6 35.0, 44.2 33.3, 50.0 32.2 Z" fill="#092e18" opacity="0.9"/><path d="M 50.0 33.6 C 54.5 34.5, 51.9 35.8, 53.7 37.1 C 55.5 38.1, 52.6 39.8, 50.0 42.2 C 47.4 39.8, 44.5 38.1, 46.3 37.1 C 48.1 35.8, 45.5 34.5, 50.0 33.6 Z" fill="url(#h5_r3)"/><path d="M 48.9 34.5 C 50.7 35.5, 50.5 37.7, 48.9 39.0 C 47.3 37.7, 47.1 35.5, 48.9 34.5 Z" fill="#9ce493" opacity="0.5"/><line x1="50" y1="41.5" x2="50" y2="35.2" stroke="#144a2c" stroke-width="0.55" opacity="0.5"/></g>
<g transform="rotate(464.3 50 50)"><path d="M 50.0 32.9 C 55.7 33.9, 52.4 35.5, 54.8 36.9 C 57.0 38.1, 53.3 40.1, 50.0 42.9 C 46.7 40.1, 43.0 38.1, 45.2 36.9 C 47.6 35.5, 44.3 33.9, 50.0 32.9 Z" fill="#092e18" opacity="0.9"/><path d="M 50.0 34.3 C 54.4 35.1, 51.8 36.3, 53.7 37.4 C 55.4 38.3, 52.6 39.9, 50.0 42.1 C 47.4 39.9, 44.6 38.3, 46.3 37.4 C 48.2 36.3, 45.6 35.1, 50.0 34.3 Z" fill="url(#h5_r3)"/><path d="M 48.9 35.1 C 50.7 35.9, 50.5 38.0, 48.9 39.1 C 47.3 38.0, 47.1 35.9, 48.9 35.1 Z" fill="#9ce493" opacity="0.5"/><line x1="50" y1="41.5" x2="50" y2="35.7" stroke="#144a2c" stroke-width="0.55" opacity="0.5"/></g>
<g transform="rotate(515.9 50 50)"><path d="M 50.0 32.4 C 56.0 33.4, 52.5 35.0, 55.0 36.4 C 57.3 37.7, 53.5 39.7, 50.0 42.5 C 46.5 39.7, 42.7 37.7, 45.0 36.4 C 47.5 35.0, 44.0 33.4, 50.0 32.4 Z" fill="#092e18" opacity="0.9"/><path d="M 50.0 33.8 C 54.6 34.6, 51.9 35.9, 53.8 37.0 C 55.6 37.9, 52.7 39.5, 50.0 41.7 C 47.3 39.5, 44.4 37.9, 46.2 37.0 C 48.1 35.9, 45.4 34.6, 50.0 33.8 Z" fill="url(#h5_r3)"/><path d="M 48.8 34.6 C 50.7 35.5, 50.5 37.6, 48.8 38.7 C 47.2 37.6, 47.0 35.5, 48.8 34.6 Z" fill="#9ce493" opacity="0.5"/><line x1="50" y1="41.1" x2="50" y2="35.2" stroke="#144a2c" stroke-width="0.55" opacity="0.5"/></g>
<g transform="rotate(19.7 50 50)"><path d="M 50.0 38.5 C 55.2 39.4, 52.2 40.9, 54.3 42.2 C 56.3 43.4, 53.0 45.2, 50.0 47.8 C 47.0 45.2, 43.7 43.4, 45.7 42.2 C 47.8 40.9, 44.8 39.4, 50.0 38.5 Z" fill="#092e18" opacity="0.9"/><path d="M 50.0 39.9 C 54.0 40.6, 51.7 41.8, 53.3 42.8 C 54.9 43.6, 52.3 45.0, 50.0 47.0 C 47.7 45.0, 45.1 43.6, 46.7 42.8 C 48.3 41.8, 46.0 40.6, 50.0 39.9 Z" fill="url(#h5_r4)"/><path d="M 49.0 40.6 C 50.6 41.4, 50.4 43.3, 49.0 44.3 C 47.6 43.3, 47.4 41.4, 49.0 40.6 Z" fill="#aef19f" opacity="0.5"/><line x1="50" y1="46.5" x2="50" y2="41.2" stroke="#144a2c" stroke-width="0.55" opacity="0.5"/></g>
<g transform="rotate(90.3 50 50)"><path d="M 50.0 37.3 C 55.4 38.3, 52.2 39.9, 54.5 41.2 C 56.6 42.4, 53.1 44.4, 50.0 47.1 C 46.9 44.4, 43.4 42.4, 45.5 41.2 C 47.8 39.9, 44.6 38.3, 50.0 37.3 Z" fill="#092e18" opacity="0.9"/><path d="M 50.0 38.7 C 54.1 39.5, 51.7 40.7, 53.4 41.8 C 55.1 42.7, 52.4 44.2, 50.0 46.3 C 47.6 44.2, 44.9 42.7, 46.6 41.8 C 48.3 40.7, 45.9 39.5, 50.0 38.7 Z" fill="url(#h5_r4)"/><path d="M 49.0 39.5 C 50.6 40.4, 50.5 42.3, 49.0 43.4 C 47.5 42.3, 47.3 40.4, 49.0 39.5 Z" fill="#aef19f" opacity="0.5"/><line x1="50" y1="45.7" x2="50" y2="40.1" stroke="#144a2c" stroke-width="0.55" opacity="0.5"/></g>
<g transform="rotate(166.0 50 50)"><path d="M 50.0 38.4 C 55.5 39.3, 52.3 40.7, 54.6 42.0 C 56.7 43.0, 53.2 44.8, 50.0 47.3 C 46.8 44.8, 43.3 43.0, 45.4 42.0 C 47.7 40.7, 44.5 39.3, 50.0 38.4 Z" fill="#092e18" opacity="0.9"/><path d="M 50.0 39.8 C 54.2 40.5, 51.8 41.6, 53.5 42.5 C 55.1 43.3, 52.5 44.7, 50.0 46.5 C 47.5 44.7, 44.9 43.3, 46.5 42.5 C 48.2 41.6, 45.8 40.5, 50.0 39.8 Z" fill="url(#h5_r4)"/><path d="M 48.9 40.5 C 50.6 41.2, 50.5 43.0, 48.9 44.0 C 47.4 43.0, 47.3 41.2, 48.9 40.5 Z" fill="#aef19f" opacity="0.5"/><line x1="50" y1="46.0" x2="50" y2="41.0" stroke="#144a2c" stroke-width="0.55" opacity="0.5"/></g>
<g transform="rotate(237.1 50 50)"><path d="M 50.0 38.0 C 55.3 38.9, 52.2 40.5, 54.4 41.8 C 56.4 43.0, 53.1 44.9, 50.0 47.6 C 46.9 44.9, 43.6 43.0, 45.6 41.8 C 47.8 40.5, 44.7 38.9, 50.0 38.0 Z" fill="#092e18" opacity="0.9"/><path d="M 50.0 39.4 C 54.0 40.1, 51.7 41.3, 53.4 42.4 C 54.9 43.3, 52.4 44.7, 50.0 46.8 C 47.6 44.7, 45.1 43.3, 46.6 42.4 C 48.3 41.3, 46.0 40.1, 50.0 39.4 Z" fill="url(#h5_r4)"/><path d="M 49.0 40.1 C 50.6 41.0, 50.4 42.9, 49.0 44.0 C 47.5 42.9, 47.4 41.0, 49.0 40.1 Z" fill="#aef19f" opacity="0.5"/><line x1="50" y1="46.2" x2="50" y2="40.7" stroke="#144a2c" stroke-width="0.55" opacity="0.5"/></g>
<g transform="rotate(310.3 50 50)"><path d="M 50.0 38.5 C 55.2 39.5, 52.1 41.0, 54.3 42.3 C 56.3 43.5, 53.0 45.4, 50.0 48.0 C 47.0 45.4, 43.7 43.5, 45.7 42.3 C 47.9 41.0, 44.8 39.5, 50.0 38.5 Z" fill="#092e18" opacity="0.9"/><path d="M 50.0 39.9 C 54.0 40.7, 51.7 41.8, 53.3 42.9 C 54.8 43.7, 52.3 45.2, 50.0 47.2 C 47.7 45.2, 45.2 43.7, 46.7 42.9 C 48.3 41.8, 46.0 40.7, 50.0 39.9 Z" fill="url(#h5_r4)"/><path d="M 49.0 40.7 C 50.6 41.5, 50.4 43.4, 49.0 44.5 C 47.6 43.4, 47.4 41.5, 49.0 40.7 Z" fill="#aef19f" opacity="0.5"/><line x1="50" y1="46.7" x2="50" y2="41.3" stroke="#144a2c" stroke-width="0.55" opacity="0.5"/></g>
<g transform="rotate(88.9 50 50)"><path d="M 50.0 42.2 C 54.1 43.0, 51.7 44.2, 53.4 45.3 C 55.0 46.3, 52.4 47.9, 50.0 50.1 C 47.6 47.9, 45.0 46.3, 46.6 45.3 C 48.3 44.2, 45.9 43.0, 50.0 42.2 Z" fill="#092e18" opacity="0.9"/><path d="M 50.0 43.6 C 53.1 44.1, 51.3 45.1, 52.6 45.9 C 53.8 46.5, 51.8 47.7, 50.0 49.3 C 48.2 47.7, 46.2 46.5, 47.4 45.9 C 48.7 45.1, 46.9 44.1, 50.0 43.6 Z" fill="url(#h5_r5)"/></g>
<g transform="rotate(176.4 50 50)"><path d="M 50.0 43.6 C 54.1 44.3, 51.7 45.5, 53.4 46.5 C 55.0 47.4, 52.4 48.8, 50.0 50.9 C 47.6 48.8, 45.0 47.4, 46.6 46.5 C 48.3 45.5, 45.9 44.3, 50.0 43.6 Z" fill="#092e18" opacity="0.9"/><path d="M 50.0 45.0 C 53.2 45.5, 51.3 46.3, 52.6 47.0 C 53.9 47.6, 51.8 48.6, 50.0 50.1 C 48.2 48.6, 46.1 47.6, 47.4 47.0 C 48.7 46.3, 46.8 45.5, 50.0 45.0 Z" fill="url(#h5_r5)"/></g>
<g transform="rotate(267.8 50 50)"><path d="M 50.0 43.2 C 54.1 44.0, 51.7 45.2, 53.4 46.3 C 55.0 47.3, 52.4 48.8, 50.0 51.0 C 47.6 48.8, 45.0 47.3, 46.6 46.3 C 48.3 45.2, 45.9 44.0, 50.0 43.2 Z" fill="#092e18" opacity="0.9"/><path d="M 50.0 44.6 C 53.2 45.2, 51.3 46.1, 52.6 46.9 C 53.9 47.5, 51.8 48.6, 50.0 50.2 C 48.2 48.6, 46.1 47.5, 47.4 46.9 C 48.7 46.1, 46.8 45.2, 50.0 44.6 Z" fill="url(#h5_r5)"/></g>
<g transform="rotate(353.3 50 50)"><path d="M 50.0 43.8 C 53.8 44.5, 51.6 45.7, 53.1 46.7 C 54.6 47.6, 52.2 49.1, 50.0 51.1 C 47.8 49.1, 45.4 47.6, 46.9 46.7 C 48.4 45.7, 46.2 44.5, 50.0 43.8 Z" fill="#092e18" opacity="0.9"/><path d="M 50.0 45.2 C 52.9 45.7, 51.2 46.5, 52.4 47.3 C 53.5 47.9, 51.7 48.9, 50.0 50.3 C 48.3 48.9, 46.5 47.9, 47.6 47.3 C 48.8 46.5, 47.1 45.7, 50.0 45.2 Z" fill="url(#h5_r5)"/></g>
<circle cx="68.7" cy="50.0" r="2.5" fill="#3f0e04" opacity="0.5"/><circle cx="67.8" cy="50.0" r="2.0" fill="url(#h5_fruit)"/><circle cx="67.1" cy="49.3" r="0.6" fill="#ffffff" opacity="0.85"/>
<circle cx="72.3" cy="54.6" r="2.7" fill="#3f0e04" opacity="0.5"/><circle cx="71.4" cy="54.4" r="2.2" fill="url(#h5_fruit)"/><circle cx="70.6" cy="53.6" r="0.6" fill="#ffffff" opacity="0.85"/>
<circle cx="70.4" cy="50.2" r="2.6" fill="#3f0e04" opacity="0.5"/><circle cx="69.5" cy="50.1" r="2.1" fill="url(#h5_fruit)"/><circle cx="68.7" cy="49.4" r="0.6" fill="#ffffff" opacity="0.85"/>
<circle cx="50.0" cy="65.5" r="2.5" fill="#3f0e04" opacity="0.5"/><circle cx="50.0" cy="64.6" r="2.0" fill="url(#h5_fruit)"/><circle cx="49.3" cy="63.9" r="0.6" fill="#ffffff" opacity="0.85"/>
<circle cx="45.8" cy="70.4" r="2.7" fill="#3f0e04" opacity="0.5"/><circle cx="46.0" cy="69.6" r="2.1" fill="url(#h5_fruit)"/><circle cx="45.3" cy="68.8" r="0.6" fill="#ffffff" opacity="0.85"/>
<circle cx="46.4" cy="68.3" r="2.4" fill="#3f0e04" opacity="0.5"/><circle cx="46.6" cy="67.4" r="1.9" fill="url(#h5_fruit)"/><circle cx="45.9" cy="66.8" r="0.5" fill="#ffffff" opacity="0.85"/>
<circle cx="31.9" cy="47.0" r="2.6" fill="#3f0e04" opacity="0.5"/><circle cx="32.8" cy="47.2" r="2.1" fill="url(#h5_fruit)"/><circle cx="32.1" cy="46.5" r="0.6" fill="#ffffff" opacity="0.85"/>
<circle cx="32.3" cy="47.6" r="2.8" fill="#3f0e04" opacity="0.5"/><circle cx="33.2" cy="47.7" r="2.2" fill="url(#h5_fruit)"/><circle cx="32.4" cy="46.9" r="0.6" fill="#ffffff" opacity="0.85"/>
<circle cx="50.8" cy="29.0" r="2.8" fill="#3f0e04" opacity="0.5"/><circle cx="50.8" cy="29.9" r="2.2" fill="url(#h5_fruit)"/><circle cx="50.0" cy="29.1" r="0.6" fill="#ffffff" opacity="0.85"/>
<circle cx="58.4" cy="27.1" r="2.8" fill="#3f0e04" opacity="0.5"/><circle cx="58.1" cy="27.9" r="2.2" fill="url(#h5_fruit)"/><circle cx="57.3" cy="27.2" r="0.6" fill="#ffffff" opacity="0.85"/>
<circle cx="54.1" cy="29.7" r="2.3" fill="#3f0e04" opacity="0.5"/><circle cx="53.9" cy="30.6" r="1.8" fill="url(#h5_fruit)"/><circle cx="53.3" cy="30.0" r="0.5" fill="#ffffff" opacity="0.85"/>
</svg>
