<svg xmlns="http://www.w3.org/2000/svg" viewBox="0 0 100 100">
  <!-- Iris with sword-like leaves and flower - top-down view -->
  <defs>
    <radialGradient id="iris_base" cx="50%" cy="50%" r="55%">
      <stop offset="0%" stop-color="#4a7838"/>
      <stop offset="70%" stop-color="#3c6830"/>
      <stop offset="100%" stop-color="#2e5828"/>
    </radialGradient>
  </defs>
  <path d="M73 52 C70 54 68 61 67 64 C65 68 56 73 56 81 C46 80 41 77 34 69 C26 62 23 59 22 55 C28 46 26 39 32 25 C40 27 45 30 54 28 C58 29 67 30 68 28 C69 34 70 41 73 52 Z" fill="url(#iris_base)" opacity="0.8"/>
  <ellipse cx="62" cy="48" rx="13" ry="9" fill="#58942e" opacity="0.55"/>
  <ellipse cx="46" cy="60" rx="14" ry="9" fill="#508c28" opacity="0.41"/>
  <ellipse cx="49" cy="41" rx="10" ry="7" fill="#58942e" opacity="0.46"/>
  <ellipse cx="50" cy="38" rx="10" ry="14" fill="#6848a0" opacity="0.8"/>
  <ellipse cx="50" cy="38" rx="6" ry="8" fill="#8068b8" opacity="0.6"/>
  <circle cx="50" cy="38" r="3" fill="#f0d830" opacity="0.6"/>
  <line x1="54" y1="57" x2="55" y2="46" stroke="#2e5828" stroke-width="0.8" opacity="0.3"/>
  <line x1="62" y1="51" x2="72" y2="57" stroke="#2e5828" stroke-width="0.8" opacity="0.3"/>
</svg>
