<svg xmlns="http://www.w3.org/2000/svg" viewBox="0 0 100 100">
  <!-- Jasmine with small white star flowers - top-down view -->
  <defs>
    <radialGradient id="jasmine_base" cx="50%" cy="50%" r="55%">
      <stop offset="0%" stop-color="#3a7828"/>
      <stop offset="70%" stop-color="#2c6420"/>
      <stop offset="100%" stop-color="#205018"/>
    </radialGradient>
  </defs>
  <path d="M74 49 C71 51 71 60 64 65 C58 70 57 67 48 73 C39 71 40 72 33 73 C31 67 25 61 23 50 C27 43 29 45 33 37 C35 33 48 25 51 21 C56 27 64 32 71 34 C75 36 70 47 74 49 Z" fill="url(#jasmine_base)" opacity="0.8"/>
  <ellipse cx="67" cy="46" rx="14" ry="7" fill="#58942e" opacity="0.54"/>
  <ellipse cx="58" cy="63" rx="10" ry="6" fill="#508c28" opacity="0.57"/>
  <ellipse cx="34" cy="56" rx="9" ry="9" fill="#58942e" opacity="0.48"/>
  <ellipse cx="39" cy="45" rx="9" ry="8" fill="#508c28" opacity="0.49"/>
  <ellipse cx="50" cy="39" rx="8" ry="9" fill="#58942e" opacity="0.43"/>
  <circle cx="38" cy="34" r="3.5" fill="#f8f8f0" opacity="0.8"/>
  <circle cx="37" cy="33" r="1.4" fill="#ffffff" opacity="0.45"/>
  <circle cx="58" cy="38" r="3.5" fill="#f8f8f0" opacity="0.8"/>
  <circle cx="57" cy="37" r="1.4" fill="#ffffff" opacity="0.45"/>
  <circle cx="44" cy="52" r="3.5" fill="#f8f8f0" opacity="0.8"/>
  <circle cx="43" cy="51" r="1.4" fill="#ffffff" opacity="0.45"/>
  <circle cx="62" cy="54" r="3.5" fill="#f8f8f0" opacity="0.8"/>
  <circle cx="61" cy="53" r="1.4" fill="#ffffff" opacity="0.45"/>
  <circle cx="50" cy="42" r="3.5" fill="#f8f8f0" opacity="0.8"/>
  <circle cx="49" cy="41" r="1.4" fill="#ffffff" opacity="0.45"/>
  <line x1="43" y1="55" x2="45" y2="44" stroke="#205018" stroke-width="0.8" opacity="0.3"/>
  <line x1="39" y1="43" x2="44" y2="58" stroke="#205018" stroke-width="0.8" opacity="0.3"/>
</svg>
