<svg xmlns="http://www.w3.org/2000/svg" viewBox="0 0 100 100">
  <!-- Curly kale leaves - top-down view -->
  <defs>
    <radialGradient id="kale_base" cx="50%" cy="50%" r="55%">
      <stop offset="0%" stop-color="#2a6828"/>
      <stop offset="70%" stop-color="#1c5420"/>
      <stop offset="100%" stop-color="#104018"/>
    </radialGradient>
  </defs>
  <path d="M78 52 C76 59 73 61 69 67 C64 74 57 81 57 87 C52 85 43 74 32 69 C27 66 23 60 17 56 C18 44 24 33 22 23 C31 23 37 18 46 11 C56 14 66 20 73 22 C77 36 75 38 78 52 Z" fill="url(#kale_base)" opacity="0.8"/>
  <ellipse cx="68" cy="47" rx="8" ry="10" fill="#387838" opacity="0.51"/>
  <ellipse cx="56" cy="59" rx="11" ry="11" fill="#2a6828" opacity="0.46"/>
  <ellipse cx="44" cy="63" rx="10" ry="8" fill="#387838" opacity="0.52"/>
  <ellipse cx="39" cy="53" rx="8" ry="11" fill="#2a6828" opacity="0.55"/>
  <ellipse cx="40" cy="36" rx="12" ry="11" fill="#387838" opacity="0.47"/>
  <ellipse cx="60" cy="36" rx="11" ry="11" fill="#2a6828" opacity="0.49"/>
  <line x1="43" y1="42" x2="26" y2="50" stroke="#104018" stroke-width="0.8" opacity="0.3"/>
  <line x1="45" y1="49" x2="46" y2="53" stroke="#104018" stroke-width="0.8" opacity="0.3"/>
</svg>
