<svg xmlns="http://www.w3.org/2000/svg" viewBox="0 0 100 100">
  <!-- Lemongrass with tall grass-like leaves - top-down view -->
  <defs>
    <radialGradient id="lemongrass_base" cx="50%" cy="50%" r="55%">
      <stop offset="0%" stop-color="#78b848"/>
      <stop offset="70%" stop-color="#68a838"/>
      <stop offset="100%" stop-color="#589828"/>
    </radialGradient>
  </defs>
  <path d="M81 52 C82 61 74 69 72 73 C68 78 62 78 52 80 C47 79 43 73 39 65 C32 59 30 56 27 55 C31 45 33 43 36 32 C39 31 45 31 50 26 C60 26 66 29 70 26 C72 35 76 42 81 52 Z" fill="url(#lemongrass_base)" opacity="0.8"/>
  <ellipse cx="62" cy="53" rx="9" ry="6" fill="#58942e" opacity="0.4"/>
  <ellipse cx="45" cy="62" rx="13" ry="7" fill="#508c28" opacity="0.55"/>
  <ellipse cx="40" cy="52" rx="8" ry="10" fill="#58942e" opacity="0.56"/>
  <ellipse cx="51" cy="37" rx="13" ry="7" fill="#508c28" opacity="0.54"/>
  <ellipse cx="50" cy="22" rx="4" ry="22" fill="#80c050" opacity="0.6"/>
  <ellipse cx="42" cy="26" rx="3.5" ry="20" fill="#78b848" opacity="0.55" transform="rotate(-12 42 26)"/>
  <ellipse cx="58" cy="24" rx="3.5" ry="20" fill="#80c050" opacity="0.55" transform="rotate(12 58 24)"/>
  <line x1="60" y1="41" x2="72" y2="43" stroke="#589828" stroke-width="0.8" opacity="0.3"/>
  <line x1="45" y1="57" x2="26" y2="57" stroke="#589828" stroke-width="0.8" opacity="0.3"/>
</svg>
