<svg xmlns="http://www.w3.org/2000/svg" viewBox="0 0 100 100">
  <!-- Lettuce - light green rosette - top-down view -->
  <defs>
    <radialGradient id="lettuce_base" cx="50%" cy="50%" r="55%">
      <stop offset="0%" stop-color="#78c448"/>
      <stop offset="70%" stop-color="#68b438"/>
      <stop offset="100%" stop-color="#58a028"/>
    </radialGradient>
  </defs>
  <path d="M86 51 C81 60 78 67 69 69 C62 74 56 75 47 80 C37 82 31 77 22 74 C16 68 18 60 13 53 C19 43 20 33 29 22 C35 17 47 17 51 13 C59 18 70 25 75 28 C80 33 82 46 86 51 Z" fill="url(#lettuce_base)" opacity="0.8"/>
  <ellipse cx="64" cy="51" rx="9" ry="9" fill="#58942e" opacity="0.48"/>
  <ellipse cx="56" cy="60" rx="12" ry="6" fill="#508c28" opacity="0.49"/>
  <ellipse cx="46" cy="64" rx="13" ry="9" fill="#58942e" opacity="0.55"/>
  <ellipse cx="38" cy="54" rx="10" ry="6" fill="#508c28" opacity="0.58"/>
  <ellipse cx="45" cy="39" rx="10" ry="9" fill="#58942e" opacity="0.56"/>
  <ellipse cx="54" cy="37" rx="12" ry="8" fill="#508c28" opacity="0.48"/>
  <circle cx="50" cy="50" r="12" fill="#98d868" opacity="0.5"/>
  <circle cx="50" cy="50" r="6" fill="#b8e888" opacity="0.4"/>
  <line x1="53" y1="48" x2="58" y2="47" stroke="#58a028" stroke-width="0.8" opacity="0.3"/>
  <line x1="50" y1="42" x2="47" y2="46" stroke="#58a028" stroke-width="0.8" opacity="0.3"/>
</svg>
