<svg xmlns="http://www.w3.org/2000/svg" viewBox="0 0 100 100">
  <!-- Maple tree with dense spreading canopy - top-down view -->
  <defs>
    <radialGradient id="maple_base" cx="50%" cy="50%" r="55%">
      <stop offset="0%" stop-color="#3a7028"/>
      <stop offset="70%" stop-color="#2c5c20"/>
      <stop offset="100%" stop-color="#1e4818"/>
    </radialGradient>
  </defs>
  <path d="M90 49 C89 55 80 68 77 77 C70 82 62 83 52 83 C41 79 35 75 30 73 C23 61 22 57 13 47 C17 43 20 32 18 26 C27 21 41 21 52 18 C59 21 67 18 74 21 C83 34 86 37 90 49 Z" fill="url(#maple_base)" opacity="0.8"/>
  <ellipse cx="64" cy="53" rx="8" ry="8" fill="#58942e" opacity="0.55"/>
  <ellipse cx="58" cy="56" rx="13" ry="8" fill="#508c28" opacity="0.52"/>
  <ellipse cx="45" cy="65" rx="14" ry="7" fill="#58942e" opacity="0.43"/>
  <ellipse cx="38" cy="48" rx="13" ry="9" fill="#508c28" opacity="0.44"/>
  <ellipse cx="39" cy="34" rx="14" ry="8" fill="#58942e" opacity="0.52"/>
  <ellipse cx="52" cy="38" rx="13" ry="10" fill="#508c28" opacity="0.5"/>
  <line x1="53" y1="55" x2="41" y2="53" stroke="#1e4818" stroke-width="0.8" opacity="0.3"/>
  <line x1="57" y1="63" x2="69" y2="72" stroke="#1e4818" stroke-width="0.8" opacity="0.3"/>
</svg>
