<svg xmlns="http://www.w3.org/2000/svg" viewBox="0 0 100 100">
  <!-- Marigold with dense orange petals - top-down view -->
  <defs>
    <radialGradient id="marigold_base" cx="50%" cy="50%" r="55%">
      <stop offset="0%" stop-color="#4a8828"/>
      <stop offset="70%" stop-color="#3c7420"/>
      <stop offset="100%" stop-color="#2e6018"/>
    </radialGradient>
  </defs>
  <path d="M79 52 C75 56 71 65 67 68 C61 75 53 80 48 86 C43 86 35 81 27 77 C22 66 27 54 23 47 C23 39 30 33 32 28 C43 26 48 24 53 20 C56 24 63 27 62 32 C66 37 73 45 79 52 Z" fill="url(#marigold_base)" opacity="0.8"/>
  <ellipse cx="63" cy="50" rx="11" ry="9" fill="#58942e" opacity="0.51"/>
  <ellipse cx="52" cy="62" rx="8" ry="7" fill="#508c28" opacity="0.48"/>
  <ellipse cx="41" cy="58" rx="12" ry="11" fill="#58942e" opacity="0.49"/>
  <ellipse cx="42" cy="42" rx="10" ry="9" fill="#508c28" opacity="0.52"/>
  <ellipse cx="51" cy="38" rx="12" ry="6" fill="#58942e" opacity="0.58"/>
  <ellipse cx="64" cy="50" rx="4" ry="10" fill="#f0a020" opacity="0.75" transform="rotate(0 64 50)"/>
  <ellipse cx="61" cy="58" rx="4" ry="10" fill="#e89018" opacity="0.73" transform="rotate(36 61 58)"/>
  <ellipse cx="54" cy="63" rx="4" ry="10" fill="#f0a020" opacity="0.71" transform="rotate(72 54 63)"/>
  <ellipse cx="46" cy="63" rx="4" ry="10" fill="#e89018" opacity="0.69" transform="rotate(108 46 63)"/>
  <ellipse cx="39" cy="58" rx="4" ry="10" fill="#f0a020" opacity="0.67" transform="rotate(144 39 58)"/>
  <ellipse cx="36" cy="50" rx="4" ry="10" fill="#e89018" opacity="0.65" transform="rotate(180 36 50)"/>
  <ellipse cx="39" cy="42" rx="4" ry="10" fill="#f0a020" opacity="0.63" transform="rotate(216 39 42)"/>
  <ellipse cx="46" cy="37" rx="4" ry="10" fill="#e89018" opacity="0.61" transform="rotate(252 46 37)"/>
  <ellipse cx="54" cy="37" rx="4" ry="10" fill="#f0a020" opacity="0.59" transform="rotate(288 54 37)"/>
  <ellipse cx="61" cy="42" rx="4" ry="10" fill="#e89018" opacity="0.57" transform="rotate(324 61 42)"/>
  <circle cx="50" cy="50" r="5" fill="#c87010" opacity="0.9"/>
  <line x1="48" y1="58" x2="48" y2="67" stroke="#2e6018" stroke-width="0.8" opacity="0.3"/>
  <line x1="53" y1="46" x2="49" y2="58" stroke="#2e6018" stroke-width="0.8" opacity="0.3"/>
</svg>
