<svg xmlns="http://www.w3.org/2000/svg" viewBox="0 0 100 100">
  <!-- Orange tree with citrus fruits - top-down view -->
  <defs>
    <radialGradient id="orange_tree_base" cx="50%" cy="50%" r="55%">
      <stop offset="0%" stop-color="#2e6420"/>
      <stop offset="70%" stop-color="#205818"/>
      <stop offset="100%" stop-color="#184c12"/>
    </radialGradient>
  </defs>
  <path d="M81 45 C77 55 73 59 71 70 C67 74 59 77 48 85 C37 88 31 84 26 83 C23 75 22 62 19 48 C24 40 23 33 31 23 C34 19 40 10 43 9 C55 14 61 24 73 33 C78 40 80 43 81 45 Z" fill="url(#orange_tree_base)" opacity="0.8"/>
  <ellipse cx="60" cy="48" rx="8" ry="9" fill="#58942e" opacity="0.59"/>
  <ellipse cx="56" cy="66" rx="11" ry="6" fill="#508c28" opacity="0.48"/>
  <ellipse cx="40" cy="60" rx="11" ry="10" fill="#58942e" opacity="0.58"/>
  <ellipse cx="37" cy="52" rx="12" ry="11" fill="#508c28" opacity="0.55"/>
  <ellipse cx="47" cy="39" rx="9" ry="8" fill="#58942e" opacity="0.59"/>
  <ellipse cx="58" cy="40" rx="13" ry="8" fill="#508c28" opacity="0.55"/>
  <circle cx="42" cy="36" r="4.5" fill="#f09020" opacity="0.8"/>
  <circle cx="41" cy="35" r="1.8" fill="#f8a838" opacity="0.45"/>
  <circle cx="60" cy="40" r="4.5" fill="#f09020" opacity="0.8"/>
  <circle cx="59" cy="39" r="1.8" fill="#f8a838" opacity="0.45"/>
  <circle cx="48" cy="58" r="4.5" fill="#f09020" opacity="0.8"/>
  <circle cx="47" cy="57" r="1.8" fill="#f8a838" opacity="0.45"/>
  <circle cx="36" cy="52" r="4.5" fill="#f09020" opacity="0.8"/>
  <circle cx="35" cy="51" r="1.8" fill="#f8a838" opacity="0.45"/>
  <circle cx="58" cy="56" r="4.5" fill="#f09020" opacity="0.8"/>
  <circle cx="57" cy="55" r="1.8" fill="#f8a838" opacity="0.45"/>
  <line x1="44" y1="61" x2="42" y2="50" stroke="#184c12" stroke-width="0.8" opacity="0.3"/>
  <line x1="47" y1="63" x2="65" y2="57" stroke="#184c12" stroke-width="0.8" opacity="0.3"/>
</svg>
