<svg xmlns="http://www.w3.org/2000/svg" viewBox="0 0 100 100">
  <!-- Pansy with face-like blooms - top-down view -->
  <defs>
    <radialGradient id="pansy_base" cx="50%" cy="50%" r="55%">
      <stop offset="0%" stop-color="#488c28"/>
      <stop offset="70%" stop-color="#3a7820"/>
      <stop offset="100%" stop-color="#2c6418"/>
    </radialGradient>
  </defs>
  <path d="M71 47 C71 57 67 65 68 69 C60 70 61 79 54 81 C49 80 40 71 32 67 C31 65 21 53 20 49 C23 42 25 38 29 32 C34 30 40 25 45 23 C51 28 59 36 67 39 C68 38 71 41 71 47 Z" fill="url(#pansy_base)" opacity="0.8"/>
  <ellipse cx="63" cy="55" rx="10" ry="8" fill="#58942e" opacity="0.55"/>
  <ellipse cx="58" cy="63" rx="13" ry="6" fill="#508c28" opacity="0.54"/>
  <ellipse cx="39" cy="59" rx="13" ry="10" fill="#58942e" opacity="0.51"/>
  <ellipse cx="37" cy="41" rx="13" ry="7" fill="#508c28" opacity="0.45"/>
  <ellipse cx="54" cy="39" rx="11" ry="7" fill="#58942e" opacity="0.46"/>
  <circle cx="42" cy="38" r="7" fill="#5828a0" opacity="0.8"/>
  <circle cx="42" cy="38" r="4" fill="#f0d030" opacity="0.6"/>
  <circle cx="58" cy="42" r="6" fill="#6838b0" opacity="0.75"/>
  <circle cx="58" cy="42" r="3" fill="#f0d030" opacity="0.55"/>
  <line x1="58" y1="55" x2="58" y2="35" stroke="#2c6418" stroke-width="0.8" opacity="0.3"/>
  <line x1="56" y1="48" x2="73" y2="61" stroke="#2c6418" stroke-width="0.8" opacity="0.3"/>
</svg>
