<svg xmlns="http://www.w3.org/2000/svg" viewBox="0 0 100 100">
<!-- pear_tree — generated by scripts/generate_plant_sprites.py (do not hand-edit) -->
<defs><radialGradient id="pt9_shadow" cx="50%" cy="50%" r="50%"><stop offset="0%" stop-color="#12300d" stop-opacity="0.28"/><stop offset="62%" stop-color="#12300d" stop-opacity="0.25"/><stop offset="100%" stop-color="#12300d" stop-opacity="0"/></radialGradient><linearGradient id="pt9_r0" x1="0" y1="0" x2="0" y2="1"><stop offset="0%" stop-color="#54ab4b"/><stop offset="48%" stop-color="#3a873e"/><stop offset="100%" stop-color="#1b5a2e"/></linearGradient><linearGradient id="pt9_r1" x1="0" y1="0" x2="0" y2="1"><stop offset="0%" stop-color="#6dbc5d"/><stop offset="48%" stop-color="#4e984c"/><stop offset="100%" stop-color="#276d38"/></linearGradient><linearGradient id="pt9_r2" x1="0" y1="0" x2="0" y2="1"><stop offset="0%" stop-color="#86ce70"/><stop offset="48%" stop-color="#61ab5b"/><stop offset="100%" stop-color="#338042"/></linearGradient><linearGradient id="pt9_r3" x1="0" y1="0" x2="0" y2="1"><stop offset="0%" stop-color="#9edf82"/><stop offset="48%" stop-color="#73bc6a"/><stop offset="100%" stop-color="#3e924d"/></linearGradient><linearGradient id="pt9_r4" x1="0" y1="0" x2="0" y2="1"><stop offset="0%" stop-color="#b7f094"/><stop offset="48%" stop-color="#86ce79"/><stop offset="100%" stop-color="#4aa557"/></linearGradient><radialGradient id="pt9_fruit" cx="38%" cy="35%" r="65%"><stop offset="0%" stop-color="#e4e08a"/><stop offset="48%" stop-color="#c3cf56"/><stop offset="100%" stop-color="#8a9a2e"/></radialGradient></defs>
<circle cx="50" cy="50" r="46.0" fill="url(#pt9_shadow)"/>
<circle cx="76.8" cy="50.0" r="16.3" fill="#1b5a2e"/><circle cx="70.6" cy="67.3" r="16.3" fill="#1b5a2e"/><circle cx="54.7" cy="76.4" r="16.3" fill="#1b5a2e"/><circle cx="36.6" cy="73.2" r="16.3" fill="#1b5a2e"/><circle cx="24.8" cy="59.2" r="16.3" fill="#1b5a2e"/><circle cx="24.8" cy="40.8" r="16.3" fill="#1b5a2e"/><circle cx="36.6" cy="26.8" r="16.3" fill="#1b5a2e"/><circle cx="54.7" cy="23.6" r="16.3" fill="#1b5a2e"/><circle cx="70.6" cy="32.7" r="16.3" fill="#1b5a2e"/><circle cx="50" cy="50" r="28.8" fill="#338042"/>
<g transform="rotate(181.1 50 50)"><path d="M 50.0 4.3 C 59.2 8.9, 58.2 19.2, 50.0 25.0 C 41.8 19.2, 40.8 8.9, 50.0 4.3 Z" fill="#0f3d22" opacity="0.9"/><path d="M 50.0 5.7 C 57.1 9.8, 56.3 19.1, 50.0 24.2 C 43.7 19.1, 42.9 9.8, 50.0 5.7 Z" fill="url(#pt9_r0)"/><path d="M 47.8 7.6 C 51.3 9.7, 51.0 14.5, 47.8 17.2 C 44.6 14.5, 44.3 9.7, 47.8 7.6 Z" fill="#7cd973" opacity="0.5"/><line x1="50" y1="22.8" x2="50" y2="9.1" stroke="#1c5230" stroke-width="0.55" opacity="0.5"/></g>
<g transform="rotate(196.9 50 50)"><path d="M 50.0 5.7 C 58.6 9.8, 57.7 19.3, 50.0 24.6 C 42.3 19.3, 41.4 9.8, 50.0 5.7 Z" fill="#0f3d22" opacity="0.9"/><path d="M 50.0 7.1 C 56.6 10.7, 55.9 19.1, 50.0 23.8 C 44.1 19.1, 43.4 10.7, 50.0 7.1 Z" fill="url(#pt9_r0)"/><path d="M 47.9 8.7 C 51.3 10.7, 50.9 15.0, 47.9 17.4 C 45.0 15.0, 44.6 10.7, 47.9 8.7 Z" fill="#7cd973" opacity="0.5"/><line x1="50" y1="22.4" x2="50" y2="10.1" stroke="#1c5230" stroke-width="0.55" opacity="0.5"/></g>
<g transform="rotate(215.5 50 50)"><path d="M 50.0 4.4 C 58.3 8.7, 57.4 18.6, 50.0 24.2 C 42.6 18.6, 41.7 8.7, 50.0 4.4 Z" fill="#0f3d22" opacity="0.9"/><path d="M 50.0 5.8 C 56.4 9.6, 55.7 18.4, 50.0 23.4 C 44.3 18.4, 43.6 9.6, 50.0 5.8 Z" fill="url(#pt9_r0)"/><path d="M 48.0 7.5 C 51.2 9.5, 50.9 14.1, 48.0 16.7 C 45.2 14.1, 44.9 9.5, 48.0 7.5 Z" fill="#7cd973" opacity="0.5"/><line x1="50" y1="22.0" x2="50" y2="8.9" stroke="#1c5230" stroke-width="0.55" opacity="0.5"/></g>
<g transform="rotate(240.9 50 50)"><path d="M 50.0 7.1 C 58.4 11.1, 57.5 20.3, 50.0 25.5 C 42.5 20.3, 41.6 11.1, 50.0 7.1 Z" fill="#0f3d22" opacity="0.9"/><path d="M 50.0 8.5 C 56.5 12.0, 55.8 20.1, 50.0 24.7 C 44.2 20.1, 43.5 12.0, 50.0 8.5 Z" fill="url(#pt9_r0)"/><path d="M 48.0 10.1 C 51.2 12.0, 50.9 16.2, 48.0 18.5 C 45.1 16.2, 44.8 12.0, 48.0 10.1 Z" fill="#7cd973" opacity="0.5"/><line x1="50" y1="23.4" x2="50" y2="11.4" stroke="#1c5230" stroke-width="0.55" opacity="0.5"/></g>
<g transform="rotate(260.3 50 50)"><path d="M 50.0 3.0 C 58.7 7.7, 57.8 18.4, 50.0 24.3 C 42.2 18.4, 41.3 7.7, 50.0 3.0 Z" fill="#0f3d22" opacity="0.9"/><path d="M 50.0 4.4 C 56.7 8.6, 56.0 18.2, 50.0 23.5 C 44.0 18.2, 43.3 8.6, 50.0 4.4 Z" fill="url(#pt9_r0)"/><path d="M 47.9 6.3 C 51.3 8.5, 50.9 13.5, 47.9 16.3 C 44.9 13.5, 44.6 8.5, 47.9 6.3 Z" fill="#7cd973" opacity="0.5"/><line x1="50" y1="22.0" x2="50" y2="7.8" stroke="#1c5230" stroke-width="0.55" opacity="0.5"/></g>
<g transform="rotate(275.7 50 50)"><path d="M 50.0 5.4 C 58.6 9.5, 57.7 18.9, 50.0 24.1 C 42.3 18.9, 41.4 9.5, 50.0 5.4 Z" fill="#0f3d22" opacity="0.9"/><path d="M 50.0 6.8 C 56.6 10.4, 55.9 18.7, 50.0 23.3 C 44.1 18.7, 43.4 10.4, 50.0 6.8 Z" fill="url(#pt9_r0)"/><path d="M 48.0 8.4 C 51.2 10.3, 50.9 14.6, 48.0 17.0 C 45.0 14.6, 44.7 10.3, 48.0 8.4 Z" fill="#7cd973" opacity="0.5"/><line x1="50" y1="22.0" x2="50" y2="9.7" stroke="#1c5230" stroke-width="0.55" opacity="0.5"/></g>
<g transform="rotate(300.8 50 50)"><path d="M 50.0 6.7 C 59.1 10.6, 58.2 19.5, 50.0 24.4 C 41.8 19.5, 40.9 10.6, 50.0 6.7 Z" fill="#0f3d22" opacity="0.9"/><path d="M 50.0 8.1 C 57.0 11.5, 56.3 19.3, 50.0 23.6 C 43.7 19.3, 43.0 11.5, 50.0 8.1 Z" fill="url(#pt9_r0)"/><path d="M 47.8 9.7 C 51.3 11.4, 51.0 15.5, 47.8 17.7 C 44.7 15.5, 44.3 11.4, 47.8 9.7 Z" fill="#7cd973" opacity="0.5"/><line x1="50" y1="22.4" x2="50" y2="10.9" stroke="#1c5230" stroke-width="0.55" opacity="0.5"/></g>
<g transform="rotate(316.2 50 50)"><path d="M 50.0 5.2 C 58.3 9.7, 57.4 19.9, 50.0 25.5 C 42.6 19.9, 41.7 9.7, 50.0 5.2 Z" fill="#0f3d22" opacity="0.9"/><path d="M 50.0 6.6 C 56.4 10.6, 55.7 19.7, 50.0 24.7 C 44.3 19.7, 43.6 10.6, 50.0 6.6 Z" fill="url(#pt9_r0)"/><path d="M 48.0 8.4 C 51.2 10.5, 50.9 15.2, 48.0 17.9 C 45.2 15.2, 44.8 10.5, 48.0 8.4 Z" fill="#7cd973" opacity="0.5"/><line x1="50" y1="23.3" x2="50" y2="9.9" stroke="#1c5230" stroke-width="0.55" opacity="0.5"/></g>
<g transform="rotate(340.3 50 50)"><path d="M 50.0 5.3 C 58.0 9.7, 57.1 19.7, 50.0 25.3 C 42.9 19.7, 42.0 9.7, 50.0 5.3 Z" fill="#0f3d22" opacity="0.9"/><path d="M 50.0 6.7 C 56.1 10.7, 55.5 19.5, 50.0 24.5 C 44.5 19.5, 43.9 10.7, 50.0 6.7 Z" fill="url(#pt9_r0)"/><path d="M 48.1 8.5 C 51.2 10.6, 50.8 15.2, 48.1 17.8 C 45.4 15.2, 45.0 10.6, 48.1 8.5 Z" fill="#7cd973" opacity="0.5"/><line x1="50" y1="23.1" x2="50" y2="9.9" stroke="#1c5230" stroke-width="0.55" opacity="0.5"/></g>
<g transform="rotate(354.4 50 50)"><path d="M 50.0 5.0 C 58.7 9.5, 57.8 19.8, 50.0 25.5 C 42.2 19.8, 41.3 9.5, 50.0 5.0 Z" fill="#0f3d22" opacity="0.9"/><path d="M 50.0 6.4 C 56.7 10.4, 56.0 19.6, 50.0 24.7 C 44.0 19.6, 43.3 10.4, 50.0 6.4 Z" fill="url(#pt9_r0)"/><path d="M 47.9 8.2 C 51.3 10.3, 50.9 15.1, 47.9 17.7 C 44.9 15.1, 44.6 10.3, 47.9 8.2 Z" fill="#7cd973" opacity="0.5"/><line x1="50" y1="23.2" x2="50" y2="9.7" stroke="#1c5230" stroke-width="0.55" opacity="0.5"/></g>
<g transform="rotate(380.5 50 50)"><path d="M 50.0 5.5 C 59.2 9.8, 58.3 19.6, 50.0 25.1 C 41.7 19.6, 40.8 9.8, 50.0 5.5 Z" fill="#0f3d22" opacity="0.9"/><path d="M 50.0 6.9 C 57.1 10.7, 56.4 19.4, 50.0 24.3 C 43.6 19.4, 42.9 10.7, 50.0 6.9 Z" fill="url(#pt9_r0)"/><path d="M 47.8 8.7 C 51.3 10.6, 51.0 15.2, 47.8 17.7 C 44.6 15.2, 44.2 10.6, 47.8 8.7 Z" fill="#7cd973" opacity="0.5"/><line x1="50" y1="22.9" x2="50" y2="10.0" stroke="#1c5230" stroke-width="0.55" opacity="0.5"/></g>
<g transform="rotate(400.9 50 50)"><path d="M 50.0 6.3 C 58.4 10.6, 57.5 20.3, 50.0 25.7 C 42.5 20.3, 41.6 10.6, 50.0 6.3 Z" fill="#0f3d22" opacity="0.9"/><path d="M 50.0 7.7 C 56.5 11.5, 55.8 20.1, 50.0 24.9 C 44.2 20.1, 43.5 11.5, 50.0 7.7 Z" fill="url(#pt9_r0)"/><path d="M 48.0 9.4 C 51.2 11.4, 50.9 15.9, 48.0 18.4 C 45.1 15.9, 44.8 11.4, 48.0 9.4 Z" fill="#7cd973" opacity="0.5"/><line x1="50" y1="23.5" x2="50" y2="10.8" stroke="#1c5230" stroke-width="0.55" opacity="0.5"/></g>
<g transform="rotate(419.8 50 50)"><path d="M 50.0 6.2 C 58.8 10.2, 57.9 19.3, 50.0 24.4 C 42.1 19.3, 41.2 10.2, 50.0 6.2 Z" fill="#0f3d22" opacity="0.9"/><path d="M 50.0 7.6 C 56.7 11.1, 56.0 19.1, 50.0 23.6 C 44.0 19.1, 43.3 11.1, 50.0 7.6 Z" fill="url(#pt9_r0)"/><path d="M 47.9 9.2 C 51.3 11.0, 50.9 15.2, 47.9 17.5 C 44.9 15.2, 44.5 11.0, 47.9 9.2 Z" fill="#7cd973" opacity="0.5"/><line x1="50" y1="22.3" x2="50" y2="10.5" stroke="#1c5230" stroke-width="0.55" opacity="0.5"/></g>
<g transform="rotate(435.7 50 50)"><path d="M 50.0 4.3 C 58.8 8.6, 57.9 18.6, 50.0 24.1 C 42.1 18.6, 41.2 8.6, 50.0 4.3 Z" fill="#0f3d22" opacity="0.9"/><path d="M 50.0 5.7 C 56.8 9.5, 56.1 18.4, 50.0 23.3 C 43.9 18.4, 43.2 9.5, 50.0 5.7 Z" fill="url(#pt9_r0)"/><path d="M 47.9 7.4 C 51.3 9.4, 50.9 14.0, 47.9 16.6 C 44.9 14.0, 44.5 9.4, 47.9 7.4 Z" fill="#7cd973" opacity="0.5"/><line x1="50" y1="21.9" x2="50" y2="8.8" stroke="#1c5230" stroke-width="0.55" opacity="0.5"/></g>
<g transform="rotate(456.1 50 50)"><path d="M 50.0 7.5 C 58.1 11.5, 57.3 20.7, 50.0 25.8 C 42.7 20.7, 41.9 11.5, 50.0 7.5 Z" fill="#0f3d22" opacity="0.9"/><path d="M 50.0 8.9 C 56.2 12.4, 55.6 20.5, 50.0 25.0 C 44.4 20.5, 43.8 12.4, 50.0 8.9 Z" fill="url(#pt9_r0)"/><path d="M 48.1 10.5 C 51.2 12.3, 50.9 16.5, 48.1 18.9 C 45.3 16.5, 45.0 12.3, 48.1 10.5 Z" fill="#7cd973" opacity="0.5"/><line x1="50" y1="23.7" x2="50" y2="11.8" stroke="#1c5230" stroke-width="0.55" opacity="0.5"/></g>
<g transform="rotate(478.9 50 50)"><path d="M 50.0 7.9 C 58.4 11.8, 57.5 20.8, 50.0 25.9 C 42.5 20.8, 41.6 11.8, 50.0 7.9 Z" fill="#0f3d22" opacity="0.9"/><path d="M 50.0 9.3 C 56.5 12.8, 55.8 20.6, 50.0 25.1 C 44.2 20.6, 43.5 12.8, 50.0 9.3 Z" fill="url(#pt9_r0)"/><path d="M 48.0 10.9 C 51.2 12.7, 50.9 16.8, 48.0 19.1 C 45.1 16.8, 44.8 12.7, 48.0 10.9 Z" fill="#7cd973" opacity="0.5"/><line x1="50" y1="23.8" x2="50" y2="12.1" stroke="#1c5230" stroke-width="0.55" opacity="0.5"/></g>
<g transform="rotate(501.2 50 50)"><path d="M 50.0 6.5 C 58.7 10.7, 57.8 20.2, 50.0 25.5 C 42.2 20.2, 41.3 10.7, 50.0 6.5 Z" fill="#0f3d22" opacity="0.9"/><path d="M 50.0 7.9 C 56.7 11.6, 56.0 20.0, 50.0 24.7 C 44.0 20.0, 43.3 11.6, 50.0 7.9 Z" fill="url(#pt9_r0)"/><path d="M 47.9 9.6 C 51.3 11.5, 50.9 15.9, 47.9 18.3 C 44.9 15.9, 44.6 11.5, 47.9 9.6 Z" fill="#7cd973" opacity="0.5"/><line x1="50" y1="23.4" x2="50" y2="10.9" stroke="#1c5230" stroke-width="0.55" opacity="0.5"/></g>
<g transform="rotate(516.3 50 50)"><path d="M 50.0 6.5 C 58.1 10.4, 57.3 19.3, 50.0 24.2 C 42.7 19.3, 41.9 10.4, 50.0 6.5 Z" fill="#0f3d22" opacity="0.9"/><path d="M 50.0 7.9 C 56.3 11.3, 55.6 19.1, 50.0 23.4 C 44.4 19.1, 43.7 11.3, 50.0 7.9 Z" fill="url(#pt9_r0)"/><path d="M 48.1 9.4 C 51.2 11.2, 50.9 15.2, 48.1 17.5 C 45.3 15.2, 44.9 11.2, 48.1 9.4 Z" fill="#7cd973" opacity="0.5"/><line x1="50" y1="22.2" x2="50" y2="10.7" stroke="#1c5230" stroke-width="0.55" opacity="0.5"/></g>
<g transform="rotate(286.4 50 50)"><path d="M 50.0 14.8 C 57.7 18.8, 56.9 28.0, 50.0 33.2 C 43.1 28.0, 42.3 18.8, 50.0 14.8 Z" fill="#0f3d22" opacity="0.9"/><path d="M 50.0 16.2 C 55.9 19.7, 55.3 27.8, 50.0 32.4 C 44.7 27.8, 44.1 19.7, 50.0 16.2 Z" fill="url(#pt9_r1)"/><path d="M 48.2 17.8 C 51.1 19.7, 50.8 23.9, 48.2 26.2 C 45.5 23.9, 45.2 19.7, 48.2 17.8 Z" fill="#99ea89" opacity="0.5"/><line x1="50" y1="31.1" x2="50" y2="19.1" stroke="#1c5230" stroke-width="0.55" opacity="0.5"/></g>
<g transform="rotate(312.5 50 50)"><path d="M 50.0 15.4 C 57.3 19.4, 56.5 28.4, 50.0 33.4 C 43.5 28.4, 42.7 19.4, 50.0 15.4 Z" fill="#0f3d22" opacity="0.9"/><path d="M 50.0 16.8 C 55.6 20.3, 55.0 28.2, 50.0 32.6 C 45.0 28.2, 44.4 20.3, 50.0 16.8 Z" fill="url(#pt9_r1)"/><path d="M 48.3 18.4 C 51.1 20.2, 50.8 24.3, 48.3 26.6 C 45.7 24.3, 45.5 20.2, 48.3 18.4 Z" fill="#99ea89" opacity="0.5"/><line x1="50" y1="31.3" x2="50" y2="19.6" stroke="#1c5230" stroke-width="0.55" opacity="0.5"/></g>
<g transform="rotate(340.4 50 50)"><path d="M 50.0 16.0 C 58.1 20.1, 57.3 29.5, 50.0 34.7 C 42.7 29.5, 41.9 20.1, 50.0 16.0 Z" fill="#0f3d22" opacity="0.9"/><path d="M 50.0 17.4 C 56.2 21.0, 55.6 29.3, 50.0 33.9 C 44.4 29.3, 43.8 21.0, 50.0 17.4 Z" fill="url(#pt9_r1)"/><path d="M 48.1 19.1 C 51.2 20.9, 50.9 25.2, 48.1 27.6 C 45.3 25.2, 45.0 20.9, 48.1 19.1 Z" fill="#99ea89" opacity="0.5"/><line x1="50" y1="32.6" x2="50" y2="20.4" stroke="#1c5230" stroke-width="0.55" opacity="0.5"/></g>
<g transform="rotate(366.8 50 50)"><path d="M 50.0 18.8 C 57.8 22.3, 57.0 30.3, 50.0 34.7 C 43.0 30.3, 42.2 22.3, 50.0 18.8 Z" fill="#0f3d22" opacity="0.9"/><path d="M 50.0 20.2 C 56.0 23.2, 55.4 30.1, 50.0 33.9 C 44.6 30.1, 44.0 23.2, 50.0 20.2 Z" fill="url(#pt9_r1)"/><path d="M 48.1 21.6 C 51.1 23.2, 50.8 26.7, 48.1 28.7 C 45.4 26.7, 45.1 23.2, 48.1 21.6 Z" fill="#99ea89" opacity="0.5"/><line x1="50" y1="32.8" x2="50" y2="22.7" stroke="#1c5230" stroke-width="0.55" opacity="0.5"/></g>
<g transform="rotate(393.8 50 50)"><path d="M 50.0 17.5 C 57.9 21.0, 57.1 28.9, 50.0 33.4 C 42.9 28.9, 42.1 21.0, 50.0 17.5 Z" fill="#0f3d22" opacity="0.9"/><path d="M 50.0 18.9 C 56.1 21.9, 55.5 28.8, 50.0 32.6 C 44.5 28.8, 43.9 21.9, 50.0 18.9 Z" fill="url(#pt9_r1)"/><path d="M 48.1 20.3 C 51.2 21.9, 50.8 25.4, 48.1 27.4 C 45.4 25.4, 45.1 21.9, 48.1 20.3 Z" fill="#99ea89" opacity="0.5"/><line x1="50" y1="31.5" x2="50" y2="21.4" stroke="#1c5230" stroke-width="0.55" opacity="0.5"/></g>
<g transform="rotate(418.4 50 50)"><path d="M 50.0 16.0 C 58.2 20.0, 57.3 29.2, 50.0 34.3 C 42.7 29.2, 41.8 20.0, 50.0 16.0 Z" fill="#0f3d22" opacity="0.9"/><path d="M 50.0 17.4 C 56.3 20.9, 55.7 29.0, 50.0 33.5 C 44.3 29.0, 43.7 20.9, 50.0 17.4 Z" fill="url(#pt9_r1)"/><path d="M 48.0 19.0 C 51.2 20.8, 50.9 25.0, 48.0 27.4 C 45.2 25.0, 44.9 20.8, 48.0 19.0 Z" fill="#99ea89" opacity="0.5"/><line x1="50" y1="32.2" x2="50" y2="20.3" stroke="#1c5230" stroke-width="0.55" opacity="0.5"/></g>
<g transform="rotate(443.6 50 50)"><path d="M 50.0 16.5 C 58.1 20.4, 57.2 29.0, 50.0 33.9 C 42.8 29.0, 41.9 20.4, 50.0 16.5 Z" fill="#0f3d22" opacity="0.9"/><path d="M 50.0 17.9 C 56.2 21.3, 55.6 28.8, 50.0 33.1 C 44.4 28.8, 43.8 21.3, 50.0 17.9 Z" fill="url(#pt9_r1)"/><path d="M 48.1 19.5 C 51.2 21.2, 50.9 25.1, 48.1 27.3 C 45.3 25.1, 45.0 21.2, 48.1 19.5 Z" fill="#99ea89" opacity="0.5"/><line x1="50" y1="31.9" x2="50" y2="20.7" stroke="#1c5230" stroke-width="0.55" opacity="0.5"/></g>
<g transform="rotate(469.6 50 50)"><path d="M 50.0 15.9 C 58.1 20.0, 57.3 29.3, 50.0 34.6 C 42.7 29.3, 41.9 20.0, 50.0 15.9 Z" fill="#0f3d22" opacity="0.9"/><path d="M 50.0 17.3 C 56.3 20.9, 55.6 29.2, 50.0 33.8 C 44.4 29.2, 43.7 20.9, 50.0 17.3 Z" fill="url(#pt9_r1)"/><path d="M 48.1 18.9 C 51.2 20.8, 50.9 25.1, 48.1 27.5 C 45.3 25.1, 44.9 20.8, 48.1 18.9 Z" fill="#99ea89" opacity="0.5"/><line x1="50" y1="32.5" x2="50" y2="20.2" stroke="#1c5230" stroke-width="0.55" opacity="0.5"/></g>
<g transform="rotate(494.8 50 50)"><path d="M 50.0 15.8 C 57.4 19.8, 56.6 28.8, 50.0 33.9 C 43.4 28.8, 42.6 19.8, 50.0 15.8 Z" fill="#0f3d22" opacity="0.9"/><path d="M 50.0 17.2 C 55.7 20.7, 55.1 28.6, 50.0 33.1 C 44.9 28.6, 44.3 20.7, 50.0 17.2 Z" fill="url(#pt9_r1)"/><path d="M 48.2 18.8 C 51.1 20.6, 50.8 24.7, 48.2 27.1 C 45.7 24.7, 45.4 20.6, 48.2 18.8 Z" fill="#99ea89" opacity="0.5"/><line x1="50" y1="31.8" x2="50" y2="20.1" stroke="#1c5230" stroke-width="0.55" opacity="0.5"/></g>
<g transform="rotate(522.5 50 50)"><path d="M 50.0 17.6 C 58.0 21.4, 57.2 30.0, 50.0 34.8 C 42.8 30.0, 42.0 21.4, 50.0 17.6 Z" fill="#0f3d22" opacity="0.9"/><path d="M 50.0 19.0 C 56.2 22.3, 55.5 29.8, 50.0 34.0 C 44.5 29.8, 43.8 22.3, 50.0 19.0 Z" fill="url(#pt9_r1)"/><path d="M 48.1 20.5 C 51.2 22.2, 50.9 26.1, 48.1 28.3 C 45.3 26.1, 45.0 22.2, 48.1 20.5 Z" fill="#99ea89" opacity="0.5"/><line x1="50" y1="32.8" x2="50" y2="21.7" stroke="#1c5230" stroke-width="0.55" opacity="0.5"/></g>
<g transform="rotate(543.7 50 50)"><path d="M 50.0 17.6 C 57.8 21.2, 57.0 29.3, 50.0 33.8 C 43.0 29.3, 42.2 21.2, 50.0 17.6 Z" fill="#0f3d22" opacity="0.9"/><path d="M 50.0 19.0 C 56.0 22.1, 55.4 29.1, 50.0 33.0 C 44.6 29.1, 44.0 22.1, 50.0 19.0 Z" fill="url(#pt9_r1)"/><path d="M 48.1 20.4 C 51.1 22.0, 50.8 25.6, 48.1 27.7 C 45.5 25.6, 45.1 22.0, 48.1 20.4 Z" fill="#99ea89" opacity="0.5"/><line x1="50" y1="31.9" x2="50" y2="21.5" stroke="#1c5230" stroke-width="0.55" opacity="0.5"/></g>
<g transform="rotate(574.9 50 50)"><path d="M 50.0 18.0 C 58.2 21.6, 57.4 29.9, 50.0 34.5 C 42.6 29.9, 41.8 21.6, 50.0 18.0 Z" fill="#0f3d22" opacity="0.9"/><path d="M 50.0 19.4 C 56.3 22.6, 55.7 29.7, 50.0 33.7 C 44.3 29.7, 43.7 22.6, 50.0 19.4 Z" fill="url(#pt9_r1)"/><path d="M 48.0 20.8 C 51.2 22.5, 50.9 26.2, 48.0 28.3 C 45.2 26.2, 44.9 22.5, 48.0 20.8 Z" fill="#99ea89" opacity="0.5"/><line x1="50" y1="32.5" x2="50" y2="22.0" stroke="#1c5230" stroke-width="0.55" opacity="0.5"/></g>
<g transform="rotate(593.8 50 50)"><path d="M 50.0 19.0 C 57.5 22.5, 56.7 30.3, 50.0 34.7 C 43.3 30.3, 42.5 22.5, 50.0 19.0 Z" fill="#0f3d22" opacity="0.9"/><path d="M 50.0 20.4 C 55.8 23.4, 55.2 30.1, 50.0 33.9 C 44.8 30.1, 44.2 23.4, 50.0 20.4 Z" fill="url(#pt9_r1)"/><path d="M 48.2 21.8 C 51.1 23.3, 50.8 26.8, 48.2 28.8 C 45.6 26.8, 45.3 23.3, 48.2 21.8 Z" fill="#99ea89" opacity="0.5"/><line x1="50" y1="32.8" x2="50" y2="22.9" stroke="#1c5230" stroke-width="0.55" opacity="0.5"/></g>
<g transform="rotate(624.2 50 50)"><path d="M 50.0 15.3 C 58.2 19.4, 57.4 28.6, 50.0 33.9 C 42.6 28.6, 41.8 19.4, 50.0 15.3 Z" fill="#0f3d22" opacity="0.9"/><path d="M 50.0 16.7 C 56.3 20.3, 55.7 28.5, 50.0 33.1 C 44.3 28.5, 43.7 20.3, 50.0 16.7 Z" fill="url(#pt9_r1)"/><path d="M 48.0 18.3 C 51.2 20.2, 50.9 24.4, 48.0 26.8 C 45.2 24.4, 44.9 20.2, 48.0 18.3 Z" fill="#99ea89" opacity="0.5"/><line x1="50" y1="31.7" x2="50" y2="19.6" stroke="#1c5230" stroke-width="0.55" opacity="0.5"/></g>
<g transform="rotate(34.8 50 50)"><path d="M 50.0 26.9 C 56.9 30.2, 56.2 37.7, 50.0 42.0 C 43.8 37.7, 43.1 30.2, 50.0 26.9 Z" fill="#0f3d22" opacity="0.9"/><path d="M 50.0 28.3 C 55.3 31.1, 54.7 37.6, 50.0 41.2 C 45.3 37.6, 44.7 31.1, 50.0 28.3 Z" fill="url(#pt9_r2)"/><path d="M 48.4 29.5 C 51.0 31.0, 50.7 34.4, 48.4 36.3 C 46.0 34.4, 45.7 31.0, 48.4 29.5 Z" fill="#b5fca0" opacity="0.5"/><line x1="50" y1="40.2" x2="50" y2="30.6" stroke="#1c5230" stroke-width="0.55" opacity="0.5"/></g>
<g transform="rotate(71.3 50 50)"><path d="M 50.0 25.4 C 56.7 28.9, 56.0 36.7, 50.0 41.0 C 44.0 36.7, 43.3 28.9, 50.0 25.4 Z" fill="#0f3d22" opacity="0.9"/><path d="M 50.0 26.8 C 55.1 29.8, 54.6 36.5, 50.0 40.2 C 45.4 36.5, 44.9 29.8, 50.0 26.8 Z" fill="url(#pt9_r2)"/><path d="M 48.4 28.2 C 51.0 29.7, 50.7 33.2, 48.4 35.1 C 46.1 33.2, 45.8 29.7, 48.4 28.2 Z" fill="#b5fca0" opacity="0.5"/><line x1="50" y1="39.2" x2="50" y2="29.2" stroke="#1c5230" stroke-width="0.55" opacity="0.5"/></g>
<g transform="rotate(106.4 50 50)"><path d="M 50.0 27.3 C 56.8 30.5, 56.1 38.0, 50.0 42.1 C 43.9 38.0, 43.2 30.5, 50.0 27.3 Z" fill="#0f3d22" opacity="0.9"/><path d="M 50.0 28.7 C 55.3 31.4, 54.7 37.8, 50.0 41.3 C 45.3 37.8, 44.7 31.4, 50.0 28.7 Z" fill="url(#pt9_r2)"/><path d="M 48.4 29.9 C 51.0 31.4, 50.7 34.7, 48.4 36.5 C 46.0 34.7, 45.7 31.4, 48.4 29.9 Z" fill="#b5fca0" opacity="0.5"/><line x1="50" y1="40.3" x2="50" y2="30.9" stroke="#1c5230" stroke-width="0.55" opacity="0.5"/></g>
<g transform="rotate(141.8 50 50)"><path d="M 50.0 28.6 C 57.0 31.6, 56.3 38.5, 50.0 42.4 C 43.7 38.5, 43.0 31.6, 50.0 28.6 Z" fill="#0f3d22" opacity="0.9"/><path d="M 50.0 30.0 C 55.4 32.5, 54.8 38.3, 50.0 41.6 C 45.2 38.3, 44.6 32.5, 50.0 30.0 Z" fill="url(#pt9_r2)"/><path d="M 48.3 31.1 C 51.0 32.5, 50.7 35.5, 48.3 37.2 C 45.9 35.5, 45.7 32.5, 48.3 31.1 Z" fill="#b5fca0" opacity="0.5"/><line x1="50" y1="40.6" x2="50" y2="32.1" stroke="#1c5230" stroke-width="0.55" opacity="0.5"/></g>
<g transform="rotate(179.2 50 50)"><path d="M 50.0 25.3 C 57.5 28.9, 56.7 36.9, 50.0 41.3 C 43.3 36.9, 42.5 28.9, 50.0 25.3 Z" fill="#0f3d22" opacity="0.9"/><path d="M 50.0 26.7 C 55.8 29.8, 55.2 36.7, 50.0 40.5 C 44.8 36.7, 44.2 29.8, 50.0 26.7 Z" fill="url(#pt9_r2)"/><path d="M 48.2 28.1 C 51.1 29.7, 50.8 33.3, 48.2 35.3 C 45.6 33.3, 45.3 29.7, 48.2 28.1 Z" fill="#b5fca0" opacity="0.5"/><line x1="50" y1="39.4" x2="50" y2="29.2" stroke="#1c5230" stroke-width="0.55" opacity="0.5"/></g>
<g transform="rotate(216.6 50 50)"><path d="M 50.0 25.8 C 56.8 29.1, 56.1 36.6, 50.0 40.8 C 43.9 36.6, 43.2 29.1, 50.0 25.8 Z" fill="#0f3d22" opacity="0.9"/><path d="M 50.0 27.2 C 55.2 30.0, 54.7 36.4, 50.0 40.0 C 45.3 36.4, 44.8 30.0, 50.0 27.2 Z" fill="url(#pt9_r2)"/><path d="M 48.4 28.5 C 51.0 30.0, 50.7 33.3, 48.4 35.1 C 46.0 33.3, 45.8 30.0, 48.4 28.5 Z" fill="#b5fca0" opacity="0.5"/><line x1="50" y1="38.9" x2="50" y2="29.5" stroke="#1c5230" stroke-width="0.55" opacity="0.5"/></g>
<g transform="rotate(251.2 50 50)"><path d="M 50.0 26.2 C 57.5 29.7, 56.8 37.8, 50.0 42.4 C 43.2 37.8, 42.5 29.7, 50.0 26.2 Z" fill="#0f3d22" opacity="0.9"/><path d="M 50.0 27.6 C 55.8 30.7, 55.2 37.6, 50.0 41.6 C 44.8 37.6, 44.2 30.7, 50.0 27.6 Z" fill="url(#pt9_r2)"/><path d="M 48.2 29.0 C 51.1 30.6, 50.8 34.2, 48.2 36.2 C 45.6 34.2, 45.3 30.6, 48.2 29.0 Z" fill="#b5fca0" opacity="0.5"/><line x1="50" y1="40.4" x2="50" y2="30.1" stroke="#1c5230" stroke-width="0.55" opacity="0.5"/></g>
<g transform="rotate(287.5 50 50)"><path d="M 50.0 26.9 C 57.2 30.0, 56.5 37.2, 50.0 41.2 C 43.5 37.2, 42.8 30.0, 50.0 26.9 Z" fill="#0f3d22" opacity="0.9"/><path d="M 50.0 28.3 C 55.6 30.9, 55.0 37.0, 50.0 40.4 C 45.0 37.0, 44.4 30.9, 50.0 28.3 Z" fill="url(#pt9_r2)"/><path d="M 48.3 29.5 C 51.1 30.9, 50.8 34.0, 48.3 35.8 C 45.8 34.0, 45.5 30.9, 48.3 29.5 Z" fill="#b5fca0" opacity="0.5"/><line x1="50" y1="39.4" x2="50" y2="30.4" stroke="#1c5230" stroke-width="0.55" opacity="0.5"/></g>
<g transform="rotate(321.7 50 50)"><path d="M 50.0 26.3 C 57.3 29.5, 56.5 36.9, 50.0 41.0 C 43.5 36.9, 42.7 29.5, 50.0 26.3 Z" fill="#0f3d22" opacity="0.9"/><path d="M 50.0 27.7 C 55.6 30.4, 55.0 36.7, 50.0 40.2 C 45.0 36.7, 44.4 30.4, 50.0 27.7 Z" fill="url(#pt9_r2)"/><path d="M 48.3 28.9 C 51.1 30.4, 50.8 33.6, 48.3 35.4 C 45.8 33.6, 45.5 30.4, 48.3 28.9 Z" fill="#b5fca0" opacity="0.5"/><line x1="50" y1="39.2" x2="50" y2="29.9" stroke="#1c5230" stroke-width="0.55" opacity="0.5"/></g>
<g transform="rotate(361.8 50 50)"><path d="M 50.0 26.4 C 56.5 29.8, 55.8 37.5, 50.0 41.8 C 44.2 37.5, 43.5 29.8, 50.0 26.4 Z" fill="#0f3d22" opacity="0.9"/><path d="M 50.0 27.8 C 55.0 30.7, 54.5 37.3, 50.0 41.0 C 45.5 37.3, 45.0 30.7, 50.0 27.8 Z" fill="url(#pt9_r2)"/><path d="M 48.4 29.1 C 51.0 30.6, 50.7 34.1, 48.4 36.0 C 46.2 34.1, 45.9 30.6, 48.4 29.1 Z" fill="#b5fca0" opacity="0.5"/><line x1="50" y1="40.0" x2="50" y2="30.2" stroke="#1c5230" stroke-width="0.55" opacity="0.5"/></g>
<g transform="rotate(140.8 50 50)"><path d="M 50.0 35.4 C 56.3 38.1, 55.6 44.2, 50.0 47.6 C 44.4 44.2, 43.7 38.1, 50.0 35.4 Z" fill="#0f3d22" opacity="0.9"/><path d="M 50.0 36.8 C 54.8 39.0, 54.3 44.0, 50.0 46.8 C 45.7 44.0, 45.2 39.0, 50.0 36.8 Z" fill="url(#pt9_r3)"/><path d="M 48.5 37.8 C 50.9 38.9, 50.7 41.5, 48.5 43.0 C 46.3 41.5, 46.1 38.9, 48.5 37.8 Z" fill="#c5ffac" opacity="0.5"/><line x1="50" y1="46.0" x2="50" y2="38.6" stroke="#1c5230" stroke-width="0.55" opacity="0.5"/></g>
<g transform="rotate(186.7 50 50)"><path d="M 50.0 35.9 C 56.6 38.6, 56.0 44.6, 50.0 48.1 C 44.0 44.6, 43.4 38.6, 50.0 35.9 Z" fill="#0f3d22" opacity="0.9"/><path d="M 50.0 37.3 C 55.1 39.5, 54.6 44.5, 50.0 47.3 C 45.4 44.5, 44.9 39.5, 50.0 37.3 Z" fill="url(#pt9_r3)"/><path d="M 48.4 38.3 C 51.0 39.4, 50.7 42.0, 48.4 43.5 C 46.1 42.0, 45.9 39.4, 48.4 38.3 Z" fill="#c5ffac" opacity="0.5"/><line x1="50" y1="46.5" x2="50" y2="39.1" stroke="#1c5230" stroke-width="0.55" opacity="0.5"/></g>
<g transform="rotate(231.1 50 50)"><path d="M 50.0 33.5 C 56.6 36.6, 55.9 43.6, 50.0 47.5 C 44.1 43.6, 43.4 36.6, 50.0 33.5 Z" fill="#0f3d22" opacity="0.9"/><path d="M 50.0 34.9 C 55.0 37.5, 54.5 43.4, 50.0 46.7 C 45.5 43.4, 45.0 37.5, 50.0 34.9 Z" fill="url(#pt9_r3)"/><path d="M 48.4 36.1 C 51.0 37.4, 50.7 40.5, 48.4 42.2 C 46.2 40.5, 45.9 37.4, 48.4 36.1 Z" fill="#c5ffac" opacity="0.5"/><line x1="50" y1="45.8" x2="50" y2="37.0" stroke="#1c5230" stroke-width="0.55" opacity="0.5"/></g>
<g transform="rotate(273.5 50 50)"><path d="M 50.0 34.6 C 55.8 37.4, 55.2 43.8, 50.0 47.4 C 44.8 43.8, 44.2 37.4, 50.0 34.6 Z" fill="#0f3d22" opacity="0.9"/><path d="M 50.0 36.0 C 54.5 38.3, 54.0 43.6, 50.0 46.6 C 46.0 43.6, 45.5 38.3, 50.0 36.0 Z" fill="url(#pt9_r3)"/><path d="M 48.6 37.0 C 50.8 38.2, 50.6 41.0, 48.6 42.5 C 46.6 41.0, 46.4 38.2, 48.6 37.0 Z" fill="#c5ffac" opacity="0.5"/><line x1="50" y1="45.7" x2="50" y2="37.9" stroke="#1c5230" stroke-width="0.55" opacity="0.5"/></g>
<g transform="rotate(321.4 50 50)"><path d="M 50.0 35.8 C 56.5 38.8, 55.8 45.4, 50.0 49.1 C 44.2 45.4, 43.5 38.8, 50.0 35.8 Z" fill="#0f3d22" opacity="0.9"/><path d="M 50.0 37.2 C 55.0 39.7, 54.5 45.2, 50.0 48.3 C 45.5 45.2, 45.0 39.7, 50.0 37.2 Z" fill="url(#pt9_r3)"/><path d="M 48.4 38.3 C 50.9 39.6, 50.7 42.5, 48.4 44.1 C 46.2 42.5, 45.9 39.6, 48.4 38.3 Z" fill="#c5ffac" opacity="0.5"/><line x1="50" y1="47.5" x2="50" y2="39.2" stroke="#1c5230" stroke-width="0.55" opacity="0.5"/></g>
<g transform="rotate(365.6 50 50)"><path d="M 50.0 34.2 C 56.1 37.1, 55.5 43.6, 50.0 47.3 C 44.5 43.6, 43.9 37.1, 50.0 34.2 Z" fill="#0f3d22" opacity="0.9"/><path d="M 50.0 35.6 C 54.7 38.0, 54.2 43.4, 50.0 46.5 C 45.8 43.4, 45.3 38.0, 50.0 35.6 Z" fill="url(#pt9_r3)"/><path d="M 48.5 36.7 C 50.9 37.9, 50.6 40.8, 48.5 42.4 C 46.4 40.8, 46.2 37.9, 48.5 36.7 Z" fill="#c5ffac" opacity="0.5"/><line x1="50" y1="45.6" x2="50" y2="37.6" stroke="#1c5230" stroke-width="0.55" opacity="0.5"/></g>
<g transform="rotate(405.3 50 50)"><path d="M 50.0 35.4 C 56.4 38.3, 55.7 44.9, 50.0 48.6 C 44.3 44.9, 43.6 38.3, 50.0 35.4 Z" fill="#0f3d22" opacity="0.9"/><path d="M 50.0 36.8 C 54.9 39.2, 54.4 44.7, 50.0 47.8 C 45.6 44.7, 45.1 39.2, 50.0 36.8 Z" fill="url(#pt9_r3)"/><path d="M 48.5 37.9 C 50.9 39.2, 50.7 42.0, 48.5 43.6 C 46.3 42.0, 46.0 39.2, 48.5 37.9 Z" fill="#c5ffac" opacity="0.5"/><line x1="50" y1="46.9" x2="50" y2="38.8" stroke="#1c5230" stroke-width="0.55" opacity="0.5"/></g>
<g transform="rotate(453.6 50 50)"><path d="M 50.0 35.9 C 56.1 38.7, 55.4 45.1, 50.0 48.7 C 44.6 45.1, 43.9 38.7, 50.0 35.9 Z" fill="#0f3d22" opacity="0.9"/><path d="M 50.0 37.3 C 54.7 39.6, 54.2 44.9, 50.0 47.9 C 45.8 44.9, 45.3 39.6, 50.0 37.3 Z" fill="url(#pt9_r3)"/><path d="M 48.6 38.4 C 50.9 39.6, 50.6 42.3, 48.6 43.9 C 46.5 42.3, 46.2 39.6, 48.6 38.4 Z" fill="#c5ffac" opacity="0.5"/><line x1="50" y1="47.1" x2="50" y2="39.2" stroke="#1c5230" stroke-width="0.55" opacity="0.5"/></g>
<g transform="rotate(235.8 50 50)"><path d="M 50.0 40.0 C 54.3 42.2, 53.8 47.4, 50.0 50.3 C 46.2 47.4, 45.7 42.2, 50.0 40.0 Z" fill="#0f3d22" opacity="0.9"/><path d="M 50.0 41.4 C 53.3 43.1, 52.9 47.2, 50.0 49.5 C 47.1 47.2, 46.7 43.1, 50.0 41.4 Z" fill="url(#pt9_r4)"/><path d="M 49.0 42.2 C 50.6 43.1, 50.5 45.2, 49.0 46.4 C 47.5 45.2, 47.3 43.1, 49.0 42.2 Z" fill="#d1ffb4" opacity="0.5"/><line x1="50" y1="48.8" x2="50" y2="42.8" stroke="#1c5230" stroke-width="0.55" opacity="0.5"/></g>
<g transform="rotate(309.0 50 50)"><path d="M 50.0 42.2 C 54.4 44.3, 54.0 49.1, 50.0 51.8 C 46.0 49.1, 45.6 44.3, 50.0 42.2 Z" fill="#0f3d22" opacity="0.9"/><path d="M 50.0 43.6 C 53.4 45.2, 53.0 48.9, 50.0 51.0 C 47.0 48.9, 46.6 45.2, 50.0 43.6 Z" fill="url(#pt9_r4)"/><path d="M 48.9 44.4 C 50.6 45.2, 50.5 47.1, 48.9 48.2 C 47.4 47.1, 47.3 45.2, 48.9 44.4 Z" fill="#d1ffb4" opacity="0.5"/><line x1="50" y1="50.4" x2="50" y2="44.9" stroke="#1c5230" stroke-width="0.55" opacity="0.5"/></g>
<g transform="rotate(380.5 50 50)"><path d="M 50.0 40.4 C 54.2 42.6, 53.8 47.8, 50.0 50.7 C 46.2 47.8, 45.8 42.6, 50.0 40.4 Z" fill="#0f3d22" opacity="0.9"/><path d="M 50.0 41.8 C 53.3 43.6, 52.9 47.6, 50.0 49.9 C 47.1 47.6, 46.7 43.6, 50.0 41.8 Z" fill="url(#pt9_r4)"/><path d="M 49.0 42.6 C 50.6 43.5, 50.4 45.6, 49.0 46.8 C 47.5 45.6, 47.4 43.5, 49.0 42.6 Z" fill="#d1ffb4" opacity="0.5"/><line x1="50" y1="49.3" x2="50" y2="43.2" stroke="#1c5230" stroke-width="0.55" opacity="0.5"/></g>
<g transform="rotate(454.5 50 50)"><path d="M 50.0 41.2 C 54.7 43.3, 54.2 48.3, 50.0 51.1 C 45.8 48.3, 45.3 43.3, 50.0 41.2 Z" fill="#0f3d22" opacity="0.9"/><path d="M 50.0 42.6 C 53.6 44.3, 53.2 48.1, 50.0 50.3 C 46.8 48.1, 46.4 44.3, 50.0 42.6 Z" fill="url(#pt9_r4)"/><path d="M 48.9 43.3 C 50.7 44.2, 50.5 46.2, 48.9 47.3 C 47.3 46.2, 47.1 44.2, 48.9 43.3 Z" fill="#d1ffb4" opacity="0.5"/><line x1="50" y1="49.7" x2="50" y2="44.0" stroke="#1c5230" stroke-width="0.55" opacity="0.5"/></g>
<g transform="rotate(527.3 50 50)"><path d="M 50.0 39.9 C 54.5 42.2, 54.0 47.4, 50.0 50.4 C 46.0 47.4, 45.5 42.2, 50.0 39.9 Z" fill="#0f3d22" opacity="0.9"/><path d="M 50.0 41.3 C 53.4 43.1, 53.1 47.2, 50.0 49.6 C 46.9 47.2, 46.6 43.1, 50.0 41.3 Z" fill="url(#pt9_r4)"/><path d="M 48.9 42.1 C 50.7 43.0, 50.5 45.2, 48.9 46.4 C 47.4 45.2, 47.2 43.0, 48.9 42.1 Z" fill="#d1ffb4" opacity="0.5"/><line x1="50" y1="48.9" x2="50" y2="42.7" stroke="#1c5230" stroke-width="0.55" opacity="0.5"/></g>
<circle cx="70.4" cy="49.2" r="4.8" fill="#3f0e04" opacity="0.5"/><circle cx="69.5" cy="49.2" r="3.8" fill="url(#pt9_fruit)"/><circle cx="68.2" cy="47.9" r="1.1" fill="#ffffff" opacity="0.85"/>
<circle cx="73.4" cy="49.7" r="4.4" fill="#3f0e04" opacity="0.5"/><circle cx="72.5" cy="49.7" r="3.5" fill="url(#pt9_fruit)"/><circle cx="71.3" cy="48.5" r="1.0" fill="#ffffff" opacity="0.85"/>
<circle cx="42.7" cy="70.8" r="4.4" fill="#3f0e04" opacity="0.5"/><circle cx="43.0" cy="70.0" r="3.5" fill="url(#pt9_fruit)"/><circle cx="41.8" cy="68.7" r="1.0" fill="#ffffff" opacity="0.85"/>
<circle cx="45.7" cy="74.4" r="5.0" fill="#3f0e04" opacity="0.5"/><circle cx="45.8" cy="73.5" r="4.0" fill="url(#pt9_fruit)"/><circle cx="44.4" cy="72.2" r="1.1" fill="#ffffff" opacity="0.85"/>
<circle cx="28.8" cy="50.5" r="4.1" fill="#3f0e04" opacity="0.5"/><circle cx="29.7" cy="50.5" r="3.3" fill="url(#pt9_fruit)"/><circle cx="28.5" cy="49.4" r="0.9" fill="#ffffff" opacity="0.85"/>
<circle cx="32.6" cy="51.4" r="4.7" fill="#3f0e04" opacity="0.5"/><circle cx="33.5" cy="51.3" r="3.7" fill="url(#pt9_fruit)"/><circle cx="32.2" cy="50.0" r="1.0" fill="#ffffff" opacity="0.85"/>
<circle cx="57.9" cy="29.1" r="4.1" fill="#3f0e04" opacity="0.5"/><circle cx="57.5" cy="29.9" r="3.3" fill="url(#pt9_fruit)"/><circle cx="56.4" cy="28.8" r="0.9" fill="#ffffff" opacity="0.85"/>
<circle cx="50.9" cy="27.1" r="4.8" fill="#3f0e04" opacity="0.5"/><circle cx="50.9" cy="28.0" r="3.8" fill="url(#pt9_fruit)"/><circle cx="49.5" cy="26.6" r="1.1" fill="#ffffff" opacity="0.85"/>
<circle cx="54.2" cy="32.4" r="4.8" fill="#3f0e04" opacity="0.5"/><circle cx="54.0" cy="33.3" r="3.8" fill="url(#pt9_fruit)"/><circle cx="52.7" cy="32.0" r="1.1" fill="#ffffff" opacity="0.85"/>
</svg>
