<svg xmlns="http://www.w3.org/2000/svg" viewBox="0 0 100 100">
  <!-- Petunia with trumpet-shaped flowers - top-down view -->
  <defs>
    <radialGradient id="petunia_base" cx="50%" cy="50%" r="55%">
      <stop offset="0%" stop-color="#488c28"/>
      <stop offset="70%" stop-color="#3a7820"/>
      <stop offset="100%" stop-color="#2c6418"/>
    </radialGradient>
  </defs>
  <path d="M74 49 C75 59 68 66 68 75 C66 76 57 76 53 75 C43 69 43 74 34 70 C30 60 21 55 16 51 C19 44 28 34 33 29 C42 28 43 18 50 18 C56 20 61 24 67 34 C72 36 74 43 74 49 Z" fill="url(#petunia_base)" opacity="0.8"/>
  <ellipse cx="65" cy="46" rx="8" ry="7" fill="#58942e" opacity="0.55"/>
  <ellipse cx="50" cy="66" rx="10" ry="9" fill="#508c28" opacity="0.46"/>
  <ellipse cx="45" cy="58" rx="13" ry="7" fill="#58942e" opacity="0.46"/>
  <ellipse cx="33" cy="44" rx="14" ry="7" fill="#508c28" opacity="0.45"/>
  <ellipse cx="51" cy="40" rx="14" ry="9" fill="#58942e" opacity="0.5"/>
  <circle cx="40" cy="36" r="5" fill="#a848c0" opacity="0.8"/>
  <circle cx="39" cy="35" r="2.0" fill="#c068d8" opacity="0.45"/>
  <circle cx="60" cy="40" r="5" fill="#a848c0" opacity="0.8"/>
  <circle cx="59" cy="39" r="2.0" fill="#c068d8" opacity="0.45"/>
  <circle cx="48" cy="56" r="5" fill="#a848c0" opacity="0.8"/>
  <circle cx="47" cy="55" r="2.0" fill="#c068d8" opacity="0.45"/>
  <circle cx="35" cy="52" r="5" fill="#a848c0" opacity="0.8"/>
  <circle cx="34" cy="51" r="2.0" fill="#c068d8" opacity="0.45"/>
  <circle cx="62" cy="55" r="5" fill="#a848c0" opacity="0.8"/>
  <circle cx="61" cy="54" r="2.0" fill="#c068d8" opacity="0.45"/>
  <line x1="58" y1="36" x2="50" y2="41" stroke="#2c6418" stroke-width="0.8" opacity="0.3"/>
  <line x1="51" y1="35" x2="56" y2="24" stroke="#2c6418" stroke-width="0.8" opacity="0.3"/>
</svg>
