<svg xmlns="http://www.w3.org/2000/svg" viewBox="0 0 100 100">
  <!-- Plum tree with purple fruits - top-down view -->
  <defs>
    <radialGradient id="plum_tree_base" cx="50%" cy="50%" r="55%">
      <stop offset="0%" stop-color="#3a6828"/>
      <stop offset="70%" stop-color="#2c5820"/>
      <stop offset="100%" stop-color="#1e4818"/>
    </radialGradient>
  </defs>
  <path d="M88 43 C87 52 83 69 75 81 C66 83 57 85 53 84 C44 79 25 79 16 74 C18 64 19 65 15 55 C19 48 19 39 16 26 C27 21 39 20 56 20 C62 19 66 28 72 28 C74 37 83 41 88 43 Z" fill="url(#plum_tree_base)" opacity="0.8"/>
  <ellipse cx="66" cy="47" rx="12" ry="8" fill="#58942e" opacity="0.5"/>
  <ellipse cx="58" cy="61" rx="9" ry="8" fill="#508c28" opacity="0.44"/>
  <ellipse cx="45" cy="60" rx="12" ry="10" fill="#58942e" opacity="0.47"/>
  <ellipse cx="39" cy="50" rx="14" ry="10" fill="#508c28" opacity="0.47"/>
  <ellipse cx="47" cy="37" rx="14" ry="10" fill="#58942e" opacity="0.56"/>
  <ellipse cx="63" cy="39" rx="14" ry="7" fill="#508c28" opacity="0.46"/>
  <circle cx="40" cy="36" r="4" fill="#6828a0" opacity="0.8"/>
  <circle cx="39" cy="35" r="1.6" fill="#8040b8" opacity="0.45"/>
  <circle cx="58" cy="42" r="4" fill="#6828a0" opacity="0.8"/>
  <circle cx="57" cy="41" r="1.6" fill="#8040b8" opacity="0.45"/>
  <circle cx="46" cy="56" r="4" fill="#6828a0" opacity="0.8"/>
  <circle cx="45" cy="55" r="1.6" fill="#8040b8" opacity="0.45"/>
  <circle cx="62" cy="58" r="4" fill="#6828a0" opacity="0.8"/>
  <circle cx="61" cy="57" r="1.6" fill="#8040b8" opacity="0.45"/>
  <circle cx="34" cy="50" r="4" fill="#6828a0" opacity="0.8"/>
  <circle cx="33" cy="49" r="1.6" fill="#8040b8" opacity="0.45"/>
  <line x1="65" y1="47" x2="70" y2="36" stroke="#1e4818" stroke-width="0.8" opacity="0.3"/>
  <line x1="56" y1="39" x2="37" y2="32" stroke="#1e4818" stroke-width="0.8" opacity="0.3"/>
</svg>
