<svg xmlns="http://www.w3.org/2000/svg" viewBox="0 0 100 100">
  <!-- Potato plant with dense foliage - top-down view -->
  <defs>
    <radialGradient id="potato_base" cx="50%" cy="50%" r="55%">
      <stop offset="0%" stop-color="#508c2e"/>
      <stop offset="70%" stop-color="#407824"/>
      <stop offset="100%" stop-color="#306018"/>
    </radialGradient>
  </defs>
  <path d="M86 48 C83 55 76 61 70 65 C65 72 52 80 48 86 C42 81 35 82 31 76 C22 67 20 60 17 55 C22 45 30 37 31 30 C42 24 48 27 54 21 C60 26 65 27 69 35 C77 40 83 45 86 48 Z" fill="url(#potato_base)" opacity="0.8"/>
  <ellipse cx="58" cy="47" rx="13" ry="11" fill="#58942e" opacity="0.42"/>
  <ellipse cx="59" cy="63" rx="13" ry="10" fill="#508c28" opacity="0.43"/>
  <ellipse cx="43" cy="58" rx="14" ry="10" fill="#58942e" opacity="0.45"/>
  <ellipse cx="37" cy="50" rx="11" ry="9" fill="#508c28" opacity="0.46"/>
  <ellipse cx="39" cy="40" rx="12" ry="10" fill="#58942e" opacity="0.51"/>
  <ellipse cx="55" cy="40" rx="10" ry="6" fill="#508c28" opacity="0.59"/>
  <circle cx="45" cy="42" r="2" fill="#f0f0e0" opacity="0.8"/>
  <circle cx="44" cy="41" r="0.8" fill="#ffffff" opacity="0.45"/>
  <circle cx="58" cy="55" r="2" fill="#f0f0e0" opacity="0.8"/>
  <circle cx="57" cy="54" r="0.8" fill="#ffffff" opacity="0.45"/>
  <line x1="59" y1="55" x2="47" y2="73" stroke="#306018" stroke-width="0.8" opacity="0.3"/>
  <line x1="56" y1="56" x2="46" y2="45" stroke="#306018" stroke-width="0.8" opacity="0.3"/>
</svg>
