<svg xmlns="http://www.w3.org/2000/svg" viewBox="0 0 100 100">
  <!-- Radish plant with round leaves - top-down view -->
  <defs>
    <radialGradient id="radish_base" cx="50%" cy="50%" r="55%">
      <stop offset="0%" stop-color="#58a830"/>
      <stop offset="70%" stop-color="#489428"/>
      <stop offset="100%" stop-color="#388020"/>
    </radialGradient>
  </defs>
  <path d="M78 49 C80 52 78 57 73 65 C66 70 58 72 47 73 C41 70 41 63 33 62 C29 60 27 53 29 49 C30 42 27 38 31 31 C39 30 42 23 44 19 C52 26 55 29 65 30 C65 33 77 41 78 49 Z" fill="url(#radish_base)" opacity="0.8"/>
  <ellipse cx="62" cy="53" rx="10" ry="9" fill="#58942e" opacity="0.5"/>
  <ellipse cx="49" cy="62" rx="10" ry="11" fill="#508c28" opacity="0.53"/>
  <ellipse cx="39" cy="53" rx="12" ry="11" fill="#58942e" opacity="0.6"/>
  <ellipse cx="38" cy="44" rx="8" ry="6" fill="#508c28" opacity="0.44"/>
  <ellipse cx="50" cy="34" rx="11" ry="8" fill="#58942e" opacity="0.54"/>
  <circle cx="50" cy="50" r="6" fill="#d83848" opacity="0.5"/>
  <line x1="64" y1="39" x2="66" y2="42" stroke="#388020" stroke-width="0.8" opacity="0.3"/>
  <line x1="55" y1="44" x2="36" y2="49" stroke="#388020" stroke-width="0.8" opacity="0.3"/>
</svg>
