<svg xmlns="http://www.w3.org/2000/svg" viewBox="0 0 100 100">
  <!-- Raspberry with red aggregate fruits - top-down view -->
  <defs>
    <radialGradient id="raspberry_base" cx="50%" cy="50%" r="55%">
      <stop offset="0%" stop-color="#3a7828"/>
      <stop offset="70%" stop-color="#2c6420"/>
      <stop offset="100%" stop-color="#205018"/>
    </radialGradient>
  </defs>
  <path d="M81 45 C76 59 69 67 68 76 C61 76 54 80 46 77 C45 72 39 75 33 73 C25 66 20 60 17 52 C25 46 24 36 33 30 C38 26 43 23 54 19 C59 25 59 26 64 32 C68 33 78 41 81 45 Z" fill="url(#raspberry_base)" opacity="0.8"/>
  <ellipse cx="62" cy="47" rx="10" ry="10" fill="#58942e" opacity="0.45"/>
  <ellipse cx="50" cy="65" rx="13" ry="6" fill="#508c28" opacity="0.46"/>
  <ellipse cx="37" cy="61" rx="12" ry="10" fill="#58942e" opacity="0.42"/>
  <ellipse cx="34" cy="42" rx="8" ry="11" fill="#508c28" opacity="0.42"/>
  <ellipse cx="59" cy="39" rx="14" ry="10" fill="#58942e" opacity="0.48"/>
  <circle cx="40" cy="38" r="3.5" fill="#c82838" opacity="0.8"/>
  <circle cx="39" cy="37" r="1.4" fill="#d84050" opacity="0.45"/>
  <circle cx="58" cy="42" r="3.5" fill="#c82838" opacity="0.8"/>
  <circle cx="57" cy="41" r="1.4" fill="#d84050" opacity="0.45"/>
  <circle cx="46" cy="56" r="3.5" fill="#c82838" opacity="0.8"/>
  <circle cx="45" cy="55" r="1.4" fill="#d84050" opacity="0.45"/>
  <circle cx="62" cy="54" r="3.5" fill="#c82838" opacity="0.8"/>
  <circle cx="61" cy="53" r="1.4" fill="#d84050" opacity="0.45"/>
  <circle cx="34" cy="52" r="3.5" fill="#c82838" opacity="0.8"/>
  <circle cx="33" cy="51" r="1.4" fill="#d84050" opacity="0.45"/>
  <line x1="42" y1="55" x2="58" y2="49" stroke="#205018" stroke-width="0.8" opacity="0.3"/>
  <line x1="55" y1="35" x2="65" y2="41" stroke="#205018" stroke-width="0.8" opacity="0.3"/>
</svg>
