<svg xmlns="http://www.w3.org/2000/svg" viewBox="0 0 100 100">
  <!-- Sage with silvery-green textured leaves - top-down view -->
  <defs>
    <radialGradient id="sage_base" cx="50%" cy="50%" r="55%">
      <stop offset="0%" stop-color="#709880"/>
      <stop offset="70%" stop-color="#608870"/>
      <stop offset="100%" stop-color="#507860"/>
    </radialGradient>
  </defs>
  <path d="M83 52 C78 59 77 69 69 77 C63 80 62 77 55 76 C49 73 39 73 27 66 C25 60 23 55 22 46 C23 38 32 31 32 28 C36 23 44 25 48 20 C52 24 64 27 69 28 C71 35 77 46 83 52 Z" fill="url(#sage_base)" opacity="0.8"/>
  <ellipse cx="63" cy="51" rx="13" ry="10" fill="#80a890" opacity="0.45"/>
  <ellipse cx="58" cy="64" rx="10" ry="8" fill="#709880" opacity="0.48"/>
  <ellipse cx="43" cy="58" rx="14" ry="6" fill="#80a890" opacity="0.55"/>
  <ellipse cx="35" cy="43" rx="9" ry="6" fill="#709880" opacity="0.58"/>
  <ellipse cx="53" cy="33" rx="11" ry="9" fill="#80a890" opacity="0.46"/>
  <line x1="39" y1="51" x2="44" y2="50" stroke="#507860" stroke-width="0.8" opacity="0.3"/>
  <line x1="50" y1="53" x2="34" y2="47" stroke="#507860" stroke-width="0.8" opacity="0.3"/>
</svg>
