<svg xmlns="http://www.w3.org/2000/svg" viewBox="0 0 100 100">
  <!-- Spruce tree - star shaped from above - top-down view -->
  <defs>
    <radialGradient id="spruce_base" cx="50%" cy="50%" r="55%">
      <stop offset="0%" stop-color="#1e4c24"/>
      <stop offset="70%" stop-color="#143c1c"/>
      <stop offset="100%" stop-color="#0c2c14"/>
    </radialGradient>
  </defs>
  <path d="M87 51 C86 59 77 66 76 71 C67 74 59 77 48 77 C41 76 41 70 33 72 C29 67 15 58 12 49 C17 43 24 31 32 24 C34 25 41 22 50 21 C60 21 64 32 71 33 C80 39 80 46 87 51 Z" fill="url(#spruce_base)" opacity="0.8"/>
  <ellipse cx="67" cy="49" rx="8" ry="10" fill="#2e5c34" opacity="0.55"/>
  <ellipse cx="55" cy="65" rx="11" ry="6" fill="#1e4c24" opacity="0.46"/>
  <ellipse cx="40" cy="58" rx="10" ry="8" fill="#2e5c34" opacity="0.41"/>
  <ellipse cx="39" cy="40" rx="14" ry="11" fill="#1e4c24" opacity="0.43"/>
  <ellipse cx="57" cy="41" rx="9" ry="8" fill="#2e5c34" opacity="0.55"/>
  <circle cx="50" cy="50" r="4" fill="#4a3520" opacity="0.5"/>
  <line x1="35" y1="61" x2="22" y2="50" stroke="#0c2c14" stroke-width="0.8" opacity="0.3"/>
  <line x1="40" y1="56" x2="56" y2="57" stroke="#0c2c14" stroke-width="0.8" opacity="0.3"/>
</svg>
