<svg xmlns="http://www.w3.org/2000/svg" viewBox="0 0 100 100">
  <!-- Stevia with serrated bright leaves - top-down view -->
  <defs>
    <radialGradient id="stevia_base" cx="50%" cy="50%" r="55%">
      <stop offset="0%" stop-color="#58b038"/>
      <stop offset="70%" stop-color="#48a028"/>
      <stop offset="100%" stop-color="#389020"/>
    </radialGradient>
  </defs>
  <path d="M66 49 C64 52 72 59 69 69 C62 65 60 72 50 70 C42 66 39 70 36 66 C29 58 24 54 21 48 C27 45 33 32 33 26 C36 24 48 27 52 30 C53 30 58 25 67 26 C65 37 63 40 66 49 Z" fill="url(#stevia_base)" opacity="0.8"/>
  <ellipse cx="64" cy="53" rx="13" ry="9" fill="#68c048" opacity="0.44"/>
  <ellipse cx="58" cy="64" rx="13" ry="10" fill="#58b038" opacity="0.54"/>
  <ellipse cx="40" cy="54" rx="13" ry="10" fill="#68c048" opacity="0.52"/>
  <ellipse cx="41" cy="44" rx="8" ry="6" fill="#58b038" opacity="0.48"/>
  <ellipse cx="55" cy="42" rx="12" ry="6" fill="#68c048" opacity="0.54"/>
  <line x1="43" y1="57" x2="60" y2="46" stroke="#389020" stroke-width="0.8" opacity="0.3"/>
  <line x1="37" y1="45" x2="42" y2="37" stroke="#389020" stroke-width="0.8" opacity="0.3"/>
</svg>
