<svg xmlns="http://www.w3.org/2000/svg" viewBox="0 0 100 100">
  <!-- Sunflower - large flower head from above with radiating petals -->
  <defs>
    <radialGradient id="sun_center" cx="50%" cy="50%" r="50%">
      <stop offset="0%" stop-color="#6a4a20"/>
      <stop offset="50%" stop-color="#5a3a18"/>
      <stop offset="100%" stop-color="#4a2a10"/>
    </radialGradient>
  </defs>
  <!-- Large leaves at base -->
  <ellipse cx="28" cy="70" rx="14" ry="8" fill="#4a8830" opacity="0.5" transform="rotate(-30 28 70)"/>
  <ellipse cx="72" cy="68" rx="14" ry="8" fill="#4a8830" opacity="0.45" transform="rotate(30 72 68)"/>
  <ellipse cx="22" cy="42" rx="12" ry="7" fill="#4a8830" opacity="0.45" transform="rotate(-60 22 42)"/>
  <ellipse cx="78" cy="40" rx="12" ry="7" fill="#4a8830" opacity="0.4" transform="rotate(60 78 40)"/>
  <!-- Yellow petals radiating from center -->
  <ellipse cx="50" cy="18" rx="6" ry="16" fill="#f0c020" opacity="0.85"/>
  <ellipse cx="68" cy="22" rx="6" ry="16" fill="#e8b818" opacity="0.8" transform="rotate(30 68 22)"/>
  <ellipse cx="80" cy="36" rx="6" ry="16" fill="#f0c020" opacity="0.8" transform="rotate(60 80 36)"/>
  <ellipse cx="82" cy="54" rx="6" ry="16" fill="#e8b818" opacity="0.75" transform="rotate(90 82 54)"/>
  <ellipse cx="74" cy="70" rx="6" ry="16" fill="#f0c020" opacity="0.75" transform="rotate(120 74 70)"/>
  <ellipse cx="58" cy="80" rx="6" ry="16" fill="#e8b818" opacity="0.7" transform="rotate(150 58 80)"/>
  <ellipse cx="42" cy="80" rx="6" ry="16" fill="#f0c020" opacity="0.7" transform="rotate(210 42 80)"/>
  <ellipse cx="26" cy="70" rx="6" ry="16" fill="#e8b818" opacity="0.75" transform="rotate(240 26 70)"/>
  <ellipse cx="18" cy="54" rx="6" ry="16" fill="#f0c020" opacity="0.75" transform="rotate(270 18 54)"/>
  <ellipse cx="20" cy="36" rx="6" ry="16" fill="#e8b818" opacity="0.8" transform="rotate(300 20 36)"/>
  <ellipse cx="32" cy="22" rx="6" ry="16" fill="#f0c020" opacity="0.8" transform="rotate(330 32 22)"/>
  <!-- Inner petals layer -->
  <ellipse cx="50" cy="26" rx="4" ry="10" fill="#f8d040" opacity="0.6"/>
  <ellipse cx="72" cy="42" rx="4" ry="10" fill="#f8d040" opacity="0.55" transform="rotate(70 72 42)"/>
  <ellipse cx="62" cy="72" rx="4" ry="10" fill="#f8d040" opacity="0.5" transform="rotate(140 62 72)"/>
  <ellipse cx="38" cy="72" rx="4" ry="10" fill="#f8d040" opacity="0.5" transform="rotate(220 38 72)"/>
  <ellipse cx="28" cy="42" rx="4" ry="10" fill="#f8d040" opacity="0.55" transform="rotate(290 28 42)"/>
  <!-- Large brown center disc -->
  <circle cx="50" cy="50" r="16" fill="url(#sun_center)" opacity="0.9"/>
  <!-- Seed pattern in center -->
  <circle cx="46" cy="46" r="1.5" fill="#7a5a28" opacity="0.5"/>
  <circle cx="54" cy="46" r="1.5" fill="#7a5a28" opacity="0.5"/>
  <circle cx="50" cy="42" r="1.5" fill="#7a5a28" opacity="0.5"/>
  <circle cx="50" cy="54" r="1.5" fill="#7a5a28" opacity="0.5"/>
  <circle cx="44" cy="52" r="1.5" fill="#7a5a28" opacity="0.5"/>
  <circle cx="56" cy="52" r="1.5" fill="#7a5a28" opacity="0.5"/>
</svg>
