<svg xmlns="http://www.w3.org/2000/svg" viewBox="0 0 100 100">
  <!-- Thyme - tiny-leaved aromatic - top-down view -->
  <defs>
    <radialGradient id="thyme_base" cx="50%" cy="50%" r="55%">
      <stop offset="0%" stop-color="#608848"/>
      <stop offset="70%" stop-color="#508038"/>
      <stop offset="100%" stop-color="#407028"/>
    </radialGradient>
  </defs>
  <path d="M74 54 C72 62 72 65 68 72 C62 70 54 72 52 75 C47 72 36 69 32 72 C30 69 22 61 20 52 C23 50 32 38 33 36 C36 34 47 30 53 31 C59 29 64 32 65 35 C71 39 72 49 74 54 Z" fill="url(#thyme_base)" opacity="0.8"/>
  <ellipse cx="60" cy="52" rx="14" ry="9" fill="#709850" opacity="0.59"/>
  <ellipse cx="61" cy="62" rx="10" ry="6" fill="#608848" opacity="0.55"/>
  <ellipse cx="39" cy="64" rx="9" ry="7" fill="#709850" opacity="0.47"/>
  <ellipse cx="36" cy="54" rx="10" ry="11" fill="#608848" opacity="0.57"/>
  <ellipse cx="41" cy="36" rx="8" ry="6" fill="#709850" opacity="0.56"/>
  <ellipse cx="53" cy="37" rx="14" ry="11" fill="#608848" opacity="0.52"/>
  <line x1="40" y1="62" x2="34" y2="53" stroke="#407028" stroke-width="0.8" opacity="0.3"/>
  <line x1="35" y1="57" x2="32" y2="70" stroke="#407028" stroke-width="0.8" opacity="0.3"/>
</svg>
