<svg xmlns="http://www.w3.org/2000/svg" viewBox="0 0 100 100">
  <!-- Turnip with broad leaves - top-down view -->
  <defs>
    <radialGradient id="turnip_base" cx="50%" cy="50%" r="55%">
      <stop offset="0%" stop-color="#58a030"/>
      <stop offset="70%" stop-color="#488c28"/>
      <stop offset="100%" stop-color="#387820"/>
    </radialGradient>
  </defs>
  <path d="M79 54 C74 61 73 59 67 67 C62 73 56 81 52 85 C41 85 37 84 29 78 C27 70 18 65 13 57 C18 49 27 37 34 28 C38 28 47 24 51 24 C56 25 70 28 74 31 C78 42 81 47 79 54 Z" fill="url(#turnip_base)" opacity="0.8"/>
  <ellipse cx="58" cy="51" rx="14" ry="11" fill="#58942e" opacity="0.41"/>
  <ellipse cx="54" cy="62" rx="8" ry="8" fill="#508c28" opacity="0.49"/>
  <ellipse cx="38" cy="61" rx="14" ry="10" fill="#58942e" opacity="0.45"/>
  <ellipse cx="42" cy="42" rx="11" ry="7" fill="#508c28" opacity="0.54"/>
  <ellipse cx="49" cy="35" rx="8" ry="6" fill="#58942e" opacity="0.52"/>
  <circle cx="50" cy="52" r="6" fill="#d8c8e0" opacity="0.5"/>
  <line x1="43" y1="39" x2="32" y2="39" stroke="#387820" stroke-width="0.8" opacity="0.3"/>
  <line x1="62" y1="46" x2="73" y2="35" stroke="#387820" stroke-width="0.8" opacity="0.3"/>
</svg>
