<svg xmlns="http://www.w3.org/2000/svg" viewBox="0 0 100 100">
  <!-- Walnut tree with compound leaves - top-down view -->
  <defs>
    <radialGradient id="walnut_tree_base" cx="50%" cy="50%" r="55%">
      <stop offset="0%" stop-color="#3a6828"/>
      <stop offset="70%" stop-color="#2c5820"/>
      <stop offset="100%" stop-color="#1e4818"/>
    </radialGradient>
  </defs>
  <path d="M83 49 C76 60 74 67 72 81 C63 85 55 86 49 87 C42 79 30 72 25 71 C20 61 21 60 13 49 C21 42 18 29 25 22 C34 19 38 12 47 6 C56 15 59 15 70 22 C74 31 82 40 83 49 Z" fill="url(#walnut_tree_base)" opacity="0.8"/>
  <ellipse cx="60" cy="53" rx="11" ry="9" fill="#58942e" opacity="0.48"/>
  <ellipse cx="64" cy="62" rx="9" ry="11" fill="#508c28" opacity="0.46"/>
  <ellipse cx="47" cy="71" rx="14" ry="8" fill="#58942e" opacity="0.54"/>
  <ellipse cx="42" cy="52" rx="12" ry="8" fill="#508c28" opacity="0.47"/>
  <ellipse cx="45" cy="38" rx="12" ry="11" fill="#58942e" opacity="0.41"/>
  <ellipse cx="54" cy="39" rx="9" ry="7" fill="#508c28" opacity="0.46"/>
  <line x1="62" y1="47" x2="69" y2="58" stroke="#1e4818" stroke-width="0.8" opacity="0.3"/>
  <line x1="52" y1="36" x2="54" y2="27" stroke="#1e4818" stroke-width="0.8" opacity="0.3"/>
</svg>
