<svg xmlns="http://www.w3.org/2000/svg" viewBox="0 0 100 100">
  <!-- Willow tree with drooping canopy - top-down view -->
  <defs>
    <radialGradient id="willow_base" cx="50%" cy="50%" r="55%">
      <stop offset="0%" stop-color="#58a038"/>
      <stop offset="70%" stop-color="#489028"/>
      <stop offset="100%" stop-color="#388020"/>
    </radialGradient>
  </defs>
  <path d="M88 45 C83 59 82 69 77 82 C68 83 60 87 50 87 C44 83 32 73 27 70 C17 59 14 55 10 44 C14 35 12 33 14 26 C27 26 43 19 53 20 C59 26 67 27 76 31 C83 32 80 43 88 45 Z" fill="url(#willow_base)" opacity="0.8"/>
  <ellipse cx="65" cy="55" rx="12" ry="7" fill="#68b048" opacity="0.49"/>
  <ellipse cx="54" cy="71" rx="14" ry="8" fill="#58a038" opacity="0.46"/>
  <ellipse cx="39" cy="69" rx="12" ry="11" fill="#68b048" opacity="0.48"/>
  <ellipse cx="32" cy="50" rx="12" ry="10" fill="#58a038" opacity="0.41"/>
  <ellipse cx="47" cy="38" rx="12" ry="10" fill="#68b048" opacity="0.59"/>
  <ellipse cx="57" cy="42" rx="12" ry="6" fill="#58a038" opacity="0.5"/>
  <line x1="63" y1="65" x2="61" y2="70" stroke="#388020" stroke-width="0.8" opacity="0.3"/>
  <line x1="49" y1="48" x2="53" y2="51" stroke="#388020" stroke-width="0.8" opacity="0.3"/>
</svg>
