<svg xmlns="http://www.w3.org/2000/svg" viewBox="0 0 100 100">
  <!-- Zucchini plant with large leaves and fruits - top-down view -->
  <defs>
    <radialGradient id="zucchini_base" cx="50%" cy="50%" r="55%">
      <stop offset="0%" stop-color="#508c2e"/>
      <stop offset="70%" stop-color="#407824"/>
      <stop offset="100%" stop-color="#306018"/>
    </radialGradient>
  </defs>
  <path d="M79 53 C74 58 76 63 71 72 C63 79 53 78 46 85 C42 81 30 77 27 69 C21 66 19 59 17 49 C20 43 23 34 28 30 C36 27 49 25 56 17 C64 23 65 26 67 26 C69 39 76 41 79 53 Z" fill="url(#zucchini_base)" opacity="0.8"/>
  <ellipse cx="58" cy="52" rx="9" ry="7" fill="#58942e" opacity="0.59"/>
  <ellipse cx="56" cy="58" rx="10" ry="6" fill="#508c28" opacity="0.54"/>
  <ellipse cx="41" cy="63" rx="10" ry="7" fill="#58942e" opacity="0.55"/>
  <ellipse cx="41" cy="42" rx="11" ry="10" fill="#508c28" opacity="0.57"/>
  <ellipse cx="50" cy="33" rx="12" ry="10" fill="#58942e" opacity="0.44"/>
  <ellipse cx="38" cy="55" rx="5" ry="12" fill="#3a7828" opacity="0.8" transform="rotate(-30 38 55)"/>
  <ellipse cx="62" cy="48" rx="4" ry="10" fill="#3a7828" opacity="0.75" transform="rotate(20 62 48)"/>
  <circle cx="44" cy="35" r="4" fill="#f0c820" opacity="0.8"/>
  <circle cx="43" cy="34" r="1.6" fill="#f8d848" opacity="0.45"/>
  <line x1="38" y1="45" x2="45" y2="52" stroke="#306018" stroke-width="0.8" opacity="0.3"/>
  <line x1="48" y1="45" x2="52" y2="27" stroke="#306018" stroke-width="0.8" opacity="0.3"/>
</svg>
